{
.appVersion = "3260";
DisplayStrings = (
ss
);
copyright = "Copyright (c) 2014, Impallari Type (www.impallari.com), with Reserved Font Name Libre Clarendon.";
customParameters = (
{
name = openTypeOS2Type;
value = (
);
},
{
name = description;
value = "Libre Clarendon fonts in 20 Styles. 4 Widths (Condensed Narrow Normal Wide) in 5 weigths each (Ligth Regular Medium Bold and Black).\012An integrated and comprehensive Clarendon family in a wide range of weights and widths that can be used for both Text and Display settings. Loosely based in 1874 Fann Street Foundry Specimens.";
},
{
name = license;
value = "This Font Software is licensed under the SIL Open Font License, Version 1.1. This license is available with a FAQ at: http://scripts.sil.org/OFL";
},
{
name = licenseURL;
value = "http://scripts.sil.org/OFL";
},
{
name = trademark;
value = "Libre Clarendon is a trademark of Impallari Type.";
},
{
name = vendorID;
value = IMPA;
},
{
name = Axes;
value = (
{
Name = Weight;
Tag = wght;
},
{
Name = Width;
Tag = wdth;
}
);
}
);
date = "2015-05-08 17:09:15 +0000";
designer = "Pablo Impallari, Rodrigo Fuenzalida";
designerURL = "http://www.impallari.com/";
familyName = "Libre Clarendon";
featurePrefixes = (
{
automatic = 1;
code = "languagesystem DFLT dflt;\012";
name = Languagesystems;
}
);
fontMaster = (
{
alignmentZones = (
"{665, 10}",
"{630, 10}",
"{450, 10}",
"{0, -10}",
"{-216, -10}"
);
ascender = 665;
capHeight = 630;
customParameters = (
{
name = typoAscender;
value = 924;
},
{
name = typoDescender;
value = -326;
},
{
name = typoLineGap;
value = 0;
},
{
name = winAscent;
value = 924;
},
{
name = winDescent;
value = -326;
}
);
descender = -216;
horizontalStems = (
35
);
id = "E9E6D55E-9446-45F2-B66C-3272698B0216";
verticalStems = (
40
);
weight = Light;
weightValue = 40;
width = Condensed;
xHeight = 450;
},
{
alignmentZones = (
"{665, 10}",
"{630, 10}",
"{450, 10}",
"{0, -10}",
"{-216, -10}"
);
ascender = 665;
capHeight = 630;
customParameters = (
{

glyphs = (
{
color = 6;
glyphname = A;
lastChange = "2015-05-08 17:24:40 +0000";
layers = (
{
background = {
paths = (
{
closed = 1;
nodes = (
"8 0 LINE",
"182 0 LINE",
"182 30 LINE",
"146 30 LINE SMOOTH",
"118 30 OFFCURVE",
"107 39 OFFCURVE",
"107 58 CURVE SMOOTH",
"107 64 OFFCURVE",
"108 71 OFFCURVE",
"110 79 CURVE SMOOTH",
"219 561 LINE",
"224 561 LINE",
"325 79 LINE SMOOTH",
"327 70 OFFCURVE",
"328 63 OFFCURVE",
"328 56 CURVE SMOOTH",
"328 38 OFFCURVE",
"319 30 OFFCURVE",
"295 30 CURVE SMOOTH",
"259 30 LINE",
"259 0 LINE",
"445 0 LINE",
"445 30 LINE",
"412 30 LINE SMOOTH",
"389 30 OFFCURVE",
"378 40 OFFCURVE",
"370 80 CURVE SMOOTH",
"255 629 LINE",
"201 629 LINE",
"74 79 LINE SMOOTH",
"65 40 OFFCURVE",
"58 30 OFFCURVE",
"32 30 CURVE SMOOTH",
"8 30 LINE"
);
},
{
closed = 1;
nodes = (
"137 234 LINE",
"303 234 LINE",
"297 264 LINE",
"144 264 LINE"
);
}
);
};
guideLines = (
{
angle = 90;
position = "{236, 79}";
}
);
layerId = "E9E6D55E-9446-45F2-B66C-3272698B0216";
name = "Light Condensed";
paths = (
{
closed = 1;
nodes = (
"8 0 LINE",
"180 0 LINE",
"180 30 LINE",
"144 30 LINE SMOOTH",
"116 30 OFFCURVE",
"105 39 OFFCURVE",
"105 58 CURVE SMOOTH",
"105 64 OFFCURVE",
"106 71 OFFCURVE",
"108 79 CURVE SMOOTH",
"234 583 LINE",
"239 583 LINE",
"355 79 LINE SMOOTH",
"357 70 OFFCURVE",
"358 63 OFFCURVE",
"358 56 CURVE SMOOTH",
"358 38 OFFCURVE",
"349 30 OFFCURVE",
"325 30 CURVE SMOOTH",
"289 30 LINE",
"289 0 LINE",
"475 0 LINE",
"475 30 LINE",
"442 30 LINE SMOOTH",
"419 30 OFFCURVE",
"409 40 OFFCURVE",
"400 80 CURVE SMOOTH",
"270 629 LINE",
"216 629 LINE",
"74 79 LINE SMOOTH",
"64 40 OFFCURVE",
"58 30 OFFCURVE",
"32 30 CURVE SMOOTH",
"8 30 LINE"
);
},
{
closed = 1;
nodes = (
"137 234 LINE",
"343 234 LINE",
"337 264 LINE",
"144 264 LINE"
);
}
);
width = 483;
},
{
background = {
paths = (
{
closed = 1;
nodes = (
"11 0 LINE",
"233 0 LINE",
"233 90 LINE",
"195 90 LINE SMOOTH",
"178 90 OFFCURVE",
"171 97 OFFCURVE",
"171 112 CURVE SMOOTH",
"171 120 OFFCURVE",
"172 126 OFFCURVE",
"174 135 CURVE SMOOTH",
"262 504 LINE",
"266 504 LINE",
"345 130 LINE SMOOTH",
"346 124 OFFCURVE",
"347 119 OFFCURVE",
"347 113 CURVE SMOOTH",
"347 99 OFFCURVE",
"339 90 OFFCURVE",
"324 90 CURVE SMOOTH",
"277 90 LINE",
"277 0 LINE",
"558 0 LINE",
"558 90 LINE",
"549 90 LINE SMOOTH",
"516 91 OFFCURVE",
"503 101 OFFCURVE",
"495 130 CURVE SMOOTH",
"362 630 LINE",
"202 630 LINE",
"67 119 LINE SMOOTH",
"61 97 OFFCURVE",
"50 90 OFFCURVE",
"31 90 CURVE SMOOTH",
"11 90 LINE"
);
},
{
closed = 1;
nodes = (
"180 224 LINE",
"339 224 LINE",
"321 301 LINE",
"196 301 LINE"
);
}
);
};
layerId = "B25F85BC-C782-4067-8484-07202F80B8CD";
name = Condensed;
paths = (
{
closed = 1;
nodes = (
"11 0 LINE",
"233 0 LINE",
"233 90 LINE",
"195 90 LINE SMOOTH",
"178 90 OFFCURVE",
"171 97 OFFCURVE",
"171 112 CURVE SMOOTH",
"171 120 OFFCURVE",
"172 126 OFFCURVE",
"174 135 CURVE SMOOTH",
"262 504 LINE",
"266 504 LINE",
"345 130 LINE SMOOTH",
"346 124 OFFCURVE",
"347 119 OFFCURVE",
"347 113 CURVE SMOOTH",
"347 99 OFFCURVE",
"339 90 OFFCURVE",
"324 90 CURVE SMOOTH",
"277 90 LINE",
"277 0 LINE",
"558 0 LINE",
"558 90 LINE",
"549 90 LINE SMOOTH",
"516 91 OFFCURVE",
"502 101 OFFCURVE",
"495 130 CURVE SMOOTH",
"367 630 LINE",
"197 630 LINE",
"67 119 LINE SMOOTH",
"61 97 OFFCURVE",
"50 90 OFFCURVE",
"31 90 CURVE SMOOTH",
"11 90 LINE"
);
},
{
closed = 1;
nodes = (
"180 219 LINE",
"339 219 LINE",
"321 306 LINE",
"196 306 LINE"
);
}
);
width = 567;
},
{
layerId = "B817C739-5D48-43E8-AAEE-CE891513D7BC";
name = "Bold Condensed";
paths = (
{
closed = 1;
nodes = (
"5 0 LINE",
"236 0 LINE",
"236 108 LINE",
"227 108 LINE SMOOTH",
"202 108 OFFCURVE",
"193 117 OFFCURVE",
"193 134 CURVE SMOOTH",
"193 140 OFFCURVE",
"194 146 OFFCURVE",
"195 153 CURVE SMOOTH",
"238 400 LINE",
"243 400 LINE",
"286 158 LINE SMOOTH",
"287 152 OFFCURVE",
"288 146 OFFCURVE",
"288 140 CURVE SMOOTH",
"288 119 OFFCURVE",
"277 108 OFFCURVE",
"258 108 CURVE SMOOTH",
"250 108 LINE",
"250 0 LINE",
"506 0 LINE",
"506 108 LINE",
"502 108 LINE SMOOTH",
"487 108 OFFCURVE",
"479 115 OFFCURVE",
"471 148 CURVE SMOOTH",
"358 630 LINE",
"170 630 LINE",
"47 142 LINE SMOOTH",
"40 116 OFFCURVE",
"31 108 OFFCURVE",
"9 108 CURVE SMOOTH",
"5 108 LINE"
);
},
{
closed = 1;
nodes = (
"187 174 LINE",
"294 174 LINE",
"283 284 LINE",
"200 284 LINE"
);
}
);
width = 511;
},
{
background = {
paths = (
{
closed = 1;
nodes = (
"15 0 LINE",
"264 0 LINE",
"264 36 LINE",
"188 36 LINE SMOOTH",
"172 36 OFFCURVE",
"163 46 OFFCURVE",
"163 58 CURVE SMOOTH",
"163 61 OFFCURVE",
"164 65 OFFCURVE",
"165 68 CURVE SMOOTH",
"366 583 LINE",
"370 583 LINE",
"576 68 LINE SMOOTH",
"577 65 OFFCURVE",
"578 61 OFFCURVE",
"578 58 CURVE SMOOTH",
"578 46 OFFCURVE",
"569 36 OFFCURVE",
"549 36 CURVE SMOOTH",
"477 36 LINE",
"477 0 LINE",
"737 0 LINE",
"737 36 LINE",
"665 36 LINE SMOOTH",
"646 36 OFFCURVE",
"638 44 OFFCURVE",
"628 68 CURVE SMOOTH",
"405 630 LINE",
"341 630 LINE",
"124 68 LINE SMOOTH",
"114 42 OFFCURVE",
"102 36 OFFCURVE",
"80 36 CURVE SMOOTH",
"15 36 LINE"
);
},
{
closed = 1;
nodes = (
"221 240 LINE",
"533 240 LINE",
"533 276 LINE",
"221 276 LINE"
);
}
);
};
layerId = UUID0;
name = "Light Extended";
paths = (
{
closed = 1;
nodes = (
"0 0 LINE",
"249 0 LINE",
"249 36 LINE",
"173 36 LINE SMOOTH",
"155 36 OFFCURVE",
"146 42 OFFCURVE",
"146 53 CURVE SMOOTH",
"146 58 OFFCURVE",
"148 62 OFFCURVE",
"150 68 CURVE SMOOTH",
"366 583 LINE",
"370 583 LINE",
"591 68 LINE SMOOTH",
"593 64 OFFCURVE",
"593 60 OFFCURVE",
"593 57 CURVE SMOOTH",
"593 43 OFFCURVE",
"583 36 OFFCURVE",
"564 36 CURVE SMOOTH",
"492 36 LINE",
"492 0 LINE",
"752 0 LINE",
"752 36 LINE",
"680 36 LINE SMOOTH",
"661 36 OFFCURVE",
"653 44 OFFCURVE",
"643 68 CURVE SMOOTH",
"403 630 LINE",
"345 630 LINE",
"109 68 LINE SMOOTH",
"98 42 OFFCURVE",
"87 36 OFFCURVE",
"65 36 CURVE SMOOTH",
"0 36 LINE"
);
},
{
closed = 1;
nodes = (
"221 240 LINE",
"533 240 LINE",
"533 276 LINE",
"221 276 LINE"
);
}
);
width = 752;
},
{
background = {
paths = (
{
closed = 1;
nodes = (
"10 0 LINE",
"339 0 LINE",
"339 90 LINE",
"246 90 LINE SMOOTH",
"223 90 OFFCURVE",
"210 101 OFFCURVE",
"210 122 CURVE SMOOTH",
"210 128 OFFCURVE",
"211 137 OFFCURVE",
"215 146 CURVE SMOOTH",
"364 519 LINE",
"369 519 LINE",
"503 146 LINE SMOOTH",
"507 134 OFFCURVE",
"509 124 OFFCURVE",
"509 116 CURVE SMOOTH",
"509 98 OFFCURVE",
"500 90 OFFCURVE",
"478 90 CURVE SMOOTH",
"394 90 LINE",
"394 0 LINE",
"753 0 LINE",
"753 90 LINE",
"740 90 LINE SMOOTH",
"691 91 OFFCURVE",
"676 103 OFFCURVE",
"659 146 CURVE SMOOTH",
"468 630 LINE",
"308 630 LINE",
"108 146 LINE SMOOTH",
"89 101 OFFCURVE",
"77 90 OFFCURVE",
"43 90 CURVE SMOOTH",
"10 90 LINE"
);
},
{
closed = 1;
nodes = (
"234 210 LINE",
"488 210 LINE",
"458 300 LINE",
"268 300 LINE"
);
}
);
};
layerId = "4355E1B8-19E6-44BD-A1D7-6E3C2DECA4C8";
name = Extended;
paths = (
{
closed = 1;
nodes = (
"10 0 LINE",
"332 0 LINE",
"332 90 LINE",
"263 90 LINE SMOOTH",
"241 90 OFFCURVE",
"229 101 OFFCURVE",
"229 119 CURVE SMOOTH",
"229 127 OFFCURVE",
"231 136 OFFCURVE",
"235 146 CURVE SMOOTH",
"394 519 LINE",
"399 519 LINE",
"553 146 LINE SMOOTH",
"558 134 OFFCURVE",
"559 124 OFFCURVE",
"559 116 CURVE SMOOTH",
"559 98 OFFCURVE",
"550 90 OFFCURVE",
"528 90 CURVE SMOOTH",
"457 90 LINE",
"457 0 LINE",
"823 0 LINE",
"823 90 LINE",
"790 90 LINE SMOOTH",
"741 90 OFFCURVE",
"728 103 OFFCURVE",
"709 146 CURVE SMOOTH",
"498 630 LINE",
"338 630 LINE",
"123 146 LINE SMOOTH",
"103 101 OFFCURVE",
"97 90 OFFCURVE",
"63 90 CURVE SMOOTH",
"10 90 LINE"
);
},
{
closed = 1;
nodes = (
"234 210 LINE",
"572 210 LINE",
"542 300 LINE",
"268 300 LINE"
);
}
);
width = 833;
},
{
background = {
paths = (
{
closed = 1;
nodes = (
"20 0 LINE",
"355 0 LINE",
"355 152 LINE",
"311 152 LINE SMOOTH",
"289 152 OFFCURVE",
"279 165 OFFCURVE",
"279 181 CURVE SMOOTH",
"279 187 OFFCURVE",
"280 194 OFFCURVE",
"283 202 CURVE SMOOTH",
"381 454 LINE",
"385 454 LINE",
"487 192 LINE SMOOTH",
"489 186 OFFCURVE",
"490 181 OFFCURVE",
"490 176 CURVE SMOOTH",
"490 161 OFFCURVE",
"481 152 OFFCURVE",
"462 152 CURVE SMOOTH",
"401 152 LINE",
"401 0 LINE",
"817 0 LINE",
"817 152 LINE",
"809 152 LINE SMOOTH",
"775 153 OFFCURVE",
"762 163 OFFCURVE",
"748 192 CURVE SMOOTH",
"537 630 LINE",
"291 630 LINE",
"100 187 LINE SMOOTH",
"88 160 OFFCURVE",
"79 152 OFFCURVE",
"51 152 CURVE SMOOTH",
"20 152 LINE"
);
},
{
closed = 1;
nodes = (
"275 208 LINE",
"494 208 LINE",
"458 331 LINE",
"311 331 LINE"
);
}
);
};
layerId = "14C77FDB-037D-4842-9381-6D9ED15DD48C";
name = "Bold Extended";
paths = (
{
closed = 1;
nodes = (
"10 0 LINE",
"355 0 LINE",
"355 152 LINE",
"301 152 LINE SMOOTH",
"279 152 OFFCURVE",
"269 165 OFFCURVE",
"269 181 CURVE SMOOTH",
"269 187 OFFCURVE",
"270 194 OFFCURVE",
"273 202 CURVE SMOOTH",
"381 464 LINE",
"385 464 LINE",
"497 192 LINE SMOOTH",
"499 186 OFFCURVE",
"500 181 OFFCURVE",
"500 176 CURVE SMOOTH",
"500 161 OFFCURVE",
"491 152 OFFCURVE",
"472 152 CURVE SMOOTH",
"401 152 LINE",
"401 0 LINE",
"827 0 LINE",
"827 152 LINE",
"819 152 LINE SMOOTH",
"785 153 OFFCURVE",
"772 163 OFFCURVE",
"758 192 CURVE SMOOTH",
"547 630 LINE",
"281 630 LINE",
"90 187 LINE SMOOTH",
"78 160 OFFCURVE",
"69 152 OFFCURVE",
"41 152 CURVE SMOOTH",
"10 152 LINE"
);
},
{
closed = 1;
nodes = (
"265 208 LINE",
"504 208 LINE",
"468 331 LINE",
"301 331 LINE"
);
}
);
width = 837;
}
);
unicode = 0041;
},
{
color = 6;
glyphname = AE;
lastChange = "2015-05-08 17:11:02 +0000";
layers = (
{
layerId = "E9E6D55E-9446-45F2-B66C-3272698B0216";
name = "Light Condensed";
paths = (
{
closed = 1;
nodes = (
"8 0 LINE",
"182 0 LINE",
"182 30 LINE",
"156 30 LINE SMOOTH",
"127 30 OFFCURVE",
"118 35 OFFCURVE",
"118 45 CURVE SMOOTH",
"118 49 OFFCURVE",
"120 55 OFFCURVE",
"123 61 CURVE SMOOTH",
"357 561 LINE",
"362 561 LINE",
"393 629 LINE",
"352 629 LINE",
"82 56 LINE SMOOTH",
"73 37 OFFCURVE",
"67 30 OFFCURVE",
"41 30 CURVE SMOOTH",
"8 30 LINE"
);
},
{
closed = 1;
nodes = (
"187 234 LINE",
"383 234 LINE",
"377 264 LINE",
"194 264 LINE"
);
},
{
closed = 1;
nodes = (
"290 0 LINE",
"655 0 LINE",
"655 209 LINE",
"623 209 LINE",
"623 53 OFFCURVE",
"606 30 OFFCURVE",
"561 30 CURVE SMOOTH",
"405 30 LINE",
"405 303 LINE",
"478 303 LINE SMOOTH",
"515 303 OFFCURVE",
"519 284 OFFCURVE",
"521 180 CURVE",
"553 180 LINE",
"553 446 LINE",
"521 446 LINE",
"519 354 OFFCURVE",
"515 335 OFFCURVE",
"478 335 CURVE SMOOTH",
"405 335 LINE",
"405 600 LINE",
"561 600 LINE SMOOTH",
"604 600 OFFCURVE",
"623 577 OFFCURVE",
"623 438 CURVE",
"655 438 LINE",
"655 630 LINE",
"253 630 LINE",
"253 600 LINE",
"362 600 LINE",
"362 71 LINE SMOOTH",
"362 45 OFFCURVE",
"348 30 OFFCURVE",
"317 30 CURVE SMOOTH",
"290 30 LINE"
);
}
);
width = 705;
},
{
layerId = "B25F85BC-C782-4067-8484-07202F80B8CD";
name = Condensed;
paths = (
{
closed = 1;
nodes = (
"11 0 LINE",
"252 0 LINE",
"252 90 LINE",
"215 90 LINE SMOOTH",
"197 90 OFFCURVE",
"188 96 OFFCURVE",
"188 106 CURVE SMOOTH",
"188 110 OFFCURVE",
"190 115 OFFCURVE",
"193 121 CURVE SMOOTH",
"417 540 LINE",
"422 540 LINE",
"463 629 LINE",
"352 629 LINE",
"76 104 LINE SMOOTH",
"70 92 OFFCURVE",
"63 90 OFFCURVE",
"41 90 CURVE SMOOTH",
"11 90 LINE"
);
},
{
closed = 1;
nodes = (
"207 224 LINE",
"473 224 LINE",
"467 301 LINE",
"214 301 LINE"
);
},
{
closed = 1;
nodes = (
"360 0 LINE",
"838 0 LINE",
"838 272 LINE",
"719 272 LINE",
"719 112 OFFCURVE",
"706 90 OFFCURVE",
"659 90 CURVE SMOOTH",
"560 90 LINE",
"560 268 LINE",
"565 268 LINE SMOOTH",
"601 268 OFFCURVE",
"607 246 OFFCURVE",
"607 168 CURVE",
"678 168 LINE",
"678 448 LINE",
"607 448 LINE",
"607 366 OFFCURVE",
"602 350 OFFCURVE",
"565 350 CURVE SMOOTH",
"560 350 LINE",
"560 540 LINE",
"657 540 LINE SMOOTH",
"699 540 OFFCURVE",
"719 507 OFFCURVE",
"719 354 CURVE",
"838 354 LINE",
"838 630 LINE",
"240 630 LINE",
"240 540 LINE",
"422 540 LINE",
"422 123 LINE SMOOTH",
"422 102 OFFCURVE",
"416 90 OFFCURVE",
"397 90 CURVE SMOOTH",
"360 90 LINE"
);
}
);
width = 878;
},
{
layerId = "B817C739-5D48-43E8-AAEE-CE891513D7BC";
name = "Bold Condensed";
paths = (
{
closed = 1;
nodes = (
"5 0 LINE",
"249 0 LINE",
"249 108 LINE",
"237 108 LINE SMOOTH",
"220 108 OFFCURVE",
"212 115 OFFCURVE",
"212 126 CURVE SMOOTH",
"212 130 OFFCURVE",
"213 134 OFFCURVE",
"215 139 CURVE SMOOTH",
"334 522 LINE",
"339 522 LINE",
"390 629 LINE",
"228 629 LINE",
"60 130 LINE SMOOTH",
"55 114 OFFCURVE",
"39 108 OFFCURVE",
"23 108 CURVE SMOOTH",
"5 108 LINE"
);
},
{
closed = 1;
nodes = (
"131 204 LINE",
"377 204 LINE",
"371 314 LINE",
"138 314 LINE"
);
},
{
closed = 1;
nodes = (
"295 0 LINE",
"762 0 LINE",
"762 296 LINE",
"611 296 LINE",
"611 130 OFFCURVE",
"594 108 OFFCURVE",
"562 108 CURVE SMOOTH",
"519 108 LINE",
"519 304 LINE",
"522 304 LINE",
"533 304 OFFCURVE",
"536 297 OFFCURVE",
"536 211 CURVE",
"593 211 LINE",
"593 428 LINE",
"536 428 LINE",
"536 347 OFFCURVE",
"533 336 OFFCURVE",
"522 336 CURVE SMOOTH",
"519 336 LINE",
"519 522 LINE",
"559 522 LINE SMOOTH",
"594 522 OFFCURVE",
"611 499 OFFCURVE",
"611 342 CURVE",
"762 342 LINE",
"762 630 LINE",
"145 630 LINE",
"145 522 LINE",
"339 522 LINE",
"339 141 LINE SMOOTH",
"339 120 OFFCURVE",
"332 108 OFFCURVE",
"314 108 CURVE SMOOTH",
"295 108 LINE"
);
}
);
width = 797;
},
{
layerId = UUID0;
name = "Light Extended";
paths = (
{
closed = 1;
nodes = (
"0 0 LINE",
"254 0 LINE",
"254 36 LINE",
"198 36 LINE SMOOTH",
"172 36 OFFCURVE",
"156 47 OFFCURVE",
"156 62 CURVE SMOOTH",
"156 67 OFFCURVE",
"158 73 OFFCURVE",
"163 79 CURVE SMOOTH",
"528 561 LINE",
"533 561 LINE",
"571 629 LINE",
"530 629 LINE",
"118 80 LINE SMOOTH",
"91 43 OFFCURVE",
"75 36 OFFCURVE",
"43 36 CURVE SMOOTH",
"0 36 LINE"
);
},
{
closed = 1;
nodes = (
"264 240 LINE",
"564 240 LINE",
"558 276 LINE",
"271 276 LINE"
);
},
{
closed = 1;
nodes = (
"434 0 LINE",
"996 0 LINE",
"996 211 LINE",
"964 211 LINE",
"964 64 OFFCURVE",
"954 36 OFFCURVE",
"902 36 CURVE SMOOTH",
"581 36 LINE",
"581 303 LINE",
"759 303 LINE SMOOTH",
"794 303 OFFCURVE",
"800 288 OFFCURVE",
"802 190 CURVE",
"834 190 LINE",
"834 446 LINE",
"802 446 LINE",
"800 350 OFFCURVE",
"794 335 OFFCURVE",
"759 335 CURVE SMOOTH",
"581 335 LINE",
"581 594 LINE",
"902 594 LINE SMOOTH",
"954 594 OFFCURVE",
"964 565 OFFCURVE",
"964 418 CURVE",
"996 418 LINE",
"996 630 LINE",
"333 630 LINE",
"333 594 LINE",
"533 594 LINE",
"533 67 LINE SMOOTH",
"533 46 OFFCURVE",
"525 36 OFFCURVE",
"508 36 CURVE SMOOTH",
"434 36 LINE"
);
}
);
width = 1086;
},
{
layerId = "4355E1B8-19E6-44BD-A1D7-6E3C2DECA4C8";
name = Extended;
paths = (
{
closed = 1;
nodes = (
"10 0 LINE",
"338 0 LINE",
"338 90 LINE",
"274 90 LINE SMOOTH",
"254 90 OFFCURVE",
"245 99 OFFCURVE",
"245 111 CURVE SMOOTH",
"245 118 OFFCURVE",
"250 125 OFFCURVE",
"257 133 CURVE SMOOTH",
"602 540 LINE",
"607 540 LINE",
"645 629 LINE",
"543 629 LINE",
"138 134 LINE SMOOTH",
"107 97 OFFCURVE",
"95 90 OFFCURVE",
"63 90 CURVE SMOOTH",
"10 90 LINE"
);
},
{
closed = 1;
nodes = (
"308 210 LINE",
"668 210 LINE",
"662 299 LINE",
"315 299 LINE"
);
},
{
closed = 1;
nodes = (
"505 0 LINE",
"1192 0 LINE",
"1192 269 LINE",
"1074 269 LINE",
"1074 132 OFFCURVE",
"1053 90 OFFCURVE",
"976 90 CURVE SMOOTH",
"745 90 LINE",
"745 278 LINE",
"803 278 LINE SMOOTH",
"860 278 OFFCURVE",
"872 260 OFFCURVE",
"872 196 CURVE",
"968 196 LINE",
"968 448 LINE",
"872 448 LINE",
"872 376 OFFCURVE",
"861 360 OFFCURVE",
"803 360 CURVE SMOOTH",
"745 360 LINE",
"745 540 LINE",
"969 540 LINE SMOOTH",
"1047 540 OFFCURVE",
"1074 497 OFFCURVE",
"1074 354 CURVE",
"1192 354 LINE",
"1192 630 LINE",
"355 630 LINE",
"355 540 LINE",
"607 540 LINE",
"607 123 LINE SMOOTH",
"607 102 OFFCURVE",
"601 90 OFFCURVE",
"582 90 CURVE SMOOTH",
"505 90 LINE"
);
}
);
width = 1236;
},
{
layerId = "14C77FDB-037D-4842-9381-6D9ED15DD48C";
name = "Bold Extended";
paths = (
{
closed = 1;
nodes = (
"9 0 LINE",
"420 0 LINE",
"420 151 LINE",
"356 151 LINE SMOOTH",
"336 151 OFFCURVE",
"327 160 OFFCURVE",
"327 172 CURVE SMOOTH",
"327 179 OFFCURVE",
"331 185 OFFCURVE",
"339 194 CURVE SMOOTH",
"574 479 LINE",
"579 479 LINE",
"617 629 LINE",
"502 629 LINE",
"137 195 LINE SMOOTH",
"106 158 OFFCURVE",
"94 151 OFFCURVE",
"62 151 CURVE SMOOTH",
"9 151 LINE"
);
},
{
closed = 1;
nodes = (
"307 208 LINE",
"627 208 LINE",
"621 331 LINE",
"314 331 LINE"
);
},
{
closed = 1;
nodes = (
"492 0 LINE",
"1215 0 LINE",
"1215 284 LINE",
"995 284 LINE",
"995 167 OFFCURVE",
"973 152 OFFCURVE",
"927 152 CURVE SMOOTH",
"831 152 LINE",
"831 270 LINE",
"837 270 LINE SMOOTH",
"854 270 OFFCURVE",
"868 240 OFFCURVE",
"868 213 CURVE",
"974 213 LINE",
"974 415 LINE",
"868 415 LINE",
"868 371 OFFCURVE",
"855 362 OFFCURVE",
"838 362 CURVE SMOOTH",
"831 362 LINE",
"831 478 LINE",
"923 478 LINE SMOOTH",
"972 478 OFFCURVE",
"995 466 OFFCURVE",
"995 346 CURVE",
"1215 346 LINE",
"1215 630 LINE",
"292 630 LINE",
"292 478 LINE",
"581 478 LINE",
"581 185 LINE SMOOTH",
"581 164 OFFCURVE",
"575 152 OFFCURVE",
"556 152 CURVE SMOOTH",
"492 152 LINE"
);
}
);
width = 1245;
}
);
unicode = 00C6;
},
{
color = 6;
glyphname = B;
lastChange = "2015-05-08 17:26:04 +0000";
layers = (
{
layerId = "E9E6D55E-9446-45F2-B66C-3272698B0216";
name = "Light Condensed";
paths = (
{
closed = 1;
nodes = (
"297 335 LINE",
"355 362 OFFCURVE",
"383 414 OFFCURVE",
"383 480 CURVE SMOOTH",
"383 567 OFFCURVE",
"334 630 OFFCURVE",
"201 630 CURVE SMOOTH",
"13 630 LINE",
"13 600 LINE",
"39 600 LINE SMOOTH",
"70 600 OFFCURVE",
"85 587 OFFCURVE",
"85 558 CURVE SMOOTH",
"85 70 LINE SMOOTH",
"85 43 OFFCURVE",
"70 29 OFFCURVE",
"40 29 CURVE SMOOTH",
"13 29 LINE",
"13 -1 LINE",
"211 -1 LINE SMOOTH",
"335 -1 OFFCURVE",
"403 62 OFFCURVE",
"403 168 CURVE SMOOTH",
"403 246 OFFCURVE",
"366 304 OFFCURVE",
"297 330 CURVE"
);
},
{
closed = 1;
nodes = (
"301 595 OFFCURVE",
"338 548 OFFCURVE",
"338 468 CURVE SMOOTH",
"338 395 OFFCURVE",
"307 348 OFFCURVE",
"192 348 CURVE SMOOTH",
"126 348 LINE",
"126 595 LINE",
"202 595 LINE SMOOTH"
);
},
{
closed = 1;
nodes = (
"126 34 LINE",
"126 313 LINE",
"202 313 LINE SMOOTH",
"308 313 OFFCURVE",
"358 266 OFFCURVE",
"358 172 CURVE SMOOTH",
"358 81 OFFCURVE",
"310 34 OFFCURVE",
"212 34 CURVE SMOOTH"
);
}
);
width = 428;
},
{
background = {
paths = (
{
closed = 1;
nodes = (
"355 324 LINE",
"439 342 OFFCURVE",
"471 402 OFFCURVE",
"471 475 CURVE SMOOTH",
"471 568 OFFCURVE",
"418 630 OFFCURVE",
"249 630 CURVE SMOOTH",
"15 630 LINE",
"15 540 LINE",
"51 540 LINE SMOOTH",
"70 540 OFFCURVE",
"77 528 OFFCURVE",
"77 508 CURVE SMOOTH",
"77 120 LINE SMOOTH",
"77 98 OFFCURVE",
"67 89 OFFCURVE",
"53 89 CURVE SMOOTH",
"15 89 LINE",
"15 -1 LINE",
"289 -1 LINE SMOOTH",
"413 -1 OFFCURVE",
"481 61 OFFCURVE",
"481 169 CURVE SMOOTH",
"481 271 OFFCURVE",
"420 309 OFFCURVE",
"355 320 CURVE"
);
},
{
closed = 1;
nodes = (
"308 541 OFFCURVE",
"331 522 OFFCURVE",
"331 464 CURVE SMOOTH",
"331 405 OFFCURVE",
"308 378 OFFCURVE",
"250 378 CURVE SMOOTH",
"215 378 LINE",
"215 541 LINE",
"250 541 LINE SMOOTH"
);
},
{
closed = 1;
nodes = (
"215 89 LINE",
"215 278 LINE",
"250 278 LINE SMOOTH",
"313 278 OFFCURVE",
"337 251 OFFCURVE",
"337 181 CURVE SMOOTH",
"337 123 OFFCURVE",
"320 89 OFFCURVE",
"250 89 CURVE SMOOTH"
);
}
);
};
layerId = "B25F85BC-C782-4067-8484-07202F80B8CD";
name = Condensed;
paths = (
{
closed = 1;
nodes = (
"345 324 LINE",
"429 342 OFFCURVE",
"461 402 OFFCURVE",
"461 475 CURVE SMOOTH",
"461 568 OFFCURVE",
"408 630 OFFCURVE",
"239 630 CURVE SMOOTH",
"15 630 LINE",
"15 540 LINE",
"51 540 LINE SMOOTH",
"70 540 OFFCURVE",
"77 528 OFFCURVE",
"77 508 CURVE SMOOTH",
"77 120 LINE SMOOTH",
"77 98 OFFCURVE",
"67 89 OFFCURVE",
"53 89 CURVE SMOOTH",
"15 89 LINE",
"15 -1 LINE",
"279 -1 LINE SMOOTH",
"403 -1 OFFCURVE",
"471 61 OFFCURVE",
"471 169 CURVE SMOOTH",
"471 271 OFFCURVE",
"410 309 OFFCURVE",
"345 320 CURVE"
);
},
{
closed = 1;
nodes = (
"298 541 OFFCURVE",
"321 522 OFFCURVE",
"321 464 CURVE SMOOTH",
"321 405 OFFCURVE",
"298 378 OFFCURVE",
"240 378 CURVE SMOOTH",
"215 378 LINE",
"215 541 LINE",
"240 541 LINE SMOOTH"
);
},
{
closed = 1;
nodes = (
"215 89 LINE",
"215 278 LINE",
"240 278 LINE SMOOTH",
"303 278 OFFCURVE",
"327 251 OFFCURVE",
"327 181 CURVE SMOOTH",
"327 123 OFFCURVE",
"310 89 OFFCURVE",
"240 89 CURVE SMOOTH"
);
}
);
width = 496;
},
{
background = {
paths = (
{
closed = 1;
nodes = (
"335 324 LINE",
"412 339 OFFCURVE",
"448 386 OFFCURVE",
"448 470 CURVE SMOOTH",
"448 583 OFFCURVE",
"383 630 OFFCURVE",
"229 630 CURVE SMOOTH",
"7 630 LINE",
"7 522 LINE",
"25 522 LINE SMOOTH",
"43 522 OFFCURVE",
"51 512 OFFCURVE",
"51 490 CURVE SMOOTH",
"51 138 LINE SMOOTH",
"51 118 OFFCURVE",
"42 107 OFFCURVE",
"26 107 CURVE SMOOTH",
"7 107 LINE",
"7 -1 LINE",
"269 -1 LINE SMOOTH",
"389 -1 OFFCURVE",
"458 61 OFFCURVE",
"458 168 CURVE SMOOTH",
"458 252 OFFCURVE",
"415 306 OFFCURVE",
"335 320 CURVE"
);
},
{
closed = 1;
nodes = (
"265 523 OFFCURVE",
"278 503 OFFCURVE",
"278 452 CURVE SMOOTH",
"278 397 OFFCURVE",
"263 372 OFFCURVE",
"230 372 CURVE SMOOTH",
"215 372 LINE",
"215 523 LINE",
"230 523 LINE SMOOTH"
);
},
{
closed = 1;
nodes = (
"215 107 LINE",
"215 264 LINE",
"235 264 LINE SMOOTH",
"264 264 OFFCURVE",
"277 239 OFFCURVE",
"277 186 CURVE SMOOTH",
"277 132 OFFCURVE",
"264 107 OFFCURVE",
"235 107 CURVE SMOOTH"
);
}
);
};
layerId = "B817C739-5D48-43E8-AAEE-CE891513D7BC";
name = "Bold Condensed";
paths = (
{
closed = 1;
nodes = (
"330 324 LINE",
"407 339 OFFCURVE",
"443 386 OFFCURVE",
"443 470 CURVE SMOOTH",
"443 583 OFFCURVE",
"378 630 OFFCURVE",
"229 630 CURVE SMOOTH",
"7 630 LINE",
"7 522 LINE",
"25 522 LINE SMOOTH",
"43 522 OFFCURVE",
"51 512 OFFCURVE",
"51 490 CURVE SMOOTH",
"51 138 LINE SMOOTH",
"51 118 OFFCURVE",
"42 107 OFFCURVE",
"26 107 CURVE SMOOTH",
"7 107 LINE",
"7 -1 LINE",
"264 -1 LINE SMOOTH",
"389 -1 OFFCURVE",
"453 61 OFFCURVE",
"453 168 CURVE SMOOTH",
"453 252 OFFCURVE",
"410 306 OFFCURVE",
"330 320 CURVE"
);
},
{
closed = 1;
nodes = (
"260 523 OFFCURVE",
"273 503 OFFCURVE",
"273 452 CURVE SMOOTH",
"273 397 OFFCURVE",
"258 372 OFFCURVE",
"230 372 CURVE SMOOTH",
"215 372 LINE",
"215 523 LINE",
"230 523 LINE SMOOTH"
);
},
{
closed = 1;
nodes = (
"215 107 LINE",
"215 264 LINE",
"235 264 LINE SMOOTH",
"259 264 OFFCURVE",
"272 239 OFFCURVE",
"272 186 CURVE SMOOTH",
"272 132 OFFCURVE",
"259 107 OFFCURVE",
"235 107 CURVE SMOOTH"
);
}
);
width = 463;
},
{
layerId = UUID0;
name = "Light Extended";
paths = (
{
closed = 1;
nodes = (
"533 333 LINE",
"593 358 OFFCURVE",
"628 405 OFFCURVE",
"628 476 CURVE SMOOTH",
"628 576 OFFCURVE",
"559 631 OFFCURVE",
"416 631 CURVE SMOOTH",
"20 631 LINE",
"20 595 LINE",
"99 595 LINE SMOOTH",
"122 595 OFFCURVE",
"130 587 OFFCURVE",
"130 563 CURVE SMOOTH",
"130 65 LINE SMOOTH",
"130 47 OFFCURVE",
"121 36 OFFCURVE",
"104 36 CURVE SMOOTH",
"21 36 LINE",
"21 0 LINE",
"426 0 LINE SMOOTH",
"577 0 OFFCURVE",
"648 59 OFFCURVE",
"648 170 CURVE SMOOTH",
"648 254 OFFCURVE",
"607 311 OFFCURVE",
"533 331 CURVE"
);
},
{
closed = 1;
nodes = (
"532 590 OFFCURVE",
"583 551 OFFCURVE",
"583 471 CURVE SMOOTH",
"583 388 OFFCURVE",
"530 349 OFFCURVE",
"407 349 CURVE SMOOTH",
"178 349 LINE",
"178 590 LINE",
"417 590 LINE SMOOTH"
);
},
{
closed = 1;
nodes = (
"178 41 LINE",
"178 312 LINE",
"417 312 LINE SMOOTH",
"543 312 OFFCURVE",
"599 266 OFFCURVE",
"599 171 CURVE SMOOTH",
"599 82 OFFCURVE",
"549 41 OFFCURVE",
"427 41 CURVE SMOOTH"
);
}
);
width = 698;
},
{
background = {
paths = (
{
closed = 1;
nodes = (
"626 324 LINE",
"702 340 OFFCURVE",
"742 392 OFFCURVE",
"742 470 CURVE SMOOTH",
"742 579 OFFCURVE",
"673 633 OFFCURVE",
"530 633 CURVE SMOOTH",
"22 633 LINE",
"22 543 LINE",
"98 543 LINE SMOOTH",
"116 543 OFFCURVE",
"124 533 OFFCURVE",
"124 511 CURVE SMOOTH",
"124 120 LINE SMOOTH",
"124 100 OFFCURVE",
"116 89 OFFCURVE",
"100 89 CURVE SMOOTH",
"22 89 LINE",
"22 -1 LINE",
"550 -1 LINE SMOOTH",
"672 -1 OFFCURVE",
"752 70 OFFCURVE",
"752 167 CURVE SMOOTH",
"752 242 OFFCURVE",
"701 307 OFFCURVE",
"626 320 CURVE"
);
},
{
closed = 1;
nodes = (
"567 544 OFFCURVE",
"602 515 OFFCURVE",
"602 463 CURVE SMOOTH",
"602 411 OFFCURVE",
"561 378 OFFCURVE",
"487 378 CURVE SMOOTH",
"262 378 LINE",
"262 544 LINE",
"497 544 LINE SMOOTH"
);
},
{
closed = 1;
nodes = (
"262 89 LINE",
"262 278 LINE",
"487 278 LINE SMOOTH",
"573 278 OFFCURVE",
"608 247 OFFCURVE",
"608 182 CURVE SMOOTH",
"608 116 OFFCURVE",
"571 89 OFFCURVE",
"467 89 CURVE SMOOTH"
);
}
);
};
hints = (
{
place = "{363.921, 0}";
type = Stem;
}
);
layerId = "4355E1B8-19E6-44BD-A1D7-6E3C2DECA4C8";
name = Extended;
paths = (
{
closed = 1;
nodes = (
"596 324 LINE",
"672 340 OFFCURVE",
"712 392 OFFCURVE",
"712 470 CURVE SMOOTH",
"712 579 OFFCURVE",
"643 633 OFFCURVE",
"500 633 CURVE SMOOTH",
"22 633 LINE",
"22 543 LINE",
"98 543 LINE SMOOTH",
"116 543 OFFCURVE",
"124 533 OFFCURVE",
"124 511 CURVE SMOOTH",
"124 120 LINE SMOOTH",
"124 100 OFFCURVE",
"116 89 OFFCURVE",
"100 89 CURVE SMOOTH",
"22 89 LINE",
"22 -1 LINE",
"520 -1 LINE SMOOTH",
"642 -1 OFFCURVE",
"722 70 OFFCURVE",
"722 167 CURVE SMOOTH",
"722 242 OFFCURVE",
"671 307 OFFCURVE",
"596 320 CURVE"
);
},
{
closed = 1;
nodes = (
"537 544 OFFCURVE",
"572 515 OFFCURVE",
"572 463 CURVE SMOOTH",
"572 411 OFFCURVE",
"531 378 OFFCURVE",
"457 378 CURVE SMOOTH",
"262 378 LINE",
"262 544 LINE",
"467 544 LINE SMOOTH"
);
},
{
closed = 1;
nodes = (
"262 89 LINE",
"262 278 LINE",
"457 278 LINE SMOOTH",
"543 278 OFFCURVE",
"578 247 OFFCURVE",
"578 182 CURVE SMOOTH",
"578 116 OFFCURVE",
"541 89 OFFCURVE",
"437 89 CURVE SMOOTH"
);
}
);
width = 767;
},
{
background = {
paths = (
{
closed = 1;
nodes = (
"661 331 LINE",
"736 359 OFFCURVE",
"758 420 OFFCURVE",
"758 487 CURVE SMOOTH",
"758 579 OFFCURVE",
"694 631 OFFCURVE",
"568 631 CURVE SMOOTH",
"17 631 LINE",
"17 479 LINE",
"80 479 LINE SMOOTH",
"98 479 OFFCURVE",
"106 469 OFFCURVE",
"106 447 CURVE SMOOTH",
"106 183 LINE SMOOTH",
"106 163 OFFCURVE",
"97 152 OFFCURVE",
"81 152 CURVE SMOOTH",
"17 152 LINE",
"17 0 LINE",
"578 0 LINE SMOOTH",
"703 0 OFFCURVE",
"781 72 OFFCURVE",
"781 173 CURVE SMOOTH",
"781 248 OFFCURVE",
"737 300 OFFCURVE",
"661 327 CURVE"
);
},
{
closed = 1;
nodes = (
"511 480 OFFCURVE",
"527 464 OFFCURVE",
"527 432 CURVE SMOOTH",
"527 399 OFFCURVE",
"510 383 OFFCURVE",
"475 383 CURVE SMOOTH",
"356 383 LINE",
"356 480 LINE",
"479 480 LINE SMOOTH"
);
},
{
closed = 1;
nodes = (
"356 152 LINE",
"356 245 LINE",
"484 245 LINE SMOOTH",
"512 245 OFFCURVE",
"526 226 OFFCURVE",
"526 199 CURVE SMOOTH",
"526 172 OFFCURVE",
"512 152 OFFCURVE",
"484 152 CURVE SMOOTH"
);
}
);
};
layerId = "14C77FDB-037D-4842-9381-6D9ED15DD48C";
name = "Bold Extended";
paths = (
{
closed = 1;
nodes = (
"631 331 LINE",
"706 359 OFFCURVE",
"728 420 OFFCURVE",
"728 487 CURVE SMOOTH",
"728 579 OFFCURVE",
"664 631 OFFCURVE",
"538 631 CURVE SMOOTH",
"17 631 LINE",
"17 479 LINE",
"80 479 LINE SMOOTH",
"98 479 OFFCURVE",
"106 469 OFFCURVE",
"106 447 CURVE SMOOTH",
"106 183 LINE SMOOTH",
"106 163 OFFCURVE",
"97 152 OFFCURVE",
"81 152 CURVE SMOOTH",
"17 152 LINE",
"17 0 LINE",
"548 0 LINE SMOOTH",
"673 0 OFFCURVE",
"751 72 OFFCURVE",
"751 173 CURVE SMOOTH",
"751 248 OFFCURVE",
"707 300 OFFCURVE",
"631 327 CURVE"
);
},
{
closed = 1;
nodes = (
"481 480 OFFCURVE",
"497 464 OFFCURVE",
"497 432 CURVE SMOOTH",
"497 399 OFFCURVE",
"480 383 OFFCURVE",
"445 383 CURVE SMOOTH",
"356 383 LINE",
"356 480 LINE",
"449 480 LINE SMOOTH"
);
},
{
closed = 1;
nodes = (
"356 152 LINE",
"356 245 LINE",
"454 245 LINE SMOOTH",
"482 245 OFFCURVE",
"496 226 OFFCURVE",
"496 199 CURVE SMOOTH",
"496 172 OFFCURVE",
"482 152 OFFCURVE",
"454 152 CURVE SMOOTH"
);
}
);
width = 786;
}
);
leftMetricsKey = H;
unicode = 0042;
},
{
color = 6;
glyphname = C;
lastChange = "2015-05-08 17:26:04 +0000";
layers = (
{
background = {
paths = (
{
closed = 1;
nodes = (
"120 28 OFFCURVE",
"76 104 OFFCURVE",
"76 314 CURVE SMOOTH",
"76 522 OFFCURVE",
"120 597 OFFCURVE",
"225 597 CURVE SMOOTH",
"299 597 OFFCURVE",
"350 560 OFFCURVE",
"350 401 CURVE",
"381 401 LINE",
"381 630 LINE",
"360 630 LINE",
"354 571 LINE",
"350 571 LINE",
"322 614 OFFCURVE",
"288 634 OFFCURVE",
"225 634 CURVE SMOOTH",
"87 634 OFFCURVE",
"30 537 OFFCURVE",
"30 313 CURVE SMOOTH",
"30 92 OFFCURVE",
"85 -10 OFFCURVE",
"218 -10 CURVE SMOOTH",
"330 -10 OFFCURVE",
"385 62 OFFCURVE",
"385 232 CURVE",
"350 232 LINE",
"350 68 OFFCURVE",
"296 28 OFFCURVE",
"222 28 CURVE SMOOTH"
);
}
);
};
layerId = "E9E6D55E-9446-45F2-B66C-3272698B0216";
name = "Light Condensed";
paths = (
{
closed = 1;
nodes = (
"120 28 OFFCURVE",
"76 104 OFFCURVE",
"76 314 CURVE SMOOTH",
"76 522 OFFCURVE",
"120 597 OFFCURVE",
"218 597 CURVE SMOOTH",
"285 597 OFFCURVE",
"336 560 OFFCURVE",
"336 401 CURVE",
"367 401 LINE",
"367 630 LINE",
"346 630 LINE",
"340 571 LINE",
"336 571 LINE",
"308 614 OFFCURVE",
"274 634 OFFCURVE",
"218 634 CURVE SMOOTH",
"87 634 OFFCURVE",
"30 537 OFFCURVE",
"30 313 CURVE SMOOTH",
"30 92 OFFCURVE",
"85 -10 OFFCURVE",
"211 -10 CURVE SMOOTH",
"316 -10 OFFCURVE",
"371 62 OFFCURVE",
"371 232 CURVE",
"336 232 LINE",
"336 68 OFFCURVE",
"282 28 OFFCURVE",
"215 28 CURVE SMOOTH"
);
}
);
width = 401;
},
{
background = {
paths = (
{
closed = 1;
nodes = (
"214 93 OFFCURVE",
"187 137 OFFCURVE",
"187 312 CURVE SMOOTH",
"187 472 OFFCURVE",
"210 536 OFFCURVE",
"265 536 CURVE SMOOTH",
"317 536 OFFCURVE",
"326 477 OFFCURVE",
"326 384 CURVE",
"427 384 LINE",
"427 630 LINE",
"345 630 LINE",
"333 574 LINE",
"329 574 LINE",
"310 615 OFFCURVE",
"272 640 OFFCURVE",
"212 640 CURVE SMOOTH",
"102 640 OFFCURVE",
"35 556 OFFCURVE",
"35 321 CURVE SMOOTH",
"35 84 OFFCURVE",
"102 -10 OFFCURVE",
"243 -10 CURVE SMOOTH",
"382 -10 OFFCURVE",
"427 81 OFFCURVE",
"427 272 CURVE",
"328 272 LINE",
"328 124 OFFCURVE",
"302 93 OFFCURVE",
"262 93 CURVE SMOOTH"
);
}
);
};
layerId = "B25F85BC-C782-4067-8484-07202F80B8CD";
name = Condensed;
paths = (
{
closed = 1;
nodes = (
"214 93 OFFCURVE",
"187 135 OFFCURVE",
"187 312 CURVE SMOOTH",
"187 474 OFFCURVE",
"210 536 OFFCURVE",
"265 536 CURVE SMOOTH",
"319 536 OFFCURVE",
"328 475 OFFCURVE",
"328 384 CURVE",
"442 384 LINE",
"442 630 LINE",
"355 630 LINE",
"343 574 LINE",
"339 574 LINE",
"321 613 OFFCURVE",
"284 640 OFFCURVE",
"218 640 CURVE SMOOTH",
"102 640 OFFCURVE",
"35 557 OFFCURVE",
"35 321 CURVE SMOOTH",
"35 84 OFFCURVE",
"102 -10 OFFCURVE",
"248 -10 CURVE SMOOTH",
"397 -10 OFFCURVE",
"442 81 OFFCURVE",
"442 272 CURVE",
"330 272 LINE",
"325 130 OFFCURVE",
"306 93 OFFCURVE",
"261 93 CURVE SMOOTH"
);
}
);
width = 477;
},
{
layerId = "B817C739-5D48-43E8-AAEE-CE891513D7BC";
name = "Bold Condensed";
paths = (
{
closed = 1;
nodes = (
"219 128 OFFCURVE",
"214 148 OFFCURVE",
"214 294 CURVE SMOOTH",
"214 482 OFFCURVE",
"222 502 OFFCURVE",
"246 502 CURVE SMOOTH",
"268 502 OFFCURVE",
"277 486 OFFCURVE",
"277 354 CURVE",
"428 354 LINE",
"428 630 LINE",
"307 630 LINE",
"301 588 LINE",
"297 588 LINE",
"284 621 OFFCURVE",
"251 640 OFFCURVE",
"193 640 CURVE SMOOTH",
"77 640 OFFCURVE",
"16 558 OFFCURVE",
"16 327 CURVE SMOOTH",
"16 85 OFFCURVE",
"82 -10 OFFCURVE",
"231 -10 CURVE SMOOTH",
"373 -10 OFFCURVE",
"428 77 OFFCURVE",
"428 292 CURVE",
"277 292 LINE",
"277 154 OFFCURVE",
"272 128 OFFCURVE",
"244 128 CURVE SMOOTH"
);
}
);
width = 448;
},
{
background = {
paths = (
{
closed = 0;
nodes = (
"626 441 LINE",
"656 441 LINE",
"656 665 LINE",
"628 665 LINE",
"622 609 LINE",
"618 609 LINE"
);
}
);
};
guideLines = (
{
position = "{541, 240}";
}
);
layerId = UUID0;
name = "Light Extended";
paths = (
{
closed = 1;
nodes = (
"212 31 OFFCURVE",
"124 135 OFFCURVE",
"124 315 CURVE SMOOTH",
"124 497 OFFCURVE",
"213 601 OFFCURVE",
"390 601 CURVE SMOOTH",
"517 601 OFFCURVE",
"597 547 OFFCURVE",
"624 408 CURVE",
"656 408 LINE",
"656 630 LINE",
"628 630 LINE",
"616 534 LINE",
"612 534 LINE",
"575 596 OFFCURVE",
"504 642 OFFCURVE",
"384 642 CURVE SMOOTH",
"189 642 OFFCURVE",
"75 521 OFFCURVE",
"75 315 CURVE SMOOTH",
"75 112 OFFCURVE",
"186 -10 OFFCURVE",
"382 -10 CURVE SMOOTH",
"559 -10 OFFCURVE",
"666 89 OFFCURVE",
"666 242 CURVE",
"623 242 LINE",
"623 110 OFFCURVE",
"539 31 OFFCURVE",
"387 31 CURVE SMOOTH"
);
}
);
width = 731;
},
{
background = {
paths = (
{
closed = 1;
nodes = (
"293 93 OFFCURVE",
"203 142 OFFCURVE",
"203 314 CURVE SMOOTH",
"203 455 OFFCURVE",
"267 537 OFFCURVE",
"399 537 CURVE SMOOTH",
"503 537 OFFCURVE",
"566 487 OFFCURVE",
"576 384 CURVE",
"679 384 LINE",
"679 630 LINE",
"576 630 LINE",
"565 573 LINE",
"561 573 LINE",
"527 615 OFFCURVE",
"474 640 OFFCURVE",
"386 640 CURVE SMOOTH",
"186 640 OFFCURVE",
"55 509 OFFCURVE",
"55 312 CURVE SMOOTH",
"55 124 OFFCURVE",
"173 -10 OFFCURVE",
"387 -10 CURVE SMOOTH",
"596 -10 OFFCURVE",
"685 119 OFFCURVE",
"685 272 CURVE",
"582 272 LINE",
"582 150 OFFCURVE",
"516 93 OFFCURVE",
"400 93 CURVE SMOOTH"
);
}
);
};
layerId = "4355E1B8-19E6-44BD-A1D7-6E3C2DECA4C8";
name = Extended;
paths = (
{
closed = 1;
nodes = (
"270 93 OFFCURVE",
"203 167 OFFCURVE",
"203 313 CURVE SMOOTH",
"203 459 OFFCURVE",
"271 537 OFFCURVE",
"399 537 CURVE SMOOTH",
"505 537 OFFCURVE",
"566 484 OFFCURVE",
"576 384 CURVE",
"689 384 LINE",
"689 630 LINE",
"586 630 LINE",
"575 573 LINE",
"571 573 LINE",
"536 618 OFFCURVE",
"476 640 OFFCURVE",
"391 640 CURVE SMOOTH",
"186 640 OFFCURVE",
"55 511 OFFCURVE",
"55 311 CURVE SMOOTH",
"55 113 OFFCURVE",
"183 -10 OFFCURVE",
"389 -10 CURVE SMOOTH",
"579 -10 OFFCURVE",
"695 96 OFFCURVE",
"695 272 CURVE",
"582 272 LINE",
"582 155 OFFCURVE",
"520 93 OFFCURVE",
"401 93 CURVE SMOOTH"
);
}
);
width = 745;
},
{
layerId = "14C77FDB-037D-4842-9381-6D9ED15DD48C";
name = "Bold Extended";
paths = (
{
closed = 1;
nodes = (
"331 175 OFFCURVE",
"300 216 OFFCURVE",
"300 313 CURVE SMOOTH",
"300 402 OFFCURVE",
"327 455 OFFCURVE",
"404 455 CURVE SMOOTH",
"468 455 OFFCURVE",
"500 419 OFFCURVE",
"500 346 CURVE",
"710 346 LINE",
"710 630 LINE",
"527 630 LINE",
"515 589 LINE",
"511 589 LINE",
"488 617 OFFCURVE",
"441 640 OFFCURVE",
"352 640 CURVE SMOOTH",
"147 640 OFFCURVE",
"17 518 OFFCURVE",
"17 317 CURVE SMOOTH",
"17 123 OFFCURVE",
"138 -10 OFFCURVE",
"378 -10 CURVE SMOOTH",
"632 -10 OFFCURVE",
"716 139 OFFCURVE",
"716 302 CURVE",
"503 302 LINE",
"503 216 OFFCURVE",
"473 175 OFFCURVE",
"402 175 CURVE SMOOTH"
);
}
);
width = 731;
}
);
leftMetricsKey = O;
unicode = 0043;
},
{
color = 6;
glyphname = D;
lastChange = "2015-05-08 17:26:04 +0000";
layers = (
{
layerId = "E9E6D55E-9446-45F2-B66C-3272698B0216";
name = "Light Condensed";
paths = (
{
closed = 1;
nodes = (
"13 0 LINE",
"224 0 LINE SMOOTH",
"336 0 OFFCURVE",
"432 94 OFFCURVE",
"432 319 CURVE SMOOTH",
"432 539 OFFCURVE",
"339 630 OFFCURVE",
"214 630 CURVE SMOOTH",
"13 630 LINE",
"13 600 LINE",
"47 600 LINE SMOOTH",
"74 600 OFFCURVE",
"85 577 OFFCURVE",
"85 538 CURVE SMOOTH",
"85 91 LINE SMOOTH",
"85 53 OFFCURVE",
"73 30 OFFCURVE",
"47 30 CURVE SMOOTH",
"13 30 LINE"
);
},
{
closed = 1;
nodes = (
"127 598 LINE",
"214 598 LINE SMOOTH",
"326 598 OFFCURVE",
"387 489 OFFCURVE",
"387 316 CURVE SMOOTH",
"387 136 OFFCURVE",
"321 32 OFFCURVE",
"225 32 CURVE SMOOTH",
"127 32 LINE"
);
}
);
width = 452;
},
{
background = {
paths = (
{
closed = 1;
nodes = (
"15 0 LINE",
"277 0 LINE SMOOTH",
"434 0 OFFCURVE",
"518 120 OFFCURVE",
"518 315 CURVE SMOOTH",
"518 509 OFFCURVE",
"434 630 OFFCURVE",
"278 630 CURVE SMOOTH",
"15 630 LINE",
"15 540 LINE",
"50 540 LINE SMOOTH",
"71 540 OFFCURVE",
"77 527 OFFCURVE",
"77 508 CURVE SMOOTH",
"77 122 LINE SMOOTH",
"77 103 OFFCURVE",
"71 90 OFFCURVE",
"50 90 CURVE SMOOTH",
"15 90 LINE"
);
},
{
closed = 1;
nodes = (
"215 540 LINE",
"281 540 LINE SMOOTH",
"340 540 OFFCURVE",
"369 490 OFFCURVE",
"369 310 CURVE SMOOTH",
"369 137 OFFCURVE",
"343 90 OFFCURVE",
"282 90 CURVE SMOOTH",
"215 90 LINE"
);
}
);
};
layerId = "B25F85BC-C782-4067-8484-07202F80B8CD";
name = Condensed;
paths = (
{
closed = 1;
nodes = (
"15 0 LINE",
"265 0 LINE SMOOTH",
"432 0 OFFCURVE",
"506 120 OFFCURVE",
"506 315 CURVE SMOOTH",
"506 509 OFFCURVE",
"422 630 OFFCURVE",
"266 630 CURVE SMOOTH",
"15 630 LINE",
"15 540 LINE",
"50 540 LINE SMOOTH",
"71 540 OFFCURVE",
"77 527 OFFCURVE",
"77 508 CURVE SMOOTH",
"77 122 LINE SMOOTH",
"77 103 OFFCURVE",
"71 90 OFFCURVE",
"50 90 CURVE SMOOTH",
"15 90 LINE"
);
},
{
closed = 1;
nodes = (
"215 540 LINE",
"269 540 LINE SMOOTH",
"338 540 OFFCURVE",
"357 490 OFFCURVE",
"357 310 CURVE SMOOTH",
"357 137 OFFCURVE",
"331 90 OFFCURVE",
"270 90 CURVE SMOOTH",
"215 90 LINE"
);
}
);
width = 536;
},
{
background = {
paths = (
{
closed = 1;
nodes = (
"7 0 LINE",
"244 0 LINE SMOOTH",
"378 0 OFFCURVE",
"485 94 OFFCURVE",
"485 320 CURVE SMOOTH",
"485 539 OFFCURVE",
"383 630 OFFCURVE",
"234 630 CURVE SMOOTH",
"7 630 LINE",
"7 522 LINE",
"24 522 LINE SMOOTH",
"44 522 OFFCURVE",
"51 511 OFFCURVE",
"51 490 CURVE SMOOTH",
"51 139 LINE SMOOTH",
"51 119 OFFCURVE",
"43 108 OFFCURVE",
"24 108 CURVE SMOOTH",
"7 108 LINE"
);
},
{
closed = 1;
nodes = (
"231 517 LINE",
"256 517 LINE SMOOTH",
"285 517 OFFCURVE",
"294 493 OFFCURVE",
"294 322 CURVE SMOOTH",
"294 131 OFFCURVE",
"283 113 OFFCURVE",
"257 113 CURVE SMOOTH",
"231 113 LINE"
);
}
);
};
layerId = "B817C739-5D48-43E8-AAEE-CE891513D7BC";
name = "Bold Condensed";
paths = (
{
closed = 1;
nodes = (
"7 0 LINE",
"284 0 LINE SMOOTH",
"398 0 OFFCURVE",
"485 94 OFFCURVE",
"485 320 CURVE SMOOTH",
"485 539 OFFCURVE",
"403 630 OFFCURVE",
"274 630 CURVE SMOOTH",
"7 630 LINE",
"7 522 LINE",
"24 522 LINE SMOOTH",
"44 522 OFFCURVE",
"51 511 OFFCURVE",
"51 490 CURVE SMOOTH",
"51 139 LINE SMOOTH",
"51 119 OFFCURVE",
"43 108 OFFCURVE",
"24 108 CURVE SMOOTH",
"7 108 LINE"
);
},
{
closed = 1;
nodes = (
"231 517 LINE",
"256 517 LINE SMOOTH",
"285 517 OFFCURVE",
"294 493 OFFCURVE",
"294 322 CURVE SMOOTH",
"294 131 OFFCURVE",
"283 113 OFFCURVE",
"257 113 CURVE SMOOTH",
"231 113 LINE"
);
}
);
width = 499;
},
{
background = {
paths = (
{
closed = 1;
nodes = (
"31 0 LINE",
"377 0 LINE SMOOTH",
"583 0 OFFCURVE",
"711 97 OFFCURVE",
"711 312 CURVE SMOOTH",
"711 529 OFFCURVE",
"581 630 OFFCURVE",
"378 630 CURVE SMOOTH",
"30 630 LINE",
"30 594 LINE",
"103 594 LINE SMOOTH",
"124 594 OFFCURVE",
"130 581 OFFCURVE",
"130 562 CURVE SMOOTH",
"130 68 LINE SMOOTH",
"130 49 OFFCURVE",
"124 36 OFFCURVE",
"103 36 CURVE SMOOTH",
"31 36 LINE"
);
},
{
closed = 1;
nodes = (
"178 594 LINE",
"378 594 LINE SMOOTH",
"551 594 OFFCURVE",
"662 526 OFFCURVE",
"662 315 CURVE SMOOTH",
"662 99 OFFCURVE",
"545 36 OFFCURVE",
"377 36 CURVE SMOOTH",
"178 36 LINE"
);
}
);
};
layerId = UUID0;
name = "Light Extended";
paths = (
{
closed = 1;
nodes = (
"21 0 LINE",
"362 0 LINE SMOOTH",
"568 0 OFFCURVE",
"696 97 OFFCURVE",
"696 312 CURVE SMOOTH",
"696 529 OFFCURVE",
"566 630 OFFCURVE",
"363 630 CURVE SMOOTH",
"20 630 LINE",
"20 594 LINE",
"103 594 LINE SMOOTH",
"124 594 OFFCURVE",
"130 581 OFFCURVE",
"130 562 CURVE SMOOTH",
"130 68 LINE SMOOTH",
"130 49 OFFCURVE",
"124 36 OFFCURVE",
"103 36 CURVE SMOOTH",
"21 36 LINE"
);
},
{
closed = 1;
nodes = (
"178 594 LINE",
"363 594 LINE SMOOTH",
"536 594 OFFCURVE",
"647 526 OFFCURVE",
"647 315 CURVE SMOOTH",
"647 99 OFFCURVE",
"530 36 OFFCURVE",
"362 36 CURVE SMOOTH",
"178 36 LINE"
);
}
);
width = 771;
},
{
background = {
paths = (
{
closed = 1;
nodes = (
"22 0 LINE",
"419 0 LINE SMOOTH",
"642 0 OFFCURVE",
"770 120 OFFCURVE",
"770 314 CURVE SMOOTH",
"770 509 OFFCURVE",
"642 630 OFFCURVE",
"420 630 CURVE SMOOTH",
"22 630 LINE",
"22 540 LINE",
"97 540 LINE SMOOTH",
"118 540 OFFCURVE",
"124 527 OFFCURVE",
"124 508 CURVE SMOOTH",
"124 122 LINE SMOOTH",
"124 103 OFFCURVE",
"118 90 OFFCURVE",
"97 90 CURVE SMOOTH",
"22 90 LINE"
);
},
{
closed = 1;
nodes = (
"262 540 LINE",
"423 540 LINE SMOOTH",
"559 540 OFFCURVE",
"621 479 OFFCURVE",
"621 311 CURVE SMOOTH",
"621 146 OFFCURVE",
"562 90 OFFCURVE",
"424 90 CURVE SMOOTH",
"262 90 LINE"
);
}
);
};
layerId = "4355E1B8-19E6-44BD-A1D7-6E3C2DECA4C8";
name = Extended;
paths = (
{
closed = 1;
nodes = (
"22 0 LINE",
"464 0 LINE SMOOTH",
"647 0 OFFCURVE",
"755 120 OFFCURVE",
"755 314 CURVE SMOOTH",
"755 509 OFFCURVE",
"647 630 OFFCURVE",
"465 630 CURVE SMOOTH",
"22 630 LINE",
"22 540 LINE",
"97 540 LINE SMOOTH",
"118 540 OFFCURVE",
"124 527 OFFCURVE",
"124 508 CURVE SMOOTH",
"124 122 LINE SMOOTH",
"124 103 OFFCURVE",
"118 90 OFFCURVE",
"97 90 CURVE SMOOTH",
"22 90 LINE"
);
},
{
closed = 1;
nodes = (
"262 540 LINE",
"408 540 LINE SMOOTH",
"544 540 OFFCURVE",
"606 479 OFFCURVE",
"606 311 CURVE SMOOTH",
"606 146 OFFCURVE",
"547 90 OFFCURVE",
"409 90 CURVE SMOOTH",
"262 90 LINE"
);
}
);
width = 805;
},
{
background = {
paths = (
{
closed = 1;
nodes = (
"17 0 LINE",
"441 0 LINE SMOOTH",
"691 0 OFFCURVE",
"827 103 OFFCURVE",
"827 314 CURVE SMOOTH",
"827 527 OFFCURVE",
"689 630 OFFCURVE",
"442 630 CURVE SMOOTH",
"17 630 LINE",
"17 478 LINE",
"79 478 LINE SMOOTH",
"100 478 OFFCURVE",
"106 465 OFFCURVE",
"106 446 CURVE SMOOTH",
"106 184 LINE SMOOTH",
"106 165 OFFCURVE",
"100 152 OFFCURVE",
"79 152 CURVE SMOOTH",
"17 152 LINE"
);
},
{
closed = 1;
nodes = (
"356 466 LINE",
"442 466 LINE SMOOTH",
"511 466 OFFCURVE",
"544 427 OFFCURVE",
"544 309 CURVE SMOOTH",
"544 184 OFFCURVE",
"507 152 OFFCURVE",
"442 152 CURVE SMOOTH",
"356 152 LINE"
);
}
);
};
layerId = "14C77FDB-037D-4842-9381-6D9ED15DD48C";
name = "Bold Extended";
paths = (
{
closed = 1;
nodes = (
"17 0 LINE",
"441 0 LINE SMOOTH",
"681 0 OFFCURVE",
"797 103 OFFCURVE",
"797 314 CURVE SMOOTH",
"797 527 OFFCURVE",
"679 630 OFFCURVE",
"442 630 CURVE SMOOTH",
"17 630 LINE",
"17 478 LINE",
"79 478 LINE SMOOTH",
"100 478 OFFCURVE",
"106 465 OFFCURVE",
"106 446 CURVE SMOOTH",
"106 184 LINE SMOOTH",
"106 165 OFFCURVE",
"100 152 OFFCURVE",
"79 152 CURVE SMOOTH",
"17 152 LINE"
);
},
{
closed = 1;
nodes = (
"356 466 LINE",
"412 466 LINE SMOOTH",
"481 466 OFFCURVE",
"514 427 OFFCURVE",
"514 309 CURVE SMOOTH",
"514 184 OFFCURVE",
"477 152 OFFCURVE",
"412 152 CURVE SMOOTH",
"356 152 LINE"
);
}
);
width = 817;
}
);
leftMetricsKey = H;
unicode = 0044;
},
{
color = 6;
glyphname = E;
lastChange = "2015-05-08 17:26:04 +0000";
layers = (
{
background = {
paths = (
{
closed = 1;
nodes = (
"13 0 LINE",
"378 0 LINE",
"378 209 LINE",
"346 209 LINE",
"346 53 OFFCURVE",
"329 30 OFFCURVE",
"284 30 CURVE SMOOTH",
"128 30 LINE",
"128 303 LINE",
"201 303 LINE SMOOTH",
"238 303 OFFCURVE",
"242 284 OFFCURVE",
"244 180 CURVE",
"276 180 LINE",
"276 446 LINE",
"244 446 LINE",
"242 354 OFFCURVE",
"238 335 OFFCURVE",
"201 335 CURVE SMOOTH",
"128 335 LINE",
"128 600 LINE",
"284 600 LINE SMOOTH",
"327 600 OFFCURVE",
"346 577 OFFCURVE",
"346 438 CURVE",
"378 438 LINE",
"378 630 LINE",
"16 630 LINE",
"16 600 LINE",
"39 600 LINE SMOOTH",
"72 600 OFFCURVE",
"85 585 OFFCURVE",
"85 558 CURVE SMOOTH",
"85 71 LINE SMOOTH",
"85 45 OFFCURVE",
"71 30 OFFCURVE",
"40 30 CURVE SMOOTH",
"13 30 LINE"
);
}
);
};
layerId = "E9E6D55E-9446-45F2-B66C-3272698B0216";
name = "Light Condensed";
paths = (
{
closed = 1;
nodes = (
"13 0 LINE",
"373 0 LINE",
"373 209 LINE",
"341 209 LINE",
"341 53 OFFCURVE",
"324 30 OFFCURVE",
"279 30 CURVE SMOOTH",
"128 30 LINE",
"128 303 LINE",
"196 303 LINE SMOOTH",
"233 303 OFFCURVE",
"237 284 OFFCURVE",
"239 180 CURVE",
"271 180 LINE",
"271 446 LINE",
"239 446 LINE",
"237 354 OFFCURVE",
"233 335 OFFCURVE",
"196 335 CURVE SMOOTH",
"128 335 LINE",
"128 600 LINE",
"279 600 LINE SMOOTH",
"322 600 OFFCURVE",
"341 577 OFFCURVE",
"341 438 CURVE",
"373 438 LINE",
"373 630 LINE",
"16 630 LINE",
"16 600 LINE",
"39 600 LINE SMOOTH",
"72 600 OFFCURVE",
"85 585 OFFCURVE",
"85 558 CURVE SMOOTH",
"85 71 LINE SMOOTH",
"85 45 OFFCURVE",
"71 30 OFFCURVE",
"40 30 CURVE SMOOTH",
"13 30 LINE"
);
}
);
width = 423;
},
{
background = {
paths = (
{
closed = 1;
nodes = (
"15 0 LINE",
"493 0 LINE",
"493 272 LINE",
"374 272 LINE",
"374 112 OFFCURVE",
"361 90 OFFCURVE",
"314 90 CURVE SMOOTH",
"215 90 LINE",
"215 268 LINE",
"220 268 LINE SMOOTH",
"256 268 OFFCURVE",
"262 246 OFFCURVE",
"262 168 CURVE",
"333 168 LINE",
"333 448 LINE",
"262 448 LINE",
"262 366 OFFCURVE",
"257 350 OFFCURVE",
"220 350 CURVE SMOOTH",
"215 350 LINE",
"215 540 LINE",
"312 540 LINE SMOOTH",
"354 540 OFFCURVE",
"374 507 OFFCURVE",
"374 354 CURVE",
"493 354 LINE",
"493 630 LINE",
"15 630 LINE",
"15 540 LINE",
"51 540 LINE SMOOTH",
"71 540 OFFCURVE",
"77 529 OFFCURVE",
"77 504 CURVE SMOOTH",
"77 123 LINE SMOOTH",
"77 102 OFFCURVE",
"71 90 OFFCURVE",
"52 90 CURVE SMOOTH",
"15 90 LINE"
);
}
);
};
layerId = "B25F85BC-C782-4067-8484-07202F80B8CD";
name = Condensed;
paths = (
{
closed = 1;
nodes = (
"15 0 LINE",
"463 0 LINE",
"463 272 LINE",
"344 272 LINE",
"344 112 OFFCURVE",
"331 90 OFFCURVE",
"284 90 CURVE SMOOTH",
"215 90 LINE",
"215 268 LINE",
"220 268 LINE SMOOTH",
"241 268 OFFCURVE",
"247 246 OFFCURVE",
"247 178 CURVE",
"313 178 LINE",
"313 438 LINE",
"247 438 LINE",
"247 366 OFFCURVE",
"242 350 OFFCURVE",
"220 350 CURVE SMOOTH",
"215 350 LINE",
"215 540 LINE",
"282 540 LINE SMOOTH",
"344 540 OFFCURVE",
"344 507 OFFCURVE",
"344 354 CURVE",
"463 354 LINE",
"463 630 LINE",
"15 630 LINE",
"15 540 LINE",
"51 540 LINE SMOOTH",
"71 540 OFFCURVE",
"77 529 OFFCURVE",
"77 504 CURVE SMOOTH",
"77 123 LINE SMOOTH",
"77 102 OFFCURVE",
"71 90 OFFCURVE",
"52 90 CURVE SMOOTH",
"15 90 LINE"
);
}
);
width = 503;
},
{
background = {
paths = (
{
closed = 1;
nodes = (
"7 0 LINE",
"474 0 LINE",
"474 296 LINE",
"323 296 LINE",
"323 130 OFFCURVE",
"306 108 OFFCURVE",
"274 108 CURVE SMOOTH",
"231 108 LINE",
"231 304 LINE",
"234 304 LINE",
"245 304 OFFCURVE",
"248 297 OFFCURVE",
"248 211 CURVE",
"305 211 LINE",
"305 428 LINE",
"248 428 LINE",
"248 347 OFFCURVE",
"245 336 OFFCURVE",
"234 336 CURVE SMOOTH",
"231 336 LINE",
"231 522 LINE",
"271 522 LINE SMOOTH",
"306 522 OFFCURVE",
"323 499 OFFCURVE",
"323 342 CURVE",
"474 342 LINE",
"474 630 LINE",
"7 630 LINE",
"7 522 LINE",
"25 522 LINE SMOOTH",
"45 522 OFFCURVE",
"51 511 OFFCURVE",
"51 486 CURVE SMOOTH",
"51 141 LINE SMOOTH",
"51 120 OFFCURVE",
"44 108 OFFCURVE",
"26 108 CURVE SMOOTH",
"7 108 LINE"
);
}
);
};
layerId = "B817C739-5D48-43E8-AAEE-CE891513D7BC";
name = "Bold Condensed";
paths = (
{
closed = 1;
nodes = (
"7 0 LINE",
"459 0 LINE",
"459 296 LINE",
"313 296 LINE",
"313 130 OFFCURVE",
"301 108 OFFCURVE",
"274 108 CURVE SMOOTH",
"231 108 LINE",
"231 284 LINE",
"234 284 LINE",
"245 284 OFFCURVE",
"248 267 OFFCURVE",
"248 201 CURVE",
"295 201 LINE",
"295 438 LINE",
"248 438 LINE",
"248 377 OFFCURVE",
"245 356 OFFCURVE",
"234 356 CURVE SMOOTH",
"231 356 LINE",
"231 522 LINE",
"271 522 LINE SMOOTH",
"301 522 OFFCURVE",
"313 499 OFFCURVE",
"313 342 CURVE",
"459 342 LINE",
"459 630 LINE",
"7 630 LINE",
"7 522 LINE",
"25 522 LINE SMOOTH",
"45 522 OFFCURVE",
"51 511 OFFCURVE",
"51 486 CURVE SMOOTH",
"51 141 LINE SMOOTH",
"51 120 OFFCURVE",
"44 108 OFFCURVE",
"26 108 CURVE SMOOTH",
"7 108 LINE"
);
}
);
width = 479;
},
{
background = {
paths = (
{
closed = 1;
nodes = (
"31 0 LINE",
"623 0 LINE",
"623 211 LINE",
"591 211 LINE",
"591 78 OFFCURVE",
"586 36 OFFCURVE",
"529 36 CURVE SMOOTH",
"178 36 LINE",
"178 303 LINE",
"386 303 LINE SMOOTH",
"423 303 OFFCURVE",
"427 284 OFFCURVE",
"429 190 CURVE",
"461 190 LINE",
"461 446 LINE",
"429 446 LINE",
"427 354 OFFCURVE",
"423 335 OFFCURVE",
"386 335 CURVE SMOOTH",
"178 335 LINE",
"178 594 LINE",
"529 594 LINE SMOOTH",
"586 594 OFFCURVE",
"591 549 OFFCURVE",
"591 418 CURVE",
"623 418 LINE",
"623 630 LINE",
"30 630 LINE",
"30 594 LINE",
"104 594 LINE SMOOTH",
"123 594 OFFCURVE",
"130 583 OFFCURVE",
"130 562 CURVE SMOOTH",
"130 67 LINE SMOOTH",
"130 47 OFFCURVE",
"122 36 OFFCURVE",
"105 36 CURVE SMOOTH",
"31 36 LINE"
);
}
);
};
layerId = UUID0;
name = "Light Extended";
paths = (
{
closed = 1;
nodes = (
"21 0 LINE",
"613 0 LINE",
"613 211 LINE",
"581 211 LINE",
"581 78 OFFCURVE",
"576 36 OFFCURVE",
"519 36 CURVE SMOOTH",
"178 36 LINE",
"178 303 LINE",
"376 303 LINE SMOOTH",
"413 303 OFFCURVE",
"417 284 OFFCURVE",
"419 170 CURVE",
"451 170 LINE",
"451 466 LINE",
"419 466 LINE",
"417 354 OFFCURVE",
"413 335 OFFCURVE",
"376 335 CURVE SMOOTH",
"178 335 LINE",
"178 594 LINE",
"519 594 LINE SMOOTH",
"576 594 OFFCURVE",
"581 549 OFFCURVE",
"581 418 CURVE",
"613 418 LINE",
"613 630 LINE",
"20 630 LINE",
"20 594 LINE",
"104 594 LINE SMOOTH",
"123 594 OFFCURVE",
"130 583 OFFCURVE",
"130 562 CURVE SMOOTH",
"130 67 LINE SMOOTH",
"130 47 OFFCURVE",
"122 36 OFFCURVE",
"105 36 CURVE SMOOTH",
"21 36 LINE"
);
}
);
width = 703;
},
{
background = {
paths = (
{
closed = 1;
nodes = (
"22 0 LINE",
"709 0 LINE",
"709 269 LINE",
"591 269 LINE",
"591 132 OFFCURVE",
"570 90 OFFCURVE",
"493 90 CURVE SMOOTH",
"262 90 LINE",
"262 278 LINE",
"320 278 LINE SMOOTH",
"377 278 OFFCURVE",
"389 260 OFFCURVE",
"389 196 CURVE",
"485 196 LINE",
"485 448 LINE",
"389 448 LINE",
"389 376 OFFCURVE",
"378 360 OFFCURVE",
"320 360 CURVE SMOOTH",
"262 360 LINE",
"262 540 LINE",
"486 540 LINE SMOOTH",
"564 540 OFFCURVE",
"591 497 OFFCURVE",
"591 354 CURVE",
"709 354 LINE",
"709 630 LINE",
"22 630 LINE",
"22 540 LINE",
"98 540 LINE SMOOTH",
"118 540 OFFCURVE",
"124 529 OFFCURVE",
"124 504 CURVE SMOOTH",
"124 123 LINE SMOOTH",
"124 102 OFFCURVE",
"118 90 OFFCURVE",
"99 90 CURVE SMOOTH",
"22 90 LINE"
);
}
);
};
layerId = "4355E1B8-19E6-44BD-A1D7-6E3C2DECA4C8";
name = Extended;
paths = (
{
closed = 1;
nodes = (
"22 0 LINE",
"689 0 LINE",
"689 269 LINE",
"571 269 LINE",
"571 132 OFFCURVE",
"550 90 OFFCURVE",
"473 90 CURVE SMOOTH",
"262 90 LINE",
"262 278 LINE",
"315 278 LINE SMOOTH",
"362 278 OFFCURVE",
"374 260 OFFCURVE",
"374 186 CURVE",
"465 186 LINE",
"465 458 LINE",
"374 458 LINE",
"374 376 OFFCURVE",
"363 360 OFFCURVE",
"315 360 CURVE SMOOTH",
"262 360 LINE",
"262 540 LINE",
"466 540 LINE SMOOTH",
"544 540 OFFCURVE",
"571 497 OFFCURVE",
"571 354 CURVE",
"689 354 LINE",
"689 630 LINE",
"22 630 LINE",
"22 540 LINE",
"98 540 LINE SMOOTH",
"118 540 OFFCURVE",
"124 529 OFFCURVE",
"124 504 CURVE SMOOTH",
"124 123 LINE SMOOTH",
"124 102 OFFCURVE",
"118 90 OFFCURVE",
"99 90 CURVE SMOOTH",
"22 90 LINE"
);
}
);
width = 739;
},
{
background = {
paths = (
{
closed = 1;
nodes = (
"17 0 LINE",
"740 0 LINE",
"740 284 LINE",
"520 284 LINE",
"520 167 OFFCURVE",
"498 152 OFFCURVE",
"452 152 CURVE SMOOTH",
"356 152 LINE",
"356 270 LINE",
"362 270 LINE SMOOTH",
"379 270 OFFCURVE",
"393 240 OFFCURVE",
"393 213 CURVE",
"499 213 LINE",
"499 415 LINE",
"393 415 LINE",
"393 371 OFFCURVE",
"380 362 OFFCURVE",
"363 362 CURVE SMOOTH",
"356 362 LINE",
"356 478 LINE",
"448 478 LINE SMOOTH",
"497 478 OFFCURVE",
"520 466 OFFCURVE",
"520 346 CURVE",
"740 346 LINE",
"740 630 LINE",
"17 630 LINE",
"17 478 LINE",
"80 478 LINE SMOOTH",
"100 478 OFFCURVE",
"106 467 OFFCURVE",
"106 442 CURVE SMOOTH",
"106 185 LINE SMOOTH",
"106 164 OFFCURVE",
"100 152 OFFCURVE",
"81 152 CURVE SMOOTH",
"17 152 LINE"
);
}
);
};
layerId = "14C77FDB-037D-4842-9381-6D9ED15DD48C";
name = "Bold Extended";
paths = (
{
closed = 1;
nodes = (
"17 0 LINE",
"715 0 LINE",
"715 284 LINE",
"510 284 LINE",
"510 167 OFFCURVE",
"488 152 OFFCURVE",
"442 152 CURVE SMOOTH",
"356 152 LINE",
"356 270 LINE",
"362 270 LINE SMOOTH",
"374 270 OFFCURVE",
"388 240 OFFCURVE",
"388 203 CURVE",
"484 203 LINE",
"484 425 LINE",
"388 425 LINE",
"388 371 OFFCURVE",
"375 362 OFFCURVE",
"363 362 CURVE SMOOTH",
"356 362 LINE",
"356 478 LINE",
"438 478 LINE SMOOTH",
"497 478 OFFCURVE",
"510 466 OFFCURVE",
"510 346 CURVE",
"715 346 LINE",
"715 630 LINE",
"17 630 LINE",
"17 478 LINE",
"80 478 LINE SMOOTH",
"100 478 OFFCURVE",
"106 467 OFFCURVE",
"106 442 CURVE SMOOTH",
"106 185 LINE SMOOTH",
"106 164 OFFCURVE",
"100 152 OFFCURVE",
"81 152 CURVE SMOOTH",
"17 152 LINE"
);
}
);
width = 745;
}
);
leftMetricsKey = H;
unicode = 0045;
},
{
color = 6;
glyphname = F;
lastChange = "2015-05-08 17:26:04 +0000";
layers = (
{
layerId = "E9E6D55E-9446-45F2-B66C-3272698B0216";
name = "Light Condensed";
paths = (
{
closed = 1;
nodes = (
"13 0 LINE",
"230 0 LINE",
"230 30 LINE",
"173 30 LINE SMOOTH",
"142 30 OFFCURVE",
"128 45 OFFCURVE",
"128 71 CURVE SMOOTH",
"128 296 LINE",
"191 296 LINE SMOOTH",
"228 296 OFFCURVE",
"232 277 OFFCURVE",
"234 191 CURVE",
"266 191 LINE",
"266 422 LINE",
"234 422 LINE",
"232 347 OFFCURVE",
"228 328 OFFCURVE",
"191 328 CURVE SMOOTH",
"128 328 LINE",
"128 600 LINE",
"274 600 LINE SMOOTH",
"317 600 OFFCURVE",
"336 577 OFFCURVE",
"336 438 CURVE",
"368 438 LINE",
"368 630 LINE",
"16 630 LINE",
"16 600 LINE",
"39 600 LINE SMOOTH",
"72 600 OFFCURVE",
"85 585 OFFCURVE",
"85 558 CURVE SMOOTH",
"85 71 LINE SMOOTH",
"85 45 OFFCURVE",
"71 30 OFFCURVE",
"40 30 CURVE SMOOTH",
"13 30 LINE"
);
}
);
width = 408;
},
{
background = {
paths = (
{
closed = 1;
nodes = (
"15 0 LINE",
"327 0 LINE",
"327 90 LINE",
"260 90 LINE SMOOTH",
"229 90 OFFCURVE",
"215 105 OFFCURVE",
"215 131 CURVE SMOOTH",
"215 275 LINE",
"220 275 LINE SMOOTH",
"256 275 OFFCURVE",
"262 256 OFFCURVE",
"262 186 CURVE",
"333 186 LINE",
"333 448 LINE",
"262 448 LINE",
"262 373 OFFCURVE",
"257 357 OFFCURVE",
"220 357 CURVE SMOOTH",
"215 357 LINE",
"215 540 LINE",
"308 540 LINE SMOOTH",
"353 540 OFFCURVE",
"374 517 OFFCURVE",
"374 361 CURVE",
"483 361 LINE",
"483 630 LINE",
"15 630 LINE",
"15 540 LINE",
"49 540 LINE SMOOTH",
"70 540 OFFCURVE",
"77 532 OFFCURVE",
"77 505 CURVE SMOOTH",
"77 121 LINE SMOOTH",
"77 98 OFFCURVE",
"67 90 OFFCURVE",
"52 90 CURVE SMOOTH",
"15 90 LINE"
);
}
);
};
layerId = "B25F85BC-C782-4067-8484-07202F80B8CD";
name = Condensed;
paths = (
{
closed = 1;
nodes = (
"15 0 LINE",
"307 0 LINE",
"307 90 LINE",
"260 90 LINE SMOOTH",
"229 90 OFFCURVE",
"215 105 OFFCURVE",
"215 131 CURVE SMOOTH",
"215 275 LINE",
"220 275 LINE SMOOTH",
"241 275 OFFCURVE",
"247 256 OFFCURVE",
"247 186 CURVE",
"308 186 LINE",
"308 448 LINE",
"247 448 LINE",
"247 373 OFFCURVE",
"242 357 OFFCURVE",
"220 357 CURVE SMOOTH",
"215 357 LINE",
"215 540 LINE",
"278 540 LINE SMOOTH",
"353 540 OFFCURVE",
"344 517 OFFCURVE",
"344 361 CURVE",
"453 361 LINE",
"453 630 LINE",
"15 630 LINE",
"15 540 LINE",
"49 540 LINE SMOOTH",
"70 540 OFFCURVE",
"77 532 OFFCURVE",
"77 505 CURVE SMOOTH",
"77 121 LINE SMOOTH",
"77 98 OFFCURVE",
"67 90 OFFCURVE",
"52 90 CURVE SMOOTH",
"15 90 LINE"
);
}
);
width = 483;
},
{
background = {
paths = (
{
closed = 1;
nodes = (
"7 0 LINE",
"327 0 LINE",
"327 108 LINE",
"260 108 LINE SMOOTH",
"245 108 OFFCURVE",
"231 123 OFFCURVE",
"231 149 CURVE SMOOTH",
"231 303 LINE",
"236 303 LINE SMOOTH",
"245 303 OFFCURVE",
"248 292 OFFCURVE",
"248 211 CURVE",
"305 211 LINE",
"305 428 LINE",
"248 428 LINE",
"248 341 OFFCURVE",
"243 335 OFFCURVE",
"236 335 CURVE SMOOTH",
"231 335 LINE",
"231 522 LINE",
"269 522 LINE SMOOTH",
"303 522 OFFCURVE",
"323 509 OFFCURVE",
"323 341 CURVE",
"474 341 LINE",
"474 630 LINE",
"7 630 LINE",
"7 522 LINE",
"23 522 LINE SMOOTH",
"43 522 OFFCURVE",
"51 514 OFFCURVE",
"51 487 CURVE SMOOTH",
"51 139 LINE SMOOTH",
"51 117 OFFCURVE",
"41 108 OFFCURVE",
"26 108 CURVE SMOOTH",
"7 108 LINE"
);
}
);
};
layerId = "B817C739-5D48-43E8-AAEE-CE891513D7BC";
name = "Bold Condensed";
paths = (
{
closed = 1;
nodes = (
"7 0 LINE",
"327 0 LINE",
"327 108 LINE",
"260 108 LINE SMOOTH",
"245 108 OFFCURVE",
"231 123 OFFCURVE",
"231 149 CURVE SMOOTH",
"231 283 LINE",
"236 283 LINE SMOOTH",
"245 283 OFFCURVE",
"248 272 OFFCURVE",
"248 201 CURVE",
"295 201 LINE",
"295 438 LINE",
"248 438 LINE",
"248 361 OFFCURVE",
"243 355 OFFCURVE",
"236 355 CURVE SMOOTH",
"231 355 LINE",
"231 522 LINE",
"279 522 LINE SMOOTH",
"298 522 OFFCURVE",
"313 509 OFFCURVE",
"313 341 CURVE",
"459 341 LINE",
"459 630 LINE",
"7 630 LINE",
"7 522 LINE",
"23 522 LINE SMOOTH",
"43 522 OFFCURVE",
"51 514 OFFCURVE",
"51 487 CURVE SMOOTH",
"51 139 LINE SMOOTH",
"51 117 OFFCURVE",
"41 108 OFFCURVE",
"26 108 CURVE SMOOTH",
"7 108 LINE"
);
}
);
width = 479;
},
{
background = {
paths = (
{
closed = 1;
nodes = (
"31 0 LINE",
"274 0 LINE",
"274 36 LINE",
"207 36 LINE SMOOTH",
"192 36 OFFCURVE",
"178 51 OFFCURVE",
"178 77 CURVE SMOOTH",
"178 297 LINE",
"382 297 LINE SMOOTH",
"409 297 OFFCURVE",
"419 276 OFFCURVE",
"419 198 CURVE",
"451 198 LINE",
"451 429 LINE",
"419 429 LINE",
"419 345 OFFCURVE",
"409 329 OFFCURVE",
"382 329 CURVE SMOOTH",
"178 329 LINE",
"178 594 LINE",
"514 594 LINE SMOOTH",
"561 594 OFFCURVE",
"581 579 OFFCURVE",
"581 418 CURVE",
"613 418 LINE",
"613 630 LINE",
"30 630 LINE",
"30 594 LINE",
"102 594 LINE SMOOTH",
"122 594 OFFCURVE",
"130 586 OFFCURVE",
"130 558 CURVE SMOOTH",
"130 67 LINE SMOOTH",
"130 45 OFFCURVE",
"120 36 OFFCURVE",
"105 36 CURVE SMOOTH",
"31 36 LINE"
);
}
);
};
layerId = UUID0;
name = "Light Extended";
paths = (
{
closed = 1;
nodes = (
"21 0 LINE",
"314 0 LINE",
"314 36 LINE",
"207 36 LINE SMOOTH",
"192 36 OFFCURVE",
"178 51 OFFCURVE",
"178 77 CURVE SMOOTH",
"178 297 LINE",
"382 297 LINE SMOOTH",
"409 297 OFFCURVE",
"419 276 OFFCURVE",
"419 178 CURVE",
"451 178 LINE",
"451 449 LINE",
"419 449 LINE",
"419 345 OFFCURVE",
"409 329 OFFCURVE",
"382 329 CURVE SMOOTH",
"178 329 LINE",
"178 594 LINE",
"514 594 LINE SMOOTH",
"561 594 OFFCURVE",
"581 579 OFFCURVE",
"581 418 CURVE",
"613 418 LINE",
"613 630 LINE",
"20 630 LINE",
"20 594 LINE",
"102 594 LINE SMOOTH",
"122 594 OFFCURVE",
"130 586 OFFCURVE",
"130 558 CURVE SMOOTH",
"130 67 LINE SMOOTH",
"130 45 OFFCURVE",
"120 36 OFFCURVE",
"105 36 CURVE SMOOTH",
"21 36 LINE"
);
}
);
width = 683;
},
{
background = {
paths = (
{
closed = 1;
nodes = (
"22 0 LINE",
"408 0 LINE",
"408 90 LINE",
"291 90 LINE SMOOTH",
"271 90 OFFCURVE",
"262 100 OFFCURVE",
"262 121 CURVE SMOOTH",
"262 270 LINE",
"326 270 LINE SMOOTH",
"376 270 OFFCURVE",
"389 249 OFFCURVE",
"389 191 CURVE",
"485 191 LINE",
"485 433 LINE",
"389 433 LINE",
"389 368 OFFCURVE",
"376 352 OFFCURVE",
"326 352 CURVE SMOOTH",
"262 352 LINE",
"262 540 LINE",
"478 540 LINE SMOOTH",
"548 540 OFFCURVE",
"581 505 OFFCURVE",
"581 371 CURVE",
"699 371 LINE",
"699 630 LINE",
"22 630 LINE",
"22 540 LINE",
"96 540 LINE SMOOTH",
"116 540 OFFCURVE",
"124 532 OFFCURVE",
"124 504 CURVE SMOOTH",
"124 121 LINE SMOOTH",
"124 99 OFFCURVE",
"114 90 OFFCURVE",
"99 90 CURVE SMOOTH",
"22 90 LINE"
);
}
);
};
layerId = "4355E1B8-19E6-44BD-A1D7-6E3C2DECA4C8";
name = Extended;
paths = (
{
closed = 1;
nodes = (
"22 0 LINE",
"408 0 LINE",
"408 90 LINE",
"291 90 LINE SMOOTH",
"271 90 OFFCURVE",
"262 100 OFFCURVE",
"262 121 CURVE SMOOTH",
"262 270 LINE",
"326 270 LINE SMOOTH",
"366 270 OFFCURVE",
"379 249 OFFCURVE",
"379 181 CURVE",
"465 181 LINE",
"465 443 LINE",
"379 443 LINE",
"379 368 OFFCURVE",
"366 352 OFFCURVE",
"326 352 CURVE SMOOTH",
"262 352 LINE",
"262 540 LINE",
"458 540 LINE SMOOTH",
"528 540 OFFCURVE",
"561 505 OFFCURVE",
"561 371 CURVE",
"674 371 LINE",
"674 630 LINE",
"22 630 LINE",
"22 540 LINE",
"96 540 LINE SMOOTH",
"116 540 OFFCURVE",
"124 532 OFFCURVE",
"124 504 CURVE SMOOTH",
"124 121 LINE SMOOTH",
"124 99 OFFCURVE",
"114 90 OFFCURVE",
"99 90 CURVE SMOOTH",
"22 90 LINE"
);
}
);
width = 714;
},
{
background = {
paths = (
{
closed = 1;
nodes = (
"17 0 LINE",
"472 0 LINE",
"472 152 LINE",
"385 152 LINE SMOOTH",
"365 152 OFFCURVE",
"356 162 OFFCURVE",
"356 183 CURVE SMOOTH",
"356 264 LINE",
"363 264 LINE SMOOTH",
"380 264 OFFCURVE",
"393 241 OFFCURVE",
"393 213 CURVE",
"499 213 LINE",
"499 415 LINE",
"393 415 LINE",
"393 378 OFFCURVE",
"379 356 OFFCURVE",
"363 356 CURVE SMOOTH",
"356 356 LINE",
"356 478 LINE",
"458 478 LINE SMOOTH",
"504 478 OFFCURVE",
"520 443 OFFCURVE",
"520 347 CURVE",
"740 347 LINE",
"740 630 LINE",
"17 630 LINE",
"17 478 LINE",
"78 478 LINE SMOOTH",
"98 478 OFFCURVE",
"106 470 OFFCURVE",
"106 442 CURVE SMOOTH",
"106 183 LINE SMOOTH",
"106 161 OFFCURVE",
"96 152 OFFCURVE",
"81 152 CURVE SMOOTH",
"17 152 LINE"
);
}
);
};
layerId = "14C77FDB-037D-4842-9381-6D9ED15DD48C";
name = "Bold Extended";
paths = (
{
closed = 1;
nodes = (
"17 0 LINE",
"472 0 LINE",
"472 152 LINE",
"385 152 LINE SMOOTH",
"365 152 OFFCURVE",
"356 162 OFFCURVE",
"356 183 CURVE SMOOTH",
"356 264 LINE",
"363 264 LINE SMOOTH",
"375 264 OFFCURVE",
"388 241 OFFCURVE",
"388 203 CURVE",
"484 203 LINE",
"484 425 LINE",
"388 425 LINE",
"388 378 OFFCURVE",
"374 356 OFFCURVE",
"363 356 CURVE SMOOTH",
"356 356 LINE",
"356 478 LINE",
"448 478 LINE SMOOTH",
"504 478 OFFCURVE",
"510 443 OFFCURVE",
"510 337 CURVE",
"705 337 LINE",
"705 630 LINE",
"17 630 LINE",
"17 478 LINE",
"78 478 LINE SMOOTH",
"98 478 OFFCURVE",
"106 470 OFFCURVE",
"106 442 CURVE SMOOTH",
"106 183 LINE SMOOTH",
"106 161 OFFCURVE",
"96 152 OFFCURVE",
"81 152 CURVE SMOOTH",
"17 152 LINE"
);
}
);
width = 725;
}
);
leftMetricsKey = H;
unicode = 0046;
},
{
color = 6;
glyphname = G;
lastChange = "2015-05-08 17:26:04 +0000";
layers = (
{
background = {
paths = (
{
closed = 1;
nodes = (
"117 28 OFFCURVE",
"76 109 OFFCURVE",
"76 313 CURVE SMOOTH",
"76 517 OFFCURVE",
"118 597 OFFCURVE",
"225 597 CURVE SMOOTH",
"313 597 OFFCURVE",
"350 538 OFFCURVE",
"350 400 CURVE",
"381 400 LINE",
"381 630 LINE",
"360 630 LINE",
"354 571 LINE",
"350 571 LINE",
"321 616 OFFCURVE",
"285 634 OFFCURVE",
"225 634 CURVE SMOOTH",
"88 634 OFFCURVE",
"30 539 OFFCURVE",
"30 315 CURVE SMOOTH",
"30 93 OFFCURVE",
"88 -10 OFFCURVE",
"212 -10 CURVE SMOOTH",
"313 -10 OFFCURVE",
"379 66 OFFCURVE",
"379 182 CURVE",
"344 182 LINE",
"344 78 OFFCURVE",
"304 28 OFFCURVE",
"222 28 CURVE SMOOTH"
);
},
{
closed = 1;
nodes = (
"265 271 LINE",
"298 271 LINE SMOOTH",
"329 271 OFFCURVE",
"344 258 OFFCURVE",
"344 229 CURVE SMOOTH",
"344 58 LINE",
"348 58 LINE",
"354 0 LINE",
"385 0 LINE",
"385 229 LINE SMOOTH",
"385 258 OFFCURVE",
"400 271 OFFCURVE",
"431 271 CURVE SMOOTH",
"450 271 LINE",
"450 301 LINE",
"265 301 LINE"
);
}
);
};
layerId = "E9E6D55E-9446-45F2-B66C-3272698B0216";
name = "Light Condensed";
paths = (
{
closed = 1;
nodes = (
"117 28 OFFCURVE",
"76 109 OFFCURVE",
"76 313 CURVE SMOOTH",
"76 517 OFFCURVE",
"118 597 OFFCURVE",
"218 597 CURVE SMOOTH",
"299 597 OFFCURVE",
"336 538 OFFCURVE",
"336 400 CURVE",
"367 400 LINE",
"367 630 LINE",
"346 630 LINE",
"340 571 LINE",
"336 571 LINE",
"307 616 OFFCURVE",
"271 634 OFFCURVE",
"218 634 CURVE SMOOTH",
"88 634 OFFCURVE",
"30 539 OFFCURVE",
"30 315 CURVE SMOOTH",
"30 93 OFFCURVE",
"88 -10 OFFCURVE",
"205 -10 CURVE SMOOTH",
"299 -10 OFFCURVE",
"365 66 OFFCURVE",
"365 182 CURVE",
"330 182 LINE",
"330 78 OFFCURVE",
"290 28 OFFCURVE",
"215 28 CURVE SMOOTH"
);
},
{
closed = 1;
nodes = (
"258 271 LINE",
"284 271 LINE SMOOTH",
"322 271 OFFCURVE",
"330 258 OFFCURVE",
"330 229 CURVE SMOOTH",
"330 58 LINE",
"334 58 LINE",
"340 0 LINE",
"371 0 LINE",
"371 229 LINE SMOOTH",
"371 258 OFFCURVE",
"386 271 OFFCURVE",
"417 271 CURVE SMOOTH",
"436 271 LINE",
"436 301 LINE",
"258 301 LINE"
);
}
);
width = 446;
},
{
background = {
paths = (
{
closed = 1;
nodes = (
"208 93 OFFCURVE",
"187 157 OFFCURVE",
"187 312 CURVE SMOOTH",
"187 474 OFFCURVE",
"211 536 OFFCURVE",
"275 536 CURVE SMOOTH",
"328 536 OFFCURVE",
"346 496 OFFCURVE",
"346 376 CURVE",
"452 376 LINE",
"452 630 LINE",
"365 630 LINE",
"353 574 LINE",
"349 574 LINE",
"327 619 OFFCURVE",
"289 640 OFFCURVE",
"227 640 CURVE SMOOTH",
"94 640 OFFCURVE",
"35 541 OFFCURVE",
"35 316 CURVE SMOOTH",
"35 97 OFFCURVE",
"92 -10 OFFCURVE",
"208 -10 CURVE SMOOTH",
"304 -10 OFFCURVE",
"367 71 OFFCURVE",
"367 194 CURVE",
"328 194 LINE",
"328 139 OFFCURVE",
"297 93 OFFCURVE",
"259 93 CURVE SMOOTH"
);
},
{
closed = 1;
nodes = (
"256 238 LINE",
"301 238 LINE SMOOTH",
"320 238 OFFCURVE",
"328 228 OFFCURVE",
"328 206 CURVE SMOOTH",
"328 51 LINE",
"332 51 LINE",
"352 0 LINE",
"461 0 LINE",
"461 206 LINE SMOOTH",
"461 227 OFFCURVE",
"469 238 OFFCURVE",
"484 238 CURVE SMOOTH",
"514 238 LINE",
"514 328 LINE",
"256 328 LINE"
);
}
);
};
layerId = "B25F85BC-C782-4067-8484-07202F80B8CD";
name = Condensed;
paths = (
{
closed = 1;
nodes = (
"208 93 OFFCURVE",
"187 157 OFFCURVE",
"187 312 CURVE SMOOTH",
"187 474 OFFCURVE",
"211 536 OFFCURVE",
"275 536 CURVE SMOOTH",
"328 536 OFFCURVE",
"346 496 OFFCURVE",
"346 376 CURVE",
"452 376 LINE",
"452 630 LINE",
"365 630 LINE",
"353 574 LINE",
"349 574 LINE",
"327 619 OFFCURVE",
"289 640 OFFCURVE",
"227 640 CURVE SMOOTH",
"94 640 OFFCURVE",
"35 541 OFFCURVE",
"35 316 CURVE SMOOTH",
"35 97 OFFCURVE",
"92 -10 OFFCURVE",
"208 -10 CURVE SMOOTH",
"304 -10 OFFCURVE",
"367 71 OFFCURVE",
"367 194 CURVE",
"328 194 LINE",
"328 139 OFFCURVE",
"297 93 OFFCURVE",
"259 93 CURVE SMOOTH"
);
},
{
closed = 1;
nodes = (
"256 238 LINE",
"301 238 LINE SMOOTH",
"320 238 OFFCURVE",
"328 228 OFFCURVE",
"328 206 CURVE SMOOTH",
"328 51 LINE",
"332 51 LINE",
"352 0 LINE",
"461 0 LINE",
"461 206 LINE SMOOTH",
"461 227 OFFCURVE",
"469 238 OFFCURVE",
"484 238 CURVE SMOOTH",
"514 238 LINE",
"514 328 LINE",
"256 328 LINE"
);
}
);
width = 514;
},
{
background = {
paths = (
{
closed = 1;
nodes = (
"219 128 OFFCURVE",
"214 155 OFFCURVE",
"214 309 CURVE SMOOTH",
"214 471 OFFCURVE",
"219 502 OFFCURVE",
"246 502 CURVE SMOOTH",
"271 502 OFFCURVE",
"277 472 OFFCURVE",
"277 348 CURVE",
"432 348 LINE",
"432 630 LINE",
"307 630 LINE",
"301 588 LINE",
"297 588 LINE",
"283 623 OFFCURVE",
"248 640 OFFCURVE",
"194 640 CURVE SMOOTH",
"69 640 OFFCURVE",
"16 545 OFFCURVE",
"16 320 CURVE SMOOTH",
"16 98 OFFCURVE",
"68 -10 OFFCURVE",
"175 -10 CURVE SMOOTH",
"279 -10 OFFCURVE",
"338 95 OFFCURVE",
"338 282 CURVE",
"279 172 LINE",
"279 142 OFFCURVE",
"269 128 OFFCURVE",
"247 128 CURVE SMOOTH"
);
},
{
closed = 1;
nodes = (
"235 216 LINE",
"253 216 LINE SMOOTH",
"271 216 OFFCURVE",
"279 206 OFFCURVE",
"279 184 CURVE SMOOTH",
"279 42 LINE",
"283 42 LINE",
"303 0 LINE",
"445 0 LINE",
"445 184 LINE SMOOTH",
"445 215 OFFCURVE",
"446 216 OFFCURVE",
"466 216 CURVE SMOOTH",
"479 216 LINE",
"479 324 LINE",
"235 324 LINE"
);
}
);
};
layerId = "B817C739-5D48-43E8-AAEE-CE891513D7BC";
name = "Bold Condensed";
paths = (
{
closed = 1;
nodes = (
"219 128 OFFCURVE",
"214 155 OFFCURVE",
"214 309 CURVE SMOOTH",
"214 471 OFFCURVE",
"219 502 OFFCURVE",
"246 502 CURVE SMOOTH",
"271 502 OFFCURVE",
"277 472 OFFCURVE",
"277 348 CURVE",
"422 348 LINE",
"422 630 LINE",
"307 630 LINE",
"301 588 LINE",
"297 588 LINE",
"283 623 OFFCURVE",
"248 640 OFFCURVE",
"194 640 CURVE SMOOTH",
"69 640 OFFCURVE",
"16 545 OFFCURVE",
"16 320 CURVE SMOOTH",
"16 98 OFFCURVE",
"68 -10 OFFCURVE",
"175 -10 CURVE SMOOTH",
"279 -10 OFFCURVE",
"338 95 OFFCURVE",
"338 282 CURVE",
"279 172 LINE",
"279 142 OFFCURVE",
"269 128 OFFCURVE",
"247 128 CURVE SMOOTH"
);
},
{
closed = 1;
nodes = (
"235 216 LINE",
"253 216 LINE SMOOTH",
"271 216 OFFCURVE",
"279 206 OFFCURVE",
"279 184 CURVE SMOOTH",
"279 42 LINE",
"283 42 LINE",
"303 0 LINE",
"435 0 LINE",
"435 184 LINE SMOOTH",
"435 215 OFFCURVE",
"436 216 OFFCURVE",
"456 216 CURVE SMOOTH",
"469 216 LINE",
"469 324 LINE",
"235 324 LINE"
);
}
);
width = 469;
},
{
layerId = UUID0;
name = "Light Extended";
paths = (
{
closed = 1;
nodes = (
"216 31 OFFCURVE",
"124 130 OFFCURVE",
"124 315 CURVE SMOOTH",
"124 499 OFFCURVE",
"217 599 OFFCURVE",
"390 599 CURVE SMOOTH",
"524 599 OFFCURVE",
"598 538 OFFCURVE",
"624 406 CURVE",
"660 406 LINE",
"660 630 LINE",
"628 630 LINE",
"616 532 LINE",
"612 532 LINE",
"570 603 OFFCURVE",
"491 640 OFFCURVE",
"384 640 CURVE SMOOTH",
"189 640 OFFCURVE",
"75 519 OFFCURVE",
"75 314 CURVE SMOOTH",
"75 110 OFFCURVE",
"188 -10 OFFCURVE",
"382 -10 CURVE SMOOTH",
"554 -10 OFFCURVE",
"661 83 OFFCURVE",
"661 232 CURVE",
"618 232 LINE",
"618 104 OFFCURVE",
"535 31 OFFCURVE",
"388 31 CURVE SMOOTH"
);
},
{
closed = 1;
nodes = (
"498 294 LINE",
"591 294 LINE SMOOTH",
"610 294 OFFCURVE",
"618 284 OFFCURVE",
"618 262 CURVE SMOOTH",
"618 90 LINE",
"622 90 LINE",
"634 0 LINE",
"666 0 LINE",
"666 262 LINE SMOOTH",
"666 283 OFFCURVE",
"674 294 OFFCURVE",
"689 294 CURVE SMOOTH",
"746 294 LINE",
"746 330 LINE",
"498 330 LINE"
);
}
);
width = 766;
},
{
background = {
paths = (
{
closed = 1;
nodes = (
"269 93 OFFCURVE",
"203 168 OFFCURVE",
"203 312 CURVE SMOOTH",
"203 460 OFFCURVE",
"270 537 OFFCURVE",
"399 537 CURVE SMOOTH",
"507 537 OFFCURVE",
"566 483 OFFCURVE",
"576 376 CURVE",
"679 376 LINE",
"679 630 LINE",
"576 630 LINE",
"565 573 LINE",
"561 573 LINE",
"524 618 OFFCURVE",
"467 640 OFFCURVE",
"386 640 CURVE SMOOTH",
"187 640 OFFCURVE",
"55 510 OFFCURVE",
"55 313 CURVE SMOOTH",
"55 120 OFFCURVE",
"180 -10 OFFCURVE",
"364 -10 CURVE SMOOTH",
"511 -10 OFFCURVE",
"634 95 OFFCURVE",
"634 221 CURVE",
"562 201 LINE",
"562 136 OFFCURVE",
"496 93 OFFCURVE",
"397 93 CURVE SMOOTH"
);
},
{
closed = 1;
nodes = (
"440 247 LINE",
"535 247 LINE SMOOTH",
"554 247 OFFCURVE",
"562 237 OFFCURVE",
"562 215 CURVE SMOOTH",
"562 62 LINE",
"566 62 LINE",
"600 0 LINE",
"700 0 LINE",
"700 215 LINE SMOOTH",
"700 231 OFFCURVE",
"711 247 OFFCURVE",
"723 247 CURVE SMOOTH",
"778 247 LINE",
"778 337 LINE",
"440 337 LINE"
);
}
);
};
layerId = "4355E1B8-19E6-44BD-A1D7-6E3C2DECA4C8";
name = Extended;
paths = (
{
closed = 1;
nodes = (
"269 93 OFFCURVE",
"203 165 OFFCURVE",
"203 313 CURVE SMOOTH",
"203 462 OFFCURVE",
"270 537 OFFCURVE",
"403 537 CURVE SMOOTH",
"515 537 OFFCURVE",
"576 483 OFFCURVE",
"586 376 CURVE",
"689 376 LINE",
"689 630 LINE",
"586 630 LINE",
"575 573 LINE",
"571 573 LINE",
"534 618 OFFCURVE",
"475 640 OFFCURVE",
"390 640 CURVE SMOOTH",
"187 640 OFFCURVE",
"55 512 OFFCURVE",
"55 313 CURVE SMOOTH",
"55 122 OFFCURVE",
"180 -10 OFFCURVE",
"361 -10 CURVE SMOOTH",
"519 -10 OFFCURVE",
"644 92 OFFCURVE",
"644 221 CURVE",
"572 201 LINE",
"572 136 OFFCURVE",
"504 93 OFFCURVE",
"402 93 CURVE SMOOTH"
);
},
{
closed = 1;
nodes = (
"460 247 LINE",
"545 247 LINE SMOOTH",
"559 247 OFFCURVE",
"572 231 OFFCURVE",
"572 215 CURVE SMOOTH",
"572 62 LINE",
"576 62 LINE",
"610 0 LINE",
"710 0 LINE",
"710 215 LINE SMOOTH",
"710 231 OFFCURVE",
"721 247 OFFCURVE",
"733 247 CURVE SMOOTH",
"778 247 LINE",
"778 337 LINE",
"460 337 LINE"
);
}
);
width = 778;
},
{
background = {
paths = (
{
closed = 1;
nodes = (
"340 130 OFFCURVE",
"300 164 OFFCURVE",
"300 294 CURVE SMOOTH",
"300 407 OFFCURVE",
"330 455 OFFCURVE",
"404 455 CURVE SMOOTH",
"466 455 OFFCURVE",
"500 422 OFFCURVE",
"500 363 CURVE",
"710 363 LINE",
"710 630 LINE",
"527 630 LINE",
"515 589 LINE",
"511 589 LINE",
"484 622 OFFCURVE",
"428 640 OFFCURVE",
"350 640 CURVE SMOOTH",
"145 640 OFFCURVE",
"17 516 OFFCURVE",
"17 317 CURVE SMOOTH",
"17 122 OFFCURVE",
"139 -10 OFFCURVE",
"316 -10 CURVE SMOOTH",
"482 -10 OFFCURVE",
"616 105 OFFCURVE",
"616 246 CURVE",
"503 162 LINE",
"503 143 OFFCURVE",
"459 130 OFFCURVE",
"414 130 CURVE SMOOTH"
);
},
{
closed = 1;
nodes = (
"398 186 LINE",
"476 186 LINE SMOOTH",
"495 186 OFFCURVE",
"503 181 OFFCURVE",
"503 168 CURVE SMOOTH",
"503 45 LINE",
"507 45 LINE",
"557 0 LINE",
"737 0 LINE",
"737 154 LINE SMOOTH",
"737 185 OFFCURVE",
"738 186 OFFCURVE",
"760 186 CURVE SMOOTH",
"801 186 LINE",
"801 328 LINE",
"398 328 LINE"
);
}
);
};
layerId = "14C77FDB-037D-4842-9381-6D9ED15DD48C";
name = "Bold Extended";
paths = (
{
closed = 1;
nodes = (
"340 130 OFFCURVE",
"300 164 OFFCURVE",
"300 294 CURVE SMOOTH",
"300 407 OFFCURVE",
"330 455 OFFCURVE",
"404 455 CURVE SMOOTH",
"466 455 OFFCURVE",
"500 422 OFFCURVE",
"500 363 CURVE",
"710 363 LINE",
"710 630 LINE",
"527 630 LINE",
"515 589 LINE",
"511 589 LINE",
"484 622 OFFCURVE",
"428 640 OFFCURVE",
"350 640 CURVE SMOOTH",
"145 640 OFFCURVE",
"17 516 OFFCURVE",
"17 317 CURVE SMOOTH",
"17 122 OFFCURVE",
"139 -10 OFFCURVE",
"316 -10 CURVE SMOOTH",
"482 -10 OFFCURVE",
"616 68 OFFCURVE",
"616 246 CURVE",
"503 167 LINE",
"503 148 OFFCURVE",
"459 130 OFFCURVE",
"414 130 CURVE SMOOTH"
);
},
{
closed = 1;
nodes = (
"398 186 LINE",
"486 186 LINE SMOOTH",
"499 186 OFFCURVE",
"503 182 OFFCURVE",
"503 171 CURVE SMOOTH",
"503 35 LINE",
"507 35 LINE",
"557 0 LINE",
"737 0 LINE",
"737 154 LINE SMOOTH",
"737 185 OFFCURVE",
"738 186 OFFCURVE",
"760 186 CURVE SMOOTH",
"801 186 LINE",
"801 328 LINE",
"398 328 LINE"
);
}
);
width = 791;
}
);
leftMetricsKey = O;
unicode = 0047;
},
{
color = 6;
glyphname = H;
lastChange = "2015-05-08 17:24:40 +0000";
layers = (
{
layerId = "E9E6D55E-9446-45F2-B66C-3272698B0216";
name = "Light Condensed";
paths = (
{
closed = 1;
nodes = (
"13 0 LINE",
"199 0 LINE",
"199 30 LINE",
"162 30 LINE SMOOTH",
"138 30 OFFCURVE",
"127 45 OFFCURVE",
"127 71 CURVE",
"127 558 LINE",
"127 585 OFFCURVE",
"137 600 OFFCURVE",
"163 600 CURVE SMOOTH",
"199 600 LINE",
"199 630 LINE",
"13 630 LINE",
"13 600 LINE",
"49 600 LINE SMOOTH",
"75 600 OFFCURVE",
"85 585 OFFCURVE",
"85 558 CURVE SMOOTH",
"85 71 LINE SMOOTH",
"85 45 OFFCURVE",
"74 30 OFFCURVE",
"50 30 CURVE SMOOTH",
"13 30 LINE"
);
},
{
closed = 1;
nodes = (
"119 303 LINE",
"369 303 LINE",
"369 335 LINE",
"119 335 LINE"
);
},
{
closed = 1;
nodes = (
"289 0 LINE",
"474 0 LINE",
"474 30 LINE",
"438 30 LINE SMOOTH",
"414 30 OFFCURVE",
"403 45 OFFCURVE",
"403 71 CURVE SMOOTH",
"403 558 LINE SMOOTH",
"403 584 OFFCURVE",
"413 600 OFFCURVE",
"439 600 CURVE SMOOTH",
"474 600 LINE",
"474 630 LINE",
"289 630 LINE",
"289 600 LINE",
"325 600 LINE SMOOTH",
"351 600 OFFCURVE",
"361 585 OFFCURVE",
"361 558 CURVE",
"361 71 LINE",
"361 45 OFFCURVE",
"350 30 OFFCURVE",
"326 30 CURVE SMOOTH",
"289 30 LINE"
);
}
);
width = 487;
},
{
background = {
paths = (
{
closed = 1;
nodes = (
"15 0 LINE",
"263 0 LINE",
"263 90 LINE",
"238 90 LINE SMOOTH",
"221 90 OFFCURVE",
"215 103 OFFCURVE",
"215 122 CURVE SMOOTH",
"215 508 LINE SMOOTH",
"215 527 OFFCURVE",
"221 540 OFFCURVE",
"238 540 CURVE SMOOTH",
"263 540 LINE",
"263 630 LINE",
"15 630 LINE",
"15 540 LINE",
"50 540 LINE SMOOTH",
"71 540 OFFCURVE",
"77 527 OFFCURVE",
"77 508 CURVE SMOOTH",
"77 122 LINE SMOOTH",
"77 103 OFFCURVE",
"71 90 OFFCURVE",
"50 90 CURVE SMOOTH",
"15 90 LINE"
);
},
{
closed = 1;
nodes = (
"116 271 LINE",
"418 271 LINE",
"418 371 LINE",
"116 371 LINE"
);
},
{
closed = 1;
nodes = (
"291 0 LINE",
"549 0 LINE",
"549 90 LINE",
"504 90 LINE SMOOTH",
"487 90 OFFCURVE",
"481 103 OFFCURVE",
"481 122 CURVE SMOOTH",
"481 508 LINE SMOOTH",
"481 527 OFFCURVE",
"487 540 OFFCURVE",
"504 540 CURVE SMOOTH",
"549 540 LINE",
"549 630 LINE",
"291 630 LINE",
"291 540 LINE",
"316 540 LINE SMOOTH",
"337 540 OFFCURVE",
"343 527 OFFCURVE",
"343 508 CURVE SMOOTH",
"343 122 LINE SMOOTH",
"343 103 OFFCURVE",
"337 90 OFFCURVE",
"316 90 CURVE SMOOTH",
"291 90 LINE"
);
}
);
};
layerId = "B25F85BC-C782-4067-8484-07202F80B8CD";
name = Condensed;
paths = (
{
closed = 1;
nodes = (
"15 0 LINE",
"263 0 LINE",
"263 90 LINE",
"238 90 LINE SMOOTH",
"221 90 OFFCURVE",
"215 103 OFFCURVE",
"215 122 CURVE SMOOTH",
"215 508 LINE SMOOTH",
"215 527 OFFCURVE",
"221 540 OFFCURVE",
"238 540 CURVE SMOOTH",
"263 540 LINE",
"263 630 LINE",
"15 630 LINE",
"15 540 LINE",
"50 540 LINE SMOOTH",
"71 540 OFFCURVE",
"77 527 OFFCURVE",
"77 508 CURVE SMOOTH",
"77 122 LINE SMOOTH",
"77 103 OFFCURVE",
"71 90 OFFCURVE",
"50 90 CURVE SMOOTH",
"15 90 LINE"
);
},
{
closed = 1;
nodes = (
"180 279 LINE",
"394 279 LINE",
"376 366 LINE",
"196 366 LINE"
);
},
{
closed = 1;
nodes = (
"291 0 LINE",
"549 0 LINE",
"549 90 LINE",
"504 90 LINE SMOOTH",
"487 90 OFFCURVE",
"481 103 OFFCURVE",
"481 122 CURVE SMOOTH",
"481 508 LINE SMOOTH",
"481 527 OFFCURVE",
"487 540 OFFCURVE",
"504 540 CURVE SMOOTH",
"549 540 LINE",
"549 630 LINE",
"291 630 LINE",
"291 540 LINE",
"316 540 LINE SMOOTH",
"337 540 OFFCURVE",
"343 527 OFFCURVE",
"343 508 CURVE SMOOTH",
"343 122 LINE SMOOTH",
"343 103 OFFCURVE",
"337 90 OFFCURVE",
"316 90 CURVE SMOOTH",
"291 90 LINE"
);
}
);
width = 564;
},
{
layerId = "B817C739-5D48-43E8-AAEE-CE891513D7BC";
name = "Bold Condensed";
paths = (
{
closed = 1;
nodes = (
"7 0 LINE",
"251 0 LINE",
"251 108 LINE",
"244 108 LINE SMOOTH",
"235 108 OFFCURVE",
"231 111 OFFCURVE",
"231 121 CURVE SMOOTH",
"231 509 LINE SMOOTH",
"231 517 OFFCURVE",
"234 522 OFFCURVE",
"244 522 CURVE SMOOTH",
"251 522 LINE",
"251 630 LINE",
"7 630 LINE",
"7 522 LINE",
"25 522 LINE SMOOTH",
"44 522 OFFCURVE",
"51 511 OFFCURVE",
"51 490 CURVE SMOOTH",
"51 139 LINE SMOOTH",
"51 119 OFFCURVE",
"43 108 OFFCURVE",
"26 108 CURVE SMOOTH",
"7 108 LINE"
);
},
{
closed = 1;
nodes = (
"215 268 LINE",
"301 268 LINE",
"301 376 LINE",
"215 376 LINE"
);
},
{
closed = 1;
nodes = (
"265 0 LINE",
"509 0 LINE",
"509 108 LINE",
"490 108 LINE SMOOTH",
"473 108 OFFCURVE",
"465 119 OFFCURVE",
"465 139 CURVE SMOOTH",
"465 490 LINE SMOOTH",
"465 511 OFFCURVE",
"472 522 OFFCURVE",
"491 522 CURVE SMOOTH",
"509 522 LINE",
"509 630 LINE",
"265 630 LINE",
"265 522 LINE",
"272 522 LINE SMOOTH",
"282 522 OFFCURVE",
"285 517 OFFCURVE",
"285 509 CURVE SMOOTH",
"285 121 LINE SMOOTH",
"285 111 OFFCURVE",
"281 108 OFFCURVE",
"272 108 CURVE SMOOTH",
"265 108 LINE"
);
}
);
width = 516;
},
{
layerId = UUID0;
name = "Light Extended";
paths = (
{
closed = 1;
nodes = (
"21 0 LINE",
"287 0 LINE",
"287 36 LINE",
"201 36 LINE SMOOTH",
"184 36 OFFCURVE",
"178 49 OFFCURVE",
"178 68 CURVE SMOOTH",
"178 562 LINE SMOOTH",
"178 581 OFFCURVE",
"184 594 OFFCURVE",
"201 594 CURVE SMOOTH",
"288 594 LINE",
"288 630 LINE",
"20 630 LINE",
"20 594 LINE",
"103 594 LINE SMOOTH",
"124 594 OFFCURVE",
"130 581 OFFCURVE",
"130 562 CURVE SMOOTH",
"130 68 LINE SMOOTH",
"130 49 OFFCURVE",
"124 36 OFFCURVE",
"103 36 CURVE SMOOTH",
"21 36 LINE"
);
},
{
closed = 1;
nodes = (
"167 308 LINE",
"649 308 LINE",
"649 344 LINE",
"167 344 LINE"
);
},
{
closed = 1;
nodes = (
"515 0 LINE",
"781 0 LINE",
"781 36 LINE",
"695 36 LINE SMOOTH",
"678 36 OFFCURVE",
"672 49 OFFCURVE",
"672 68 CURVE SMOOTH",
"672 562 LINE SMOOTH",
"672 581 OFFCURVE",
"678 594 OFFCURVE",
"695 594 CURVE SMOOTH",
"782 594 LINE",
"782 630 LINE",
"514 630 LINE",
"514 594 LINE",
"597 594 LINE SMOOTH",
"618 594 OFFCURVE",
"624 581 OFFCURVE",
"624 562 CURVE SMOOTH",
"624 68 LINE SMOOTH",
"624 49 OFFCURVE",
"618 36 OFFCURVE",
"597 36 CURVE SMOOTH",
"515 36 LINE"
);
}
);
width = 802;
},
{
layerId = "4355E1B8-19E6-44BD-A1D7-6E3C2DECA4C8";
name = Extended;
paths = (
{
closed = 1;
nodes = (
"22 0 LINE",
"360 0 LINE",
"360 90 LINE",
"285 90 LINE SMOOTH",
"268 90 OFFCURVE",
"262 103 OFFCURVE",
"262 122 CURVE SMOOTH",
"262 508 LINE SMOOTH",
"262 527 OFFCURVE",
"268 540 OFFCURVE",
"285 540 CURVE SMOOTH",
"360 540 LINE",
"360 630 LINE",
"22 630 LINE",
"22 540 LINE",
"97 540 LINE SMOOTH",
"118 540 OFFCURVE",
"124 527 OFFCURVE",
"124 508 CURVE SMOOTH",
"124 122 LINE SMOOTH",
"124 103 OFFCURVE",
"118 90 OFFCURVE",
"97 90 CURVE SMOOTH",
"22 90 LINE"
);
},
{
closed = 1;
nodes = (
"222 271 LINE",
"654 271 LINE",
"654 371 LINE",
"222 371 LINE"
);
},
{
closed = 1;
nodes = (
"512 0 LINE",
"850 0 LINE",
"850 90 LINE",
"775 90 LINE SMOOTH",
"758 90 OFFCURVE",
"752 103 OFFCURVE",
"752 122 CURVE SMOOTH",
"752 508 LINE SMOOTH",
"752 527 OFFCURVE",
"758 540 OFFCURVE",
"775 540 CURVE SMOOTH",
"850 540 LINE",
"850 630 LINE",
"512 630 LINE",
"512 540 LINE",
"587 540 LINE SMOOTH",
"608 540 OFFCURVE",
"614 527 OFFCURVE",
"614 508 CURVE SMOOTH",
"614 122 LINE SMOOTH",
"614 103 OFFCURVE",
"608 90 OFFCURVE",
"587 90 CURVE SMOOTH",
"512 90 LINE"
);
}
);
width = 872;
},
{
layerId = "14C77FDB-037D-4842-9381-6D9ED15DD48C";
name = "Bold Extended";
paths = (
{
closed = 1;
nodes = (
"17 0 LINE",
"426 0 LINE",
"426 152 LINE",
"379 152 LINE SMOOTH",
"362 152 OFFCURVE",
"356 165 OFFCURVE",
"356 184 CURVE SMOOTH",
"356 446 LINE SMOOTH",
"356 465 OFFCURVE",
"362 478 OFFCURVE",
"379 478 CURVE SMOOTH",
"426 478 LINE",
"426 630 LINE",
"17 630 LINE",
"17 478 LINE",
"79 478 LINE SMOOTH",
"100 478 OFFCURVE",
"106 465 OFFCURVE",
"106 446 CURVE SMOOTH",
"106 184 LINE SMOOTH",
"106 165 OFFCURVE",
"100 152 OFFCURVE",
"79 152 CURVE SMOOTH",
"17 152 LINE"
);
},
{
closed = 1;
nodes = (
"229 238 LINE",
"640 238 LINE",
"640 391 LINE",
"229 391 LINE"
);
},
{
closed = 1;
nodes = (
"460 0 LINE",
"869 0 LINE",
"869 152 LINE",
"807 152 LINE SMOOTH",
"786 152 OFFCURVE",
"780 165 OFFCURVE",
"780 184 CURVE SMOOTH",
"780 446 LINE SMOOTH",
"780 465 OFFCURVE",
"786 478 OFFCURVE",
"807 478 CURVE SMOOTH",
"869 478 LINE",
"869 630 LINE",
"460 630 LINE",
"460 478 LINE",
"507 478 LINE SMOOTH",
"524 478 OFFCURVE",
"530 465 OFFCURVE",
"530 446 CURVE SMOOTH",
"530 184 LINE",
"530 165 OFFCURVE",
"524 152 OFFCURVE",
"507 152 CURVE SMOOTH",
"460 152 LINE"
);
}
);
width = 886;
}
);
unicode = 0048;
},
{
glyphname = I;
lastChange = "2015-05-08 17:26:04 +0000";
layers = (
{
layerId = "E9E6D55E-9446-45F2-B66C-3272698B0216";
name = "Light Condensed";
paths = (
{
closed = 1;
nodes = (
"13 0 LINE",
"198 0 LINE",
"198 30 LINE",
"171 30 LINE SMOOTH",
"140 30 OFFCURVE",
"126 45 OFFCURVE",
"126 71 CURVE SMOOTH",
"126 558 LINE SMOOTH",
"126 585 OFFCURVE",
"139 600 OFFCURVE",
"172 600 CURVE SMOOTH",
"198 600 LINE",
"198 630 LINE",
"13 630 LINE",
"13 600 LINE",
"39 600 LINE SMOOTH",
"72 600 OFFCURVE",
"85 585 OFFCURVE",
"85 558 CURVE SMOOTH",
"85 71 LINE SMOOTH",
"85 45 OFFCURVE",
"71 30 OFFCURVE",
"40 30 CURVE SMOOTH",
"13 30 LINE"
);
}
);
width = 211;
},
{
layerId = "B25F85BC-C782-4067-8484-07202F80B8CD";
name = Condensed;
paths = (
{
closed = 1;
nodes = (
"15 0 LINE",
"263 0 LINE",
"263 90 LINE",
"238 90 LINE SMOOTH",
"221 90 OFFCURVE",
"215 103 OFFCURVE",
"215 122 CURVE SMOOTH",
"215 508 LINE SMOOTH",
"215 527 OFFCURVE",
"221 540 OFFCURVE",
"238 540 CURVE SMOOTH",
"263 540 LINE",
"263 630 LINE",
"15 630 LINE",
"15 540 LINE",
"50 540 LINE SMOOTH",
"71 540 OFFCURVE",
"77 527 OFFCURVE",
"77 508 CURVE SMOOTH",
"77 122 LINE SMOOTH",
"77 103 OFFCURVE",
"71 90 OFFCURVE",
"50 90 CURVE SMOOTH",
"15 90 LINE"
);
}
);
width = 278;
},
{
layerId = "B817C739-5D48-43E8-AAEE-CE891513D7BC";
name = "Bold Condensed";
paths = (
{
closed = 1;
nodes = (
"7 0 LINE",
"276 0 LINE",
"276 108 LINE",
"257 108 LINE SMOOTH",
"240 108 OFFCURVE",
"232 119 OFFCURVE",
"232 139 CURVE SMOOTH",
"232 490 LINE SMOOTH",
"232 511 OFFCURVE",
"239 522 OFFCURVE",
"258 522 CURVE SMOOTH",
"276 522 LINE",
"276 630 LINE",
"7 630 LINE",
"7 522 LINE",
"25 522 LINE SMOOTH",
"44 522 OFFCURVE",
"51 511 OFFCURVE",
"51 490 CURVE SMOOTH",
"51 139 LINE SMOOTH",
"51 119 OFFCURVE",
"43 108 OFFCURVE",
"26 108 CURVE SMOOTH",
"7 108 LINE"
);
}
);
width = 283;
},
{
layerId = UUID0;
name = "Light Extended";
paths = (
{
closed = 1;
nodes = (
"21 0 LINE",
"267 0 LINE",
"267 36 LINE",
"191 36 LINE SMOOTH",
"174 36 OFFCURVE",
"168 49 OFFCURVE",
"168 68 CURVE SMOOTH",
"168 561 LINE SMOOTH",
"168 580 OFFCURVE",
"174 593 OFFCURVE",
"191 593 CURVE SMOOTH",
"268 593 LINE",
"268 629 LINE",
"20 629 LINE",
"20 593 LINE",
"93 593 LINE SMOOTH",
"114 593 OFFCURVE",
"120 580 OFFCURVE",
"120 561 CURVE SMOOTH",
"120 68 LINE SMOOTH",
"120 49 OFFCURVE",
"114 36 OFFCURVE",
"93 36 CURVE SMOOTH",
"21 36 LINE"
);
}
);
width = 288;
},
{
layerId = "4355E1B8-19E6-44BD-A1D7-6E3C2DECA4C8";
name = Extended;
paths = (
{
closed = 1;
nodes = (
"22 0 LINE",
"360 0 LINE",
"360 90 LINE",
"285 90 LINE SMOOTH",
"268 90 OFFCURVE",
"262 103 OFFCURVE",
"262 122 CURVE SMOOTH",
"262 508 LINE SMOOTH",
"262 527 OFFCURVE",
"268 540 OFFCURVE",
"285 540 CURVE SMOOTH",
"360 540 LINE",
"360 630 LINE",
"22 630 LINE",
"22 540 LINE",
"97 540 LINE SMOOTH",
"118 540 OFFCURVE",
"124 527 OFFCURVE",
"124 508 CURVE SMOOTH",
"124 122 LINE SMOOTH",
"124 103 OFFCURVE",
"118 90 OFFCURVE",
"97 90 CURVE SMOOTH",
"22 90 LINE"
);
}
);
width = 382;
},
{
layerId = "14C77FDB-037D-4842-9381-6D9ED15DD48C";
name = "Bold Extended";
paths = (
{
closed = 1;
nodes = (
"17 0 LINE",
"446 0 LINE",
"446 152 LINE",
"379 152 LINE SMOOTH",
"362 152 OFFCURVE",
"356 165 OFFCURVE",
"356 184 CURVE SMOOTH",
"356 446 LINE SMOOTH",
"356 465 OFFCURVE",
"362 478 OFFCURVE",
"379 478 CURVE SMOOTH",
"446 478 LINE",
"446 630 LINE",
"17 630 LINE",
"17 478 LINE",
"79 478 LINE SMOOTH",
"100 478 OFFCURVE",
"106 465 OFFCURVE",
"106 446 CURVE SMOOTH",
"106 184 LINE SMOOTH",
"106 165 OFFCURVE",
"100 152 OFFCURVE",
"79 152 CURVE SMOOTH",
"17 152 LINE"
);
}
);
width = 463;
}
);
leftMetricsKey = H;
rightMetricsKey = H;
unicode = 0049;
},
{
glyphname = J;
lastChange = "2015-05-08 17:09:39 +0000";
layers = (
{
layerId = "E9E6D55E-9446-45F2-B66C-3272698B0216";
name = "Light Condensed";
paths = (
{
closed = 1;
nodes = (
"64 123 OFFCURVE",
"91 122 OFFCURVE",
"91 154 CURVE SMOOTH",
"91 175 OFFCURVE",
"79 186 OFFCURVE",
"58 186 CURVE SMOOTH",
"29 186 OFFCURVE",
"15 165 OFFCURVE",
"15 123 CURVE SMOOTH",
"15 42 OFFCURVE",
"68 -10 OFFCURVE",
"152 -10 CURVE SMOOTH",
"241 -10 OFFCURVE",
"292 46 OFFCURVE",
"292 145 CURVE SMOOTH",
"292 558 LINE SMOOTH",
"292 587 OFFCURVE",
"303 600 OFFCURVE",
"328 600 CURVE SMOOTH",
"363 600 LINE",
"363 630 LINE",
"178 630 LINE",
"178 600 LINE",
"214 600 LINE SMOOTH",
"239 600 OFFCURVE",
"250 587 OFFCURVE",
"250 558 CURVE SMOOTH",
"250 142 LINE SMOOTH",
"250 67 OFFCURVE",
"216 28 OFFCURVE",
"151 28 CURVE SMOOTH",
"100 28 OFFCURVE",
"64 55 OFFCURVE",
"64 93 CURVE SMOOTH"
);
}
);
width = 376;
},
{
layerId = "B25F85BC-C782-4067-8484-07202F80B8CD";
name = Condensed;
paths = (
{
closed = 1;
nodes = (
"109 160 OFFCURVE",
"154 152 OFFCURVE",
"154 207 CURVE SMOOTH",
"154 244 OFFCURVE",
"132 266 OFFCURVE",
"96 266 CURVE SMOOTH",
"44 266 OFFCURVE",
"10 219 OFFCURVE",
"10 147 CURVE SMOOTH",
"10 47 OFFCURVE",
"73 -10 OFFCURVE",
"182 -10 CURVE SMOOTH",
"297 -10 OFFCURVE",
"363 54 OFFCURVE",
"363 165 CURVE SMOOTH",
"363 508 LINE SMOOTH",
"363 529 OFFCURVE",
"372 540 OFFCURVE",
"389 540 CURVE SMOOTH",
"431 540 LINE",
"431 630 LINE",
"153 630 LINE",
"153 540 LINE",
"199 540 LINE SMOOTH",
"216 540 OFFCURVE",
"225 529 OFFCURVE",
"225 508 CURVE SMOOTH",
"225 182 LINE SMOOTH",
"225 119 OFFCURVE",
"203 88 OFFCURVE",
"159 88 CURVE SMOOTH",
"129 88 OFFCURVE",
"109 103 OFFCURVE",
"109 126 CURVE SMOOTH"
);
}
);
width = 446;
},
{
layerId = "B817C739-5D48-43E8-AAEE-CE891513D7BC";
name = "Bold Condensed";
paths = (
{
closed = 1;
nodes = (
"159 171 OFFCURVE",
"194 168 OFFCURVE",
"194 214 CURVE SMOOTH",
"194 254 OFFCURVE",
"167 276 OFFCURVE",
"120 276 CURVE SMOOTH",
"41 276 OFFCURVE",
"10 214 OFFCURVE",
"10 146 CURVE SMOOTH",
"10 49 OFFCURVE",
"74 -10 OFFCURVE",
"199 -10 CURVE SMOOTH",
"328 -10 OFFCURVE",
"405 53 OFFCURVE",
"405 165 CURVE SMOOTH",
"405 494 LINE SMOOTH",
"405 511 OFFCURVE",
"414 522 OFFCURVE",
"429 522 CURVE SMOOTH",
"449 522 LINE",
"449 630 LINE",
"153 630 LINE",
"153 522 LINE",
"199 522 LINE SMOOTH",
"216 522 OFFCURVE",
"225 511 OFFCURVE",
"225 490 CURVE SMOOTH",
"225 182 LINE SMOOTH",
"225 127 OFFCURVE",
"215 108 OFFCURVE",
"188 108 CURVE SMOOTH",
"169 108 OFFCURVE",
"159 118 OFFCURVE",
"159 136 CURVE SMOOTH"
);
}
);
width = 456;
},
{
layerId = UUID0;
name = "Light Extended";
paths = (
{
closed = 1;
nodes = (
"79 177 OFFCURVE",
"111 171 OFFCURVE",
"111 205 CURVE SMOOTH",
"111 227 OFFCURVE",
"98 238 OFFCURVE",
"78 238 CURVE SMOOTH",
"45 238 OFFCURVE",
"30 208 OFFCURVE",
"30 157 CURVE SMOOTH",
"30 49 OFFCURVE",
"97 -10 OFFCURVE",
"236 -10 CURVE SMOOTH",
"386 -10 OFFCURVE",
"463 59 OFFCURVE",
"463 195 CURVE SMOOTH",
"463 562 LINE SMOOTH",
"463 583 OFFCURVE",
"471 594 OFFCURVE",
"487 594 CURVE SMOOTH",
"563 594 LINE",
"563 630 LINE",
"316 630 LINE",
"316 594 LINE",
"391 594 LINE SMOOTH",
"407 594 OFFCURVE",
"415 583 OFFCURVE",
"415 562 CURVE SMOOTH",
"415 192 LINE SMOOTH",
"415 81 OFFCURVE",
"357 28 OFFCURVE",
"236 28 CURVE SMOOTH",
"134 28 OFFCURVE",
"79 65 OFFCURVE",
"79 129 CURVE SMOOTH"
);
}
);
width = 593;
},
{
layerId = "4355E1B8-19E6-44BD-A1D7-6E3C2DECA4C8";
name = Extended;
paths = (
{
closed = 1;
nodes = (
"131 182 OFFCURVE",
"186 178 OFFCURVE",
"186 235 CURVE SMOOTH",
"186 273 OFFCURVE",
"163 295 OFFCURVE",
"120 295 CURVE SMOOTH",
"51 295 OFFCURVE",
"22 238 OFFCURVE",
"22 169 CURVE SMOOTH",
"22 67 OFFCURVE",
"86 -10 OFFCURVE",
"236 -10 CURVE SMOOTH",
"389 -10 OFFCURVE",
"465 70 OFFCURVE",
"465 205 CURVE SMOOTH",
"465 508 LINE SMOOTH",
"465 529 OFFCURVE",
"474 540 OFFCURVE",
"491 540 CURVE SMOOTH",
"563 540 LINE",
"563 630 LINE",
"225 630 LINE",
"225 540 LINE",
"301 540 LINE SMOOTH",
"318 540 OFFCURVE",
"327 529 OFFCURVE",
"327 508 CURVE SMOOTH",
"327 211 LINE SMOOTH",
"327 130 OFFCURVE",
"295 92 OFFCURVE",
"215 92 CURVE SMOOTH",
"155 92 OFFCURVE",
"131 113 OFFCURVE",
"131 140 CURVE SMOOTH"
);
}
);
width = 585;
},
{
layerId = "14C77FDB-037D-4842-9381-6D9ED15DD48C";
name = "Bold Extended";
paths = (
{
closed = 1;
nodes = (
"199 210 OFFCURVE",
"234 215 OFFCURVE",
"234 261 CURVE SMOOTH",
"234 308 OFFCURVE",
"197 329 OFFCURVE",
"145 329 CURVE SMOOTH",
"61 329 OFFCURVE",
"20 274 OFFCURVE",
"20 186 CURVE SMOOTH",
"20 59 OFFCURVE",
"106 -10 OFFCURVE",
"295 -10 CURVE SMOOTH",
"486 -10 OFFCURVE",
"585 60 OFFCURVE",
"585 225 CURVE SMOOTH",
"585 450 LINE SMOOTH",
"585 467 OFFCURVE",
"594 478 OFFCURVE",
"609 478 CURVE SMOOTH",
"674 478 LINE",
"674 630 LINE",
"235 630 LINE",
"235 478 LINE",
"309 478 LINE SMOOTH",
"326 478 OFFCURVE",
"335 467 OFFCURVE",
"335 446 CURVE SMOOTH",
"335 225 LINE SMOOTH",
"335 184 OFFCURVE",
"306 151 OFFCURVE",
"251 151 CURVE SMOOTH",
"221 151 OFFCURVE",
"199 161 OFFCURVE",
"199 183 CURVE SMOOTH"
);
}
);
width = 691;
}
);
unicode = 004A;
},
{
color = 6;
glyphname = K;
lastChange = "2015-05-08 17:26:04 +0000";
layers = (
{
background = {
paths = (
{
closed = 1;
nodes = (
"13 0 LINE",
"199 0 LINE",
"199 30 LINE",
"154 30 LINE SMOOTH",
"134 30 OFFCURVE",
"127 40 OFFCURVE",
"127 62 CURVE SMOOTH",
"127 561 LINE SMOOTH",
"127 586 OFFCURVE",
"138 600 OFFCURVE",
"166 600 CURVE SMOOTH",
"199 600 LINE",
"199 630 LINE",
"13 630 LINE",
"13 600 LINE",
"48 600 LINE SMOOTH",
"74 600 OFFCURVE",
"85 586 OFFCURVE",
"85 561 CURVE SMOOTH",
"85 62 LINE SMOOTH",
"85 40 OFFCURVE",
"78 30 OFFCURVE",
"58 30 CURVE SMOOTH",
"13 30 LINE"
);
},
{
closed = 1;
nodes = (
"398 582 LINE SMOOTH",
"410 597 OFFCURVE",
"419 600 OFFCURVE",
"432 600 CURVE SMOOTH",
"463 600 LINE",
"463 630 LINE",
"302 630 LINE",
"302 600 LINE",
"336 600 LINE SMOOTH",
"347 600 OFFCURVE",
"353 596 OFFCURVE",
"353 589 CURVE SMOOTH",
"353 584 OFFCURVE",
"350 579 OFFCURVE",
"345 572 CURVE",
"102 265 LINE",
"115 228 LINE"
);
},
{
closed = 1;
nodes = (
"289 0 LINE",
"473 0 LINE",
"473 30 LINE",
"432 30 LINE SMOOTH",
"419 30 OFFCURVE",
"404 34 OFFCURVE",
"398 48 CURVE SMOOTH",
"242 413 LINE",
"213 372 LINE",
"350 54 LINE",
"352 50 OFFCURVE",
"353 46 OFFCURVE",
"353 43 CURVE SMOOTH",
"353 36 OFFCURVE",
"348 30 OFFCURVE",
"336 30 CURVE SMOOTH",
"289 30 LINE"
);
}
);
};
guideLines = (
{
angle = 90;
position = "{473, 361}";
}
);
layerId = "E9E6D55E-9446-45F2-B66C-3272698B0216";
name = "Light Condensed";
paths = (
{
closed = 1;
nodes = (
"13 0 LINE",
"199 0 LINE",
"199 30 LINE",
"154 30 LINE SMOOTH",
"134 30 OFFCURVE",
"127 40 OFFCURVE",
"127 62 CURVE SMOOTH",
"127 561 LINE SMOOTH",
"127 586 OFFCURVE",
"138 600 OFFCURVE",
"166 600 CURVE SMOOTH",
"199 600 LINE",
"199 630 LINE",
"13 630 LINE",
"13 600 LINE",
"48 600 LINE SMOOTH",
"74 600 OFFCURVE",
"85 586 OFFCURVE",
"85 561 CURVE SMOOTH",
"85 62 LINE SMOOTH",
"85 40 OFFCURVE",
"78 30 OFFCURVE",
"58 30 CURVE SMOOTH",
"13 30 LINE"
);
},
{
closed = 1;
nodes = (
"378 582 LINE SMOOTH",
"389 598 OFFCURVE",
"399 600 OFFCURVE",
"412 600 CURVE SMOOTH",
"443 600 LINE",
"443 630 LINE",
"272 630 LINE",
"272 600 LINE",
"316 600 LINE SMOOTH",
"327 600 OFFCURVE",
"333 596 OFFCURVE",
"333 589 CURVE SMOOTH",
"333 584 OFFCURVE",
"330 579 OFFCURVE",
"325 572 CURVE",
"102 248 LINE",
"115 208 LINE"
);
},
{
closed = 1;
nodes = (
"279 0 LINE",
"463 0 LINE",
"463 30 LINE",
"422 30 LINE SMOOTH",
"409 30 OFFCURVE",
"394 34 OFFCURVE",
"388 48 CURVE SMOOTH",
"232 403 LINE",
"203 362 LINE",
"340 54 LINE",
"342 50 OFFCURVE",
"343 46 OFFCURVE",
"343 43 CURVE SMOOTH",
"343 36 OFFCURVE",
"338 30 OFFCURVE",
"326 30 CURVE SMOOTH",
"279 30 LINE"
);
}
);
width = 468;
},
{
background = {
paths = (
{
closed = 1;
nodes = (
"16 0 LINE",
"262 0 LINE",
"262 90 LINE",
"234 90 LINE SMOOTH",
"222 90 OFFCURVE",
"215 100 OFFCURVE",
"215 115 CURVE SMOOTH",
"215 508 LINE SMOOTH",
"215 531 OFFCURVE",
"224 540 OFFCURVE",
"242 540 CURVE SMOOTH",
"263 540 LINE",
"263 630 LINE",
"15 630 LINE",
"15 540 LINE",
"50 540 LINE SMOOTH",
"70 540 OFFCURVE",
"77 530 OFFCURVE",
"77 508 CURVE SMOOTH",
"77 122 LINE SMOOTH",
"77 100 OFFCURVE",
"70 90 OFFCURVE",
"50 90 CURVE SMOOTH",
"16 90 LINE"
);
},
{
closed = 1;
nodes = (
"468 522 LINE SMOOTH",
"481 536 OFFCURVE",
"489 540 OFFCURVE",
"502 540 CURVE SMOOTH",
"529 540 LINE",
"529 630 LINE",
"304 630 LINE",
"304 540 LINE",
"348 540 LINE SMOOTH",
"359 540 OFFCURVE",
"364 534 OFFCURVE",
"364 527 CURVE SMOOTH",
"364 522 OFFCURVE",
"361 517 OFFCURVE",
"357 512 CURVE SMOOTH",
"85 213 LINE",
"162 186 LINE"
);
},
{
closed = 1;
nodes = (
"291 0 LINE",
"549 0 LINE",
"549 90 LINE",
"514 90 LINE SMOOTH",
"496 90 OFFCURVE",
"488 93 OFFCURVE",
"483 105 CURVE SMOOTH",
"355 407 LINE",
"257 303 LINE",
"338 116 LINE SMOOTH",
"341 109 OFFCURVE",
"342 106 OFFCURVE",
"342 102 CURVE SMOOTH",
"342 94 OFFCURVE",
"336 90 OFFCURVE",
"325 90 CURVE SMOOTH",
"291 90 LINE"
);
}
);
};
guideLines = (
{
angle = 90;
position = "{549, 178}";
}
);
layerId = "B25F85BC-C782-4067-8484-07202F80B8CD";
name = Condensed;
paths = (
{
closed = 1;
nodes = (
"16 0 LINE",
"262 0 LINE",
"262 90 LINE",
"234 90 LINE SMOOTH",
"222 90 OFFCURVE",
"215 100 OFFCURVE",
"215 115 CURVE SMOOTH",
"215 508 LINE SMOOTH",
"215 531 OFFCURVE",
"224 540 OFFCURVE",
"242 540 CURVE SMOOTH",
"263 540 LINE",
"263 630 LINE",
"15 630 LINE",
"15 540 LINE",
"50 540 LINE SMOOTH",
"70 540 OFFCURVE",
"77 530 OFFCURVE",
"77 508 CURVE SMOOTH",
"77 122 LINE SMOOTH",
"77 100 OFFCURVE",
"70 90 OFFCURVE",
"50 90 CURVE SMOOTH",
"16 90 LINE"
);
},
{
closed = 1;
nodes = (
"458 522 LINE SMOOTH",
"470 537 OFFCURVE",
"479 540 OFFCURVE",
"492 540 CURVE SMOOTH",
"524 540 LINE",
"524 630 LINE",
"299 630 LINE",
"299 540 LINE",
"338 540 LINE SMOOTH",
"349 540 OFFCURVE",
"354 534 OFFCURVE",
"354 527 CURVE SMOOTH",
"354 522 OFFCURVE",
"351 517 OFFCURVE",
"347 512 CURVE SMOOTH",
"85 193 LINE",
"162 166 LINE"
);
},
{
closed = 1;
nodes = (
"291 0 LINE",
"539 0 LINE",
"539 90 LINE",
"509 90 LINE SMOOTH",
"491 90 OFFCURVE",
"483 93 OFFCURVE",
"478 105 CURVE SMOOTH",
"360 413 LINE",
"262 309 LINE",
"333 116 LINE SMOOTH",
"336 109 OFFCURVE",
"337 106 OFFCURVE",
"337 102 CURVE SMOOTH",
"337 94 OFFCURVE",
"331 90 OFFCURVE",
"320 90 CURVE SMOOTH",
"291 90 LINE"
);
}
);
width = 549;
},
{
background = {
paths = (
{
closed = 1;
nodes = (
"8 0 LINE",
"252 0 LINE",
"252 108 LINE",
"241 108 LINE SMOOTH",
"235 108 OFFCURVE",
"232 113 OFFCURVE",
"232 123 CURVE SMOOTH",
"232 508 LINE SMOOTH",
"232 517 OFFCURVE",
"235 522 OFFCURVE",
"244 522 CURVE SMOOTH",
"252 522 LINE",
"252 630 LINE",
"7 630 LINE",
"7 522 LINE",
"23 522 LINE SMOOTH",
"43 522 OFFCURVE",
"52 511 OFFCURVE",
"52 489 CURVE SMOOTH",
"52 141 LINE SMOOTH",
"52 119 OFFCURVE",
"43 108 OFFCURVE",
"23 108 CURVE SMOOTH",
"8 108 LINE"
);
},
{
closed = 1;
nodes = (
"453 504 LINE SMOOTH",
"464 517 OFFCURVE",
"475 522 OFFCURVE",
"491 522 CURVE SMOOTH",
"499 522 LINE",
"499 630 LINE",
"266 630 LINE",
"266 522 LINE",
"277 522 LINE SMOOTH",
"286 522 OFFCURVE",
"291 517 OFFCURVE",
"291 509 CURVE SMOOTH",
"291 503 OFFCURVE",
"289 498 OFFCURVE",
"285 493 CURVE SMOOTH",
"66 195 LINE",
"172 148 LINE"
);
},
{
closed = 1;
nodes = (
"266 0 LINE",
"510 0 LINE",
"510 108 LINE",
"494 108 LINE SMOOTH",
"480 108 OFFCURVE",
"472 112 OFFCURVE",
"468 123 CURVE SMOOTH",
"362 413 LINE",
"227 313 LINE",
"282 138 LINE SMOOTH",
"284 132 OFFCURVE",
"286 123 OFFCURVE",
"286 119 CURVE SMOOTH",
"286 112 OFFCURVE",
"283 108 OFFCURVE",
"275 108 CURVE SMOOTH",
"266 108 LINE"
);
}
);
};
layerId = "B817C739-5D48-43E8-AAEE-CE891513D7BC";
name = "Bold Condensed";
paths = (
{
closed = 1;
nodes = (
"8 0 LINE",
"252 0 LINE",
"252 108 LINE",
"241 108 LINE SMOOTH",
"235 108 OFFCURVE",
"232 113 OFFCURVE",
"232 123 CURVE SMOOTH",
"232 508 LINE SMOOTH",
"232 517 OFFCURVE",
"235 522 OFFCURVE",
"244 522 CURVE SMOOTH",
"252 522 LINE",
"252 630 LINE",
"7 630 LINE",
"7 522 LINE",
"23 522 LINE SMOOTH",
"43 522 OFFCURVE",
"52 511 OFFCURVE",
"52 489 CURVE SMOOTH",
"52 141 LINE SMOOTH",
"52 119 OFFCURVE",
"43 108 OFFCURVE",
"23 108 CURVE SMOOTH",
"8 108 LINE"
);
},
{
closed = 1;
nodes = (
"453 504 LINE SMOOTH",
"463 518 OFFCURVE",
"475 522 OFFCURVE",
"491 522 CURVE SMOOTH",
"499 522 LINE",
"499 630 LINE",
"266 630 LINE",
"266 522 LINE",
"277 522 LINE SMOOTH",
"286 522 OFFCURVE",
"291 517 OFFCURVE",
"291 509 CURVE SMOOTH",
"291 503 OFFCURVE",
"289 498 OFFCURVE",
"285 493 CURVE SMOOTH",
"66 175 LINE",
"172 128 LINE"
);
},
{
closed = 1;
nodes = (
"266 0 LINE",
"510 0 LINE",
"510 108 LINE",
"494 108 LINE SMOOTH",
"484 108 OFFCURVE",
"477 112 OFFCURVE",
"472 123 CURVE SMOOTH",
"342 413 LINE",
"207 313 LINE",
"283 137 LINE SMOOTH",
"286 130 OFFCURVE",
"290 121 OFFCURVE",
"290 116 CURVE SMOOTH",
"290 112 OFFCURVE",
"287 108 OFFCURVE",
"279 108 CURVE SMOOTH",
"266 108 LINE"
);
}
);
width = 517;
},
{
background = {
paths = (
{
closed = 1;
nodes = (
"21 0 LINE",
"287 0 LINE",
"287 36 LINE",
"204 36 LINE SMOOTH",
"185 36 OFFCURVE",
"178 45 OFFCURVE",
"178 68 CURVE SMOOTH",
"178 564 LINE SMOOTH",
"178 585 OFFCURVE",
"186 594 OFFCURVE",
"205 594 CURVE SMOOTH",
"288 594 LINE",
"288 630 LINE",
"20 630 LINE",
"20 594 LINE",
"103 594 LINE SMOOTH",
"120 594 OFFCURVE",
"130 583 OFFCURVE",
"130 564 CURVE SMOOTH",
"130 68 LINE SMOOTH",
"130 46 OFFCURVE",
"121 36 OFFCURVE",
"101 36 CURVE SMOOTH",
"21 36 LINE"
);
},
{
closed = 1;
nodes = (
"657 576 LINE SMOOTH",
"673 588 OFFCURVE",
"691 594 OFFCURVE",
"709 594 CURVE SMOOTH",
"760 594 LINE",
"760 630 LINE",
"514 630 LINE",
"514 594 LINE",
"582 594 LINE SMOOTH",
"590 594 OFFCURVE",
"594 590 OFFCURVE",
"594 584 CURVE SMOOTH",
"594 579 OFFCURVE",
"593 575 OFFCURVE",
"586 569 CURVE SMOOTH",
"141 214 LINE",
"154 177 LINE"
);
},
{
closed = 1;
nodes = (
"515 0 LINE",
"781 0 LINE",
"781 36 LINE",
"724 36 LINE SMOOTH",
"701 36 OFFCURVE",
"690 38 OFFCURVE",
"680 50 CURVE SMOOTH",
"392 394 LINE",
"363 353 LINE",
"613 62 LINE SMOOTH",
"617 58 OFFCURVE",
"618 54 OFFCURVE",
"618 50 CURVE SMOOTH",
"618 42 OFFCURVE",
"611 36 OFFCURVE",
"599 36 CURVE SMOOTH",
"515 36 LINE"
);
}
);
};
guideLines = (
{
angle = 90;
position = "{771, 317}";
}
);
layerId = UUID0;
name = "Light Extended";
paths = (
{
closed = 1;
nodes = (
"21 0 LINE",
"287 0 LINE",
"287 36 LINE",
"204 36 LINE SMOOTH",
"185 36 OFFCURVE",
"178 45 OFFCURVE",
"178 68 CURVE SMOOTH",
"178 564 LINE SMOOTH",
"178 585 OFFCURVE",
"186 594 OFFCURVE",
"205 594 CURVE SMOOTH",
"288 594 LINE",
"288 630 LINE",
"20 630 LINE",
"20 594 LINE",
"103 594 LINE SMOOTH",
"120 594 OFFCURVE",
"130 583 OFFCURVE",
"130 564 CURVE SMOOTH",
"130 68 LINE SMOOTH",
"130 46 OFFCURVE",
"121 36 OFFCURVE",
"101 36 CURVE SMOOTH",
"21 36 LINE"
);
},
{
closed = 1;
nodes = (
"632 576 LINE SMOOTH",
"648 589 OFFCURVE",
"666 594 OFFCURVE",
"684 594 CURVE SMOOTH",
"740 594 LINE",
"740 630 LINE",
"489 630 LINE",
"489 594 LINE",
"557 594 LINE SMOOTH",
"565 594 OFFCURVE",
"569 590 OFFCURVE",
"569 584 CURVE SMOOTH",
"569 579 OFFCURVE",
"568 575 OFFCURVE",
"561 569 CURVE SMOOTH",
"141 214 LINE",
"154 177 LINE"
);
},
{
closed = 1;
nodes = (
"500 0 LINE",
"766 0 LINE",
"766 36 LINE",
"709 36 LINE SMOOTH",
"686 36 OFFCURVE",
"675 38 OFFCURVE",
"665 50 CURVE SMOOTH",
"387 394 LINE",
"358 353 LINE",
"598 62 LINE SMOOTH",
"602 58 OFFCURVE",
"603 54 OFFCURVE",
"603 50 CURVE SMOOTH",
"603 42 OFFCURVE",
"596 36 OFFCURVE",
"584 36 CURVE SMOOTH",
"500 36 LINE"
);
}
);
width = 766;
},
{
background = {
paths = (
{
closed = 1;
nodes = (
"22 0 LINE",
"360 0 LINE",
"360 90 LINE",
"286 90 LINE SMOOTH",
"269 90 OFFCURVE",
"262 100 OFFCURVE",
"262 121 CURVE SMOOTH",
"262 508 LINE SMOOTH",
"262 531 OFFCURVE",
"269 540 OFFCURVE",
"289 540 CURVE SMOOTH",
"360 540 LINE",
"360 630 LINE",
"22 630 LINE",
"22 540 LINE",
"97 540 LINE SMOOTH",
"117 540 OFFCURVE",
"124 530 OFFCURVE",
"124 508 CURVE SMOOTH",
"124 121 LINE SMOOTH",
"124 99 OFFCURVE",
"117 89 OFFCURVE",
"97 89 CURVE SMOOTH",
"22 89 LINE"
);
},
{
closed = 1;
nodes = (
"756 528 LINE SMOOTH",
"770 537 OFFCURVE",
"781 540 OFFCURVE",
"799 540 CURVE SMOOTH",
"834 540 LINE",
"834 630 LINE",
"502 630 LINE",
"502 540 LINE",
"571 540 LINE SMOOTH",
"581 540 OFFCURVE",
"586 533 OFFCURVE",
"586 526 CURVE SMOOTH",
"586 521 OFFCURVE",
"584 516 OFFCURVE",
"578 512 CURVE SMOOTH",
"142 238 LINE",
"229 196 LINE"
);
},
{
closed = 1;
nodes = (
"512 0 LINE",
"851 0 LINE",
"851 89 LINE",
"804 89 LINE SMOOTH",
"786 89 OFFCURVE",
"776 94 OFFCURVE",
"766 104 CURVE SMOOTH",
"488 405 LINE",
"385 312 LINE",
"567 121 LINE SMOOTH",
"572 116 OFFCURVE",
"575 109 OFFCURVE",
"575 104 CURVE SMOOTH",
"575 96 OFFCURVE",
"570 90 OFFCURVE",
"560 90 CURVE SMOOTH",
"512 90 LINE"
);
}
);
};
layerId = "4355E1B8-19E6-44BD-A1D7-6E3C2DECA4C8";
name = Extended;
paths = (
{
closed = 1;
nodes = (
"22 0 LINE",
"370 0 LINE",
"370 90 LINE",
"286 90 LINE SMOOTH",
"269 90 OFFCURVE",
"262 100 OFFCURVE",
"262 121 CURVE SMOOTH",
"262 508 LINE SMOOTH",
"262 531 OFFCURVE",
"269 540 OFFCURVE",
"289 540 CURVE SMOOTH",
"360 540 LINE",
"360 630 LINE",
"22 630 LINE",
"22 540 LINE",
"97 540 LINE SMOOTH",
"117 540 OFFCURVE",
"124 530 OFFCURVE",
"124 508 CURVE SMOOTH",
"124 121 LINE SMOOTH",
"124 99 OFFCURVE",
"117 89 OFFCURVE",
"97 89 CURVE SMOOTH",
"22 89 LINE"
);
},
{
closed = 1;
nodes = (
"706 528 LINE SMOOTH",
"720 538 OFFCURVE",
"731 540 OFFCURVE",
"749 540 CURVE SMOOTH",
"794 540 LINE",
"794 630 LINE",
"432 630 LINE",
"432 540 LINE",
"521 540 LINE SMOOTH",
"531 540 OFFCURVE",
"536 533 OFFCURVE",
"536 526 CURVE SMOOTH",
"536 521 OFFCURVE",
"534 516 OFFCURVE",
"528 512 CURVE SMOOTH",
"142 228 LINE",
"229 186 LINE"
);
},
{
closed = 1;
nodes = (
"452 0 LINE",
"811 0 LINE",
"811 89 LINE",
"764 89 LINE SMOOTH",
"746 89 OFFCURVE",
"736 94 OFFCURVE",
"726 104 CURVE SMOOTH",
"448 405 LINE",
"345 312 LINE",
"527 121 LINE SMOOTH",
"532 116 OFFCURVE",
"535 109 OFFCURVE",
"535 104 CURVE SMOOTH",
"535 96 OFFCURVE",
"530 90 OFFCURVE",
"520 90 CURVE SMOOTH",
"452 90 LINE"
);
}
);
width = 831;
},
{
background = {
paths = (
{
closed = 1;
nodes = (
"17 0 LINE",
"426 0 LINE",
"426 152 LINE",
"378 152 LINE SMOOTH",
"363 152 OFFCURVE",
"356 158 OFFCURVE",
"356 176 CURVE SMOOTH",
"356 451 LINE SMOOTH",
"356 468 OFFCURVE",
"364 478 OFFCURVE",
"380 478 CURVE SMOOTH",
"426 478 LINE",
"426 630 LINE",
"17 630 LINE",
"17 478 LINE",
"79 478 LINE SMOOTH",
"100 478 OFFCURVE",
"106 467 OFFCURVE",
"106 447 CURVE SMOOTH",
"106 180 LINE SMOOTH",
"106 163 OFFCURVE",
"100 152 OFFCURVE",
"81 152 CURVE SMOOTH",
"17 152 LINE"
);
},
{
closed = 1;
nodes = (
"761 456 LINE SMOOTH",
"800 476 OFFCURVE",
"807 478 OFFCURVE",
"823 478 CURVE SMOOTH",
"856 478 LINE",
"856 630 LINE",
"460 630 LINE",
"460 478 LINE",
"499 478 LINE SMOOTH",
"508 478 OFFCURVE",
"513 473 OFFCURVE",
"513 465 CURVE SMOOTH",
"513 458 OFFCURVE",
"509 453 OFFCURVE",
"495 446 CURVE SMOOTH",
"187 290 LINE",
"293 213 LINE"
);
},
{
closed = 1;
nodes = (
"460 0 LINE",
"869 0 LINE",
"869 152 LINE",
"809 152 LINE SMOOTH",
"790 152 OFFCURVE",
"781 156 OFFCURVE",
"771 172 CURVE SMOOTH",
"625 401 LINE",
"434 308 LINE",
"520 179 LINE SMOOTH",
"523 174 OFFCURVE",
"525 170 OFFCURVE",
"525 166 CURVE SMOOTH",
"525 158 OFFCURVE",
"519 152 OFFCURVE",
"508 152 CURVE SMOOTH",
"460 152 LINE"
);
}
);
};
layerId = "14C77FDB-037D-4842-9381-6D9ED15DD48C";
name = "Bold Extended";
paths = (
{
closed = 1;
nodes = (
"17 0 LINE",
"412 0 LINE",
"412 152 LINE",
"378 152 LINE SMOOTH",
"363 152 OFFCURVE",
"356 158 OFFCURVE",
"356 176 CURVE SMOOTH",
"356 451 LINE SMOOTH",
"356 468 OFFCURVE",
"364 478 OFFCURVE",
"380 478 CURVE SMOOTH",
"410 478 LINE",
"410 630 LINE",
"17 630 LINE",
"17 478 LINE",
"79 478 LINE SMOOTH",
"100 478 OFFCURVE",
"106 467 OFFCURVE",
"106 447 CURVE SMOOTH",
"106 180 LINE SMOOTH",
"106 163 OFFCURVE",
"100 152 OFFCURVE",
"81 152 CURVE SMOOTH",
"17 152 LINE"
);
},
{
closed = 1;
nodes = (
"741 456 LINE SMOOTH",
"778 479 OFFCURVE",
"787 478 OFFCURVE",
"803 478 CURVE SMOOTH",
"826 478 LINE",
"826 630 LINE",
"444 630 LINE",
"444 478 LINE",
"479 478 LINE SMOOTH",
"488 478 OFFCURVE",
"493 473 OFFCURVE",
"493 465 CURVE SMOOTH",
"493 458 OFFCURVE",
"489 455 OFFCURVE",
"475 446 CURVE SMOOTH",
"187 260 LINE",
"293 183 LINE"
);
},
{
closed = 1;
nodes = (
"446 0 LINE",
"839 0 LINE",
"839 152 LINE",
"797 152 LINE SMOOTH",
"778 152 OFFCURVE",
"771 157 OFFCURVE",
"759 172 CURVE SMOOTH",
"595 391 LINE",
"414 298 LINE",
"500 179 LINE SMOOTH",
"503 174 OFFCURVE",
"505 170 OFFCURVE",
"505 166 CURVE SMOOTH",
"505 158 OFFCURVE",
"499 152 OFFCURVE",
"488 152 CURVE SMOOTH",
"446 152 LINE"
);
}
);
width = 839;
}
);
leftMetricsKey = H;
unicode = 004B;
},
{
color = 6;
glyphname = L;
lastChange = "2015-05-08 17:26:04 +0000";
layers = (
{
layerId = "E9E6D55E-9446-45F2-B66C-3272698B0216";
name = "Light Condensed";
paths = (
{
closed = 1;
nodes = (
"13 0 LINE",
"348 0 LINE",
"348 209 LINE",
"316 209 LINE",
"316 53 OFFCURVE",
"299 30 OFFCURVE",
"254 30 CURVE SMOOTH",
"128 30 LINE",
"128 559 LINE SMOOTH",
"128 585 OFFCURVE",
"138 600 OFFCURVE",
"164 600 CURVE SMOOTH",
"218 600 LINE",
"218 630 LINE",
"16 630 LINE",
"16 600 LINE",
"39 600 LINE SMOOTH",
"72 600 OFFCURVE",
"85 585 OFFCURVE",
"85 558 CURVE SMOOTH",
"85 71 LINE SMOOTH",
"85 45 OFFCURVE",
"71 30 OFFCURVE",
"40 30 CURVE SMOOTH",
"13 30 LINE"
);
}
);
width = 378;
},
{
layerId = "B25F85BC-C782-4067-8484-07202F80B8CD";
name = Condensed;
paths = (
{
closed = 1;
nodes = (
"15 0 LINE",
"471 0 LINE",
"471 297 LINE",
"352 297 LINE",
"352 112 OFFCURVE",
"339 90 OFFCURVE",
"292 90 CURVE SMOOTH",
"215 90 LINE",
"215 510 LINE SMOOTH",
"215 527 OFFCURVE",
"222 540 OFFCURVE",
"241 540 CURVE SMOOTH",
"283 540 LINE",
"283 630 LINE",
"15 630 LINE",
"15 540 LINE",
"51 540 LINE SMOOTH",
"71 540 OFFCURVE",
"77 529 OFFCURVE",
"77 504 CURVE SMOOTH",
"77 123 LINE SMOOTH",
"77 102 OFFCURVE",
"71 90 OFFCURVE",
"52 90 CURVE SMOOTH",
"15 90 LINE"
);
}
);
width = 501;
},
{
background = {
paths = (
{
closed = 1;
nodes = (
"7 0 LINE",
"444 0 LINE",
"444 313 LINE",
"293 313 LINE",
"293 130 OFFCURVE",
"281 108 OFFCURVE",
"254 108 CURVE SMOOTH",
"231 108 LINE",
"231 490 LINE SMOOTH",
"231 510 OFFCURVE",
"240 522 OFFCURVE",
"263 522 CURVE SMOOTH",
"296 522 LINE",
"296 630 LINE",
"7 630 LINE",
"7 522 LINE",
"25 522 LINE SMOOTH",
"45 522 OFFCURVE",
"51 511 OFFCURVE",
"51 486 CURVE SMOOTH",
"51 141 LINE SMOOTH",
"51 120 OFFCURVE",
"44 108 OFFCURVE",
"26 108 CURVE SMOOTH",
"7 108 LINE"
);
}
);
};
layerId = "B817C739-5D48-43E8-AAEE-CE891513D7BC";
name = "Bold Condensed";
paths = (
{
closed = 1;
nodes = (
"7 0 LINE",
"429 0 LINE",
"429 302 LINE",
"278 302 LINE",
"278 119 OFFCURVE",
"271 108 OFFCURVE",
"249 108 CURVE SMOOTH",
"231 108 LINE",
"231 490 LINE SMOOTH",
"231 510 OFFCURVE",
"240 522 OFFCURVE",
"263 522 CURVE SMOOTH",
"296 522 LINE",
"296 630 LINE",
"7 630 LINE",
"7 522 LINE",
"25 522 LINE SMOOTH",
"45 522 OFFCURVE",
"51 511 OFFCURVE",
"51 486 CURVE SMOOTH",
"51 141 LINE SMOOTH",
"51 120 OFFCURVE",
"44 108 OFFCURVE",
"26 108 CURVE SMOOTH",
"7 108 LINE"
);
}
);
width = 439;
},
{
background = {
paths = (
{
closed = 1;
nodes = (
"31 0 LINE",
"593 0 LINE",
"593 249 LINE",
"561 249 LINE",
"561 78 OFFCURVE",
"556 36 OFFCURVE",
"499 36 CURVE SMOOTH",
"178 36 LINE",
"178 562 LINE SMOOTH",
"178 583 OFFCURVE",
"185 594 OFFCURVE",
"205 594 CURVE SMOOTH",
"298 594 LINE",
"298 630 LINE",
"30 630 LINE",
"30 594 LINE",
"104 594 LINE SMOOTH",
"123 594 OFFCURVE",
"130 583 OFFCURVE",
"130 562 CURVE SMOOTH",
"130 67 LINE SMOOTH",
"130 47 OFFCURVE",
"122 36 OFFCURVE",
"105 36 CURVE SMOOTH",
"31 36 LINE"
);
}
);
};
layerId = UUID0;
name = "Light Extended";
paths = (
{
closed = 1;
nodes = (
"21 0 LINE",
"573 0 LINE",
"573 249 LINE",
"541 249 LINE",
"541 78 OFFCURVE",
"536 36 OFFCURVE",
"479 36 CURVE SMOOTH",
"178 36 LINE",
"178 562 LINE SMOOTH",
"178 583 OFFCURVE",
"185 594 OFFCURVE",
"205 594 CURVE SMOOTH",
"318 594 LINE",
"318 630 LINE",
"20 630 LINE",
"20 594 LINE",
"104 594 LINE SMOOTH",
"123 594 OFFCURVE",
"130 583 OFFCURVE",
"130 562 CURVE SMOOTH",
"130 67 LINE SMOOTH",
"130 47 OFFCURVE",
"122 36 OFFCURVE",
"105 36 CURVE SMOOTH",
"21 36 LINE"
);
}
);
width = 623;
},
{
background = {
paths = (
{
closed = 1;
nodes = (
"22 0 LINE",
"679 0 LINE",
"679 297 LINE",
"561 297 LINE",
"561 132 OFFCURVE",
"540 90 OFFCURVE",
"463 90 CURVE SMOOTH",
"262 90 LINE",
"262 504 LINE SMOOTH",
"262 531 OFFCURVE",
"268 540 OFFCURVE",
"289 540 CURVE SMOOTH",
"380 540 LINE",
"380 630 LINE",
"22 630 LINE",
"22 540 LINE",
"98 540 LINE SMOOTH",
"118 540 OFFCURVE",
"124 529 OFFCURVE",
"124 504 CURVE SMOOTH",
"124 123 LINE SMOOTH",
"124 102 OFFCURVE",
"118 90 OFFCURVE",
"99 90 CURVE SMOOTH",
"22 90 LINE"
);
}
);
};
layerId = "4355E1B8-19E6-44BD-A1D7-6E3C2DECA4C8";
name = Extended;
paths = (
{
closed = 1;
nodes = (
"22 0 LINE",
"651 0 LINE",
"651 297 LINE",
"533 297 LINE",
"533 132 OFFCURVE",
"512 90 OFFCURVE",
"435 90 CURVE SMOOTH",
"262 90 LINE",
"262 504 LINE SMOOTH",
"262 531 OFFCURVE",
"268 540 OFFCURVE",
"289 540 CURVE SMOOTH",
"380 540 LINE",
"380 630 LINE",
"22 630 LINE",
"22 540 LINE",
"98 540 LINE SMOOTH",
"118 540 OFFCURVE",
"124 529 OFFCURVE",
"124 504 CURVE SMOOTH",
"124 123 LINE SMOOTH",
"124 102 OFFCURVE",
"118 90 OFFCURVE",
"99 90 CURVE SMOOTH",
"22 90 LINE"
);
}
);
width = 671;
},
{
background = {
paths = (
{
closed = 1;
nodes = (
"17 0 LINE",
"700 0 LINE",
"700 302 LINE",
"490 302 LINE",
"490 167 OFFCURVE",
"468 152 OFFCURVE",
"422 152 CURVE SMOOTH",
"356 152 LINE",
"356 448 LINE SMOOTH",
"356 467 OFFCURVE",
"363 478 OFFCURVE",
"382 478 CURVE SMOOTH",
"466 478 LINE",
"466 630 LINE",
"17 630 LINE",
"17 478 LINE",
"80 478 LINE SMOOTH",
"100 478 OFFCURVE",
"106 467 OFFCURVE",
"106 442 CURVE SMOOTH",
"106 185 LINE SMOOTH",
"106 164 OFFCURVE",
"100 152 OFFCURVE",
"81 152 CURVE SMOOTH",
"17 152 LINE"
);
}
);
};
layerId = "14C77FDB-037D-4842-9381-6D9ED15DD48C";
name = "Bold Extended";
paths = (
{
closed = 1;
nodes = (
"17 0 LINE",
"670 0 LINE",
"670 302 LINE",
"470 302 LINE",
"470 167 OFFCURVE",
"448 152 OFFCURVE",
"402 152 CURVE SMOOTH",
"356 152 LINE",
"356 448 LINE SMOOTH",
"356 467 OFFCURVE",
"363 478 OFFCURVE",
"382 478 CURVE SMOOTH",
"466 478 LINE",
"466 630 LINE",
"17 630 LINE",
"17 478 LINE",
"80 478 LINE SMOOTH",
"100 478 OFFCURVE",
"106 467 OFFCURVE",
"106 442 CURVE SMOOTH",
"106 185 LINE SMOOTH",
"106 164 OFFCURVE",
"100 152 OFFCURVE",
"81 152 CURVE SMOOTH",
"17 152 LINE"
);
}
);
width = 685;
}
);
leftMetricsKey = H;
unicode = 004C;
},
{
color = 6;
glyphname = M;
lastChange = "2015-05-08 17:24:40 +0000";
layers = (
{
background = {
paths = (
{
closed = 1;
nodes = (
"30 0 LINE",
"201 0 LINE",
"201 30 LINE",
"172 30 LINE SMOOTH",
"148 30 OFFCURVE",
"137 45 OFFCURVE",
"137 71 CURVE",
"137 630 LINE",
"30 630 LINE",
"30 600 LINE",
"66 600 LINE SMOOTH",
"92 600 OFFCURVE",
"102 585 OFFCURVE",
"102 558 CURVE SMOOTH",
"102 71 LINE SMOOTH",
"102 45 OFFCURVE",
"91 30 OFFCURVE",
"67 30 CURVE SMOOTH",
"30 30 LINE"
);
},
{
closed = 1;
nodes = (
"345 0 LINE",
"530 0 LINE",
"530 30 LINE",
"494 30 LINE SMOOTH",
"470 30 OFFCURVE",
"459 45 OFFCURVE",
"459 71 CURVE SMOOTH",
"459 558 LINE SMOOTH",
"459 585 OFFCURVE",
"469 600 OFFCURVE",
"495 600 CURVE SMOOTH",
"530 600 LINE",
"530 630 LINE",
"417 630 LINE",
"417 71 LINE",
"417 45 OFFCURVE",
"406 30 OFFCURVE",
"382 30 CURVE SMOOTH",
"345 30 LINE"
);
},
{
closed = 1;
nodes = (
"132 630 LINE",
"136 577 LINE",
"141 577 LINE",
"240 0 LINE",
"300 0 LINE",
"413 577 LINE",
"418 577 LINE",
"425 630 LINE",
"386 630 LINE",
"277 64 LINE",
"272 64 LINE",
"177 630 LINE"
);
}
);
};
guideLines = (
{
position = "{305, 612}";
}
);
layerId = "E9E6D55E-9446-45F2-B66C-3272698B0216";
name = "Light Condensed";
paths = (
{
closed = 1;
nodes = (
"15 0 LINE",
"186 0 LINE",
"186 30 LINE",
"157 30 LINE SMOOTH",
"134 30 OFFCURVE",
"122 44 OFFCURVE",
"122 71 CURVE",
"122 630 LINE",
"15 630 LINE",
"15 600 LINE",
"51 600 LINE SMOOTH",
"76 600 OFFCURVE",
"87 587 OFFCURVE",
"87 558 CURVE SMOOTH",
"87 71 LINE SMOOTH",
"87 44 OFFCURVE",
"75 30 OFFCURVE",
"52 30 CURVE SMOOTH",
"15 30 LINE"
);
},
{
closed = 1;
nodes = (
"360 0 LINE",
"545 0 LINE",
"545 30 LINE",
"509 30 LINE SMOOTH",
"486 30 OFFCURVE",
"474 44 OFFCURVE",
"474 71 CURVE SMOOTH",
"474 558 LINE SMOOTH",
"474 587 OFFCURVE",
"485 600 OFFCURVE",
"510 600 CURVE SMOOTH",
"545 600 LINE",
"545 630 LINE",
"432 630 LINE",
"432 71 LINE",
"432 44 OFFCURVE",
"420 30 OFFCURVE",
"397 30 CURVE SMOOTH",
"360 30 LINE"
);
},
{
closed = 1;
nodes = (
"117 630 LINE",
"121 577 LINE",
"126 577 LINE",
"243 0 LINE",
"297 0 LINE",
"428 577 LINE",
"433 577 LINE",
"440 630 LINE",
"403 630 LINE",
"277 64 LINE",
"272 64 LINE",
"160 630 LINE"
);
}
);
width = 560;
},
{
background = {
paths = (
{
closed = 1;
nodes = (
"15 0 LINE",
"215 0 LINE",
"215 90 LINE",
"200 90 LINE SMOOTH",
"183 90 OFFCURVE",
"177 103 OFFCURVE",
"177 122 CURVE SMOOTH",
"177 630 LINE",
"15 630 LINE",
"15 540 LINE",
"50 540 LINE SMOOTH",
"71 540 OFFCURVE",
"77 527 OFFCURVE",
"77 508 CURVE SMOOTH",
"77 122 LINE SMOOTH",
"77 103 OFFCURVE",
"71 90 OFFCURVE",
"50 90 CURVE SMOOTH",
"15 90 LINE"
);
},
{
closed = 1;
nodes = (
"509 0 LINE",
"757 0 LINE",
"757 90 LINE",
"712 90 LINE SMOOTH",
"695 90 OFFCURVE",
"689 103 OFFCURVE",
"689 122 CURVE SMOOTH",
"689 508 LINE SMOOTH",
"689 527 OFFCURVE",
"695 540 OFFCURVE",
"712 540 CURVE SMOOTH",
"757 540 LINE",
"757 630 LINE",
"551 630 LINE",
"551 122 LINE SMOOTH",
"551 103 OFFCURVE",
"545 90 OFFCURVE",
"524 90 CURVE SMOOTH",
"509 90 LINE"
);
},
{
closed = 1;
nodes = (
"158 630 LINE",
"175 508 LINE",
"181 508 LINE",
"271 0 LINE",
"451 0 LINE",
"547 508 LINE",
"552 508 LINE",
"571 630 LINE",
"456 630 LINE",
"381 126 LINE",
"377 126 LINE",
"298 630 LINE"
);
}
);
};
guideLines = (
{
position = "{368, 543}";
}
);
layerId = "B25F85BC-C782-4067-8484-07202F80B8CD";
name = Condensed;
paths = (
{
closed = 1;
nodes = (
"15 0 LINE",
"205 0 LINE",
"205 90 LINE",
"190 90 LINE SMOOTH",
"173 90 OFFCURVE",
"167 103 OFFCURVE",
"167 122 CURVE SMOOTH",
"167 630 LINE",
"15 630 LINE",
"15 540 LINE",
"40 540 LINE SMOOTH",
"61 540 OFFCURVE",
"67 527 OFFCURVE",
"67 508 CURVE SMOOTH",
"67 122 LINE SMOOTH",
"67 103 OFFCURVE",
"61 90 OFFCURVE",
"40 90 CURVE SMOOTH",
"15 90 LINE"
);
},
{
closed = 1;
nodes = (
"459 0 LINE",
"707 0 LINE",
"707 90 LINE",
"662 90 LINE SMOOTH",
"645 90 OFFCURVE",
"639 103 OFFCURVE",
"639 122 CURVE SMOOTH",
"639 508 LINE SMOOTH",
"639 527 OFFCURVE",
"645 540 OFFCURVE",
"662 540 CURVE SMOOTH",
"707 540 LINE",
"707 630 LINE",
"501 630 LINE",
"501 122 LINE SMOOTH",
"501 103 OFFCURVE",
"495 90 OFFCURVE",
"474 90 CURVE SMOOTH",
"459 90 LINE"
);
},
{
closed = 1;
nodes = (
"148 630 LINE",
"165 508 LINE",
"171 508 LINE",
"256 0 LINE",
"416 0 LINE",
"497 508 LINE",
"502 508 LINE",
"521 630 LINE",
"426 630 LINE",
"351 126 LINE",
"347 126 LINE",
"268 630 LINE"
);
}
);
width = 722;
},
{
background = {
paths = (
{
closed = 1;
nodes = (
"-35 0 LINE",
"168 0 LINE",
"168 108 LINE",
"161 108 LINE SMOOTH",
"152 108 OFFCURVE",
"148 111 OFFCURVE",
"148 121 CURVE SMOOTH",
"148 630 LINE",
"-35 630 LINE",
"-35 522 LINE",
"-17 522 LINE SMOOTH",
"2 522 OFFCURVE",
"9 511 OFFCURVE",
"9 490 CURVE SMOOTH",
"9 139 LINE SMOOTH",
"9 119 OFFCURVE",
"1 108 OFFCURVE",
"-16 108 CURVE SMOOTH",
"-35 108 LINE"
);
},
{
closed = 1;
nodes = (
"464 0 LINE",
"708 0 LINE",
"708 108 LINE",
"689 108 LINE SMOOTH",
"672 108 OFFCURVE",
"664 119 OFFCURVE",
"664 139 CURVE SMOOTH",
"664 490 LINE SMOOTH",
"664 511 OFFCURVE",
"671 522 OFFCURVE",
"690 522 CURVE SMOOTH",
"708 522 LINE",
"708 630 LINE",
"484 630 LINE",
"484 121 LINE SMOOTH",
"484 111 OFFCURVE",
"480 108 OFFCURVE",
"471 108 CURVE SMOOTH",
"464 108 LINE"
);
},
{
closed = 1;
nodes = (
"127 630 LINE",
"147 482 LINE",
"152 482 LINE",
"220 0 LINE",
"408 0 LINE",
"480 482 LINE",
"485 482 LINE",
"511 630 LINE",
"383 630 LINE",
"340 230 LINE",
"335 230 LINE",
"292 630 LINE"
);
}
);
};
guideLines = (
{
position = "{322, 517}";
}
);
layerId = "B817C739-5D48-43E8-AAEE-CE891513D7BC";
name = "Bold Condensed";
paths = (
{
closed = 1;
nodes = (
"5 0 LINE",
"208 0 LINE",
"208 108 LINE",
"191 108 LINE SMOOTH",
"182 108 OFFCURVE",
"178 111 OFFCURVE",
"178 121 CURVE SMOOTH",
"178 630 LINE",
"5 630 LINE",
"5 522 LINE",
"23 522 LINE SMOOTH",
"42 522 OFFCURVE",
"49 511 OFFCURVE",
"49 490 CURVE SMOOTH",
"49 139 LINE SMOOTH",
"49 119 OFFCURVE",
"41 108 OFFCURVE",
"24 108 CURVE SMOOTH",
"5 108 LINE"
);
},
{
closed = 1;
nodes = (
"429 0 LINE",
"673 0 LINE",
"673 108 LINE",
"654 108 LINE SMOOTH",
"637 108 OFFCURVE",
"629 119 OFFCURVE",
"629 139 CURVE SMOOTH",
"629 490 LINE SMOOTH",
"629 511 OFFCURVE",
"636 522 OFFCURVE",
"655 522 CURVE SMOOTH",
"673 522 LINE",
"673 630 LINE",
"459 630 LINE",
"459 121 LINE SMOOTH",
"459 111 OFFCURVE",
"455 108 OFFCURVE",
"446 108 CURVE SMOOTH",
"429 108 LINE"
);
},
{
closed = 1;
nodes = (
"157 630 LINE",
"177 482 LINE",
"182 482 LINE",
"245 0 LINE",
"388 0 LINE",
"455 482 LINE",
"460 482 LINE",
"486 630 LINE",
"378 630 LINE",
"340 250 LINE",
"335 250 LINE",
"297 630 LINE"
);
}
);
width = 678;
},
{
background = {
paths = (
{
closed = 1;
nodes = (
"41 0 LINE",
"274 0 LINE",
"274 36 LINE",
"198 36 LINE SMOOTH",
"181 36 OFFCURVE",
"175 49 OFFCURVE",
"175 68 CURVE SMOOTH",
"175 630 LINE",
"40 630 LINE",
"40 594 LINE",
"113 594 LINE SMOOTH",
"134 594 OFFCURVE",
"140 581 OFFCURVE",
"140 562 CURVE SMOOTH",
"140 68 LINE SMOOTH",
"140 49 OFFCURVE",
"134 36 OFFCURVE",
"113 36 CURVE SMOOTH",
"41 36 LINE"
);
},
{
closed = 1;
nodes = (
"562 0 LINE",
"808 0 LINE",
"808 36 LINE",
"732 36 LINE SMOOTH",
"715 36 OFFCURVE",
"709 49 OFFCURVE",
"709 68 CURVE SMOOTH",
"709 562 LINE SMOOTH",
"709 581 OFFCURVE",
"715 594 OFFCURVE",
"732 594 CURVE SMOOTH",
"809 594 LINE",
"809 630 LINE",
"661 630 LINE",
"661 68 LINE SMOOTH",
"661 49 OFFCURVE",
"655 36 OFFCURVE",
"634 36 CURVE SMOOTH",
"562 36 LINE"
);
},
{
closed = 1;
nodes = (
"152 630 LINE",
"174 558 LINE",
"179 558 LINE",
"384 0 LINE",
"448 0 LINE",
"657 558 LINE",
"662 558 LINE",
"689 630 LINE",
"645 630 LINE",
"423 47 LINE",
"419 47 LINE",
"207 630 LINE"
);
}
);
};
guideLines = (
{
position = "{405, 593}";
}
);
layerId = UUID0;
name = "Light Extended";
paths = (
{
closed = 1;
nodes = (
"11 0 LINE",
"264 0 LINE",
"264 36 LINE",
"178 36 LINE SMOOTH",
"161 36 OFFCURVE",
"155 49 OFFCURVE",
"155 68 CURVE SMOOTH",
"155 630 LINE",
"10 630 LINE",
"10 594 LINE",
"93 594 LINE SMOOTH",
"114 594 OFFCURVE",
"120 581 OFFCURVE",
"120 562 CURVE SMOOTH",
"120 68 LINE SMOOTH",
"120 49 OFFCURVE",
"114 36 OFFCURVE",
"93 36 CURVE SMOOTH",
"11 36 LINE"
);
},
{
closed = 1;
nodes = (
"632 0 LINE",
"898 0 LINE",
"898 36 LINE",
"812 36 LINE SMOOTH",
"795 36 OFFCURVE",
"789 49 OFFCURVE",
"789 68 CURVE SMOOTH",
"789 562 LINE SMOOTH",
"789 581 OFFCURVE",
"795 594 OFFCURVE",
"812 594 CURVE SMOOTH",
"899 594 LINE",
"899 630 LINE",
"741 630 LINE",
"741 68 LINE SMOOTH",
"741 49 OFFCURVE",
"735 36 OFFCURVE",
"714 36 CURVE SMOOTH",
"632 36 LINE"
);
},
{
closed = 1;
nodes = (
"132 630 LINE",
"154 558 LINE",
"159 558 LINE",
"419 0 LINE",
"473 0 LINE",
"737 558 LINE",
"742 558 LINE",
"769 630 LINE",
"728 630 LINE",
"453 47 LINE",
"449 47 LINE",
"182 630 LINE"
);
}
);
width = 909;
},
{
guideLines = (
{
position = "{526, 536}";
}
);
layerId = "4355E1B8-19E6-44BD-A1D7-6E3C2DECA4C8";
name = Extended;
paths = (
{
closed = 1;
nodes = (
"22 0 LINE",
"322 0 LINE",
"322 90 LINE",
"247 90 LINE SMOOTH",
"230 90 OFFCURVE",
"224 103 OFFCURVE",
"224 122 CURVE SMOOTH",
"224 630 LINE",
"22 630 LINE",
"22 540 LINE",
"97 540 LINE SMOOTH",
"118 540 OFFCURVE",
"124 527 OFFCURVE",
"124 508 CURVE SMOOTH",
"124 122 LINE SMOOTH",
"124 103 OFFCURVE",
"118 90 OFFCURVE",
"97 90 CURVE SMOOTH",
"22 90 LINE"
);
},
{
closed = 1;
nodes = (
"674 0 LINE",
"1012 0 LINE",
"1012 90 LINE",
"937 90 LINE SMOOTH",
"920 90 OFFCURVE",
"914 103 OFFCURVE",
"914 122 CURVE SMOOTH",
"914 508 LINE SMOOTH",
"914 527 OFFCURVE",
"920 540 OFFCURVE",
"937 540 CURVE SMOOTH",
"1012 540 LINE",
"1012 630 LINE",
"776 630 LINE",
"776 122 LINE SMOOTH",
"776 103 OFFCURVE",
"770 90 OFFCURVE",
"749 90 CURVE SMOOTH",
"674 90 LINE"
);
},
{
closed = 1;
nodes = (
"172 630 LINE",
"223 501 LINE",
"228 501 LINE",
"418 0 LINE",
"578 0 LINE",
"772 501 LINE",
"778 501 LINE",
"833 630 LINE",
"721 630 LINE",
"522 121 LINE",
"517 121 LINE",
"328 630 LINE"
);
}
);
width = 1034;
},
{
background = {
paths = (
{
closed = 1;
nodes = (
"-15 0 LINE",
"274 0 LINE",
"274 152 LINE",
"257 152 LINE SMOOTH",
"240 152 OFFCURVE",
"234 165 OFFCURVE",
"234 184 CURVE SMOOTH",
"234 630 LINE",
"-15 630 LINE",
"-15 478 LINE",
"47 478 LINE SMOOTH",
"68 478 OFFCURVE",
"74 465 OFFCURVE",
"74 446 CURVE SMOOTH",
"74 184 LINE SMOOTH",
"74 165 OFFCURVE",
"68 152 OFFCURVE",
"47 152 CURVE SMOOTH",
"-15 152 LINE"
);
},
{
closed = 1;
nodes = (
"708 0 LINE",
"1087 0 LINE",
"1087 152 LINE",
"1025 152 LINE SMOOTH",
"1004 152 OFFCURVE",
"998 165 OFFCURVE",
"998 184 CURVE SMOOTH",
"998 446 LINE SMOOTH",
"998 465 OFFCURVE",
"1004 478 OFFCURVE",
"1025 478 CURVE SMOOTH",
"1087 478 LINE",
"1087 630 LINE",
"748 630 LINE",
"748 184 LINE",
"748 165 OFFCURVE",
"742 152 OFFCURVE",
"725 152 CURVE SMOOTH",
"708 152 LINE"
);
},
{
closed = 1;
nodes = (
"196 630 LINE",
"233 455 LINE",
"238 455 LINE",
"352 0 LINE",
"618 0 LINE",
"744 455 LINE",
"749 455 LINE",
"788 630 LINE",
"623 630 LINE",
"518 186 LINE",
"514 186 LINE",
"427 630 LINE"
);
}
);
};
layerId = "14C77FDB-037D-4842-9381-6D9ED15DD48C";
name = "Bold Extended";
paths = (
{
closed = 1;
nodes = (
"15 0 LINE",
"304 0 LINE",
"304 152 LINE",
"287 152 LINE SMOOTH",
"270 152 OFFCURVE",
"264 165 OFFCURVE",
"264 184 CURVE SMOOTH",
"264 630 LINE",
"15 630 LINE",
"15 478 LINE",
"77 478 LINE SMOOTH",
"98 478 OFFCURVE",
"104 465 OFFCURVE",
"104 446 CURVE SMOOTH",
"104 184 LINE SMOOTH",
"104 165 OFFCURVE",
"98 152 OFFCURVE",
"77 152 CURVE SMOOTH",
"15 152 LINE"
);
},
{
closed = 1;
nodes = (
"678 0 LINE",
"1057 0 LINE",
"1057 152 LINE",
"995 152 LINE SMOOTH",
"974 152 OFFCURVE",
"968 165 OFFCURVE",
"968 184 CURVE SMOOTH",
"968 446 LINE SMOOTH",
"968 465 OFFCURVE",
"974 478 OFFCURVE",
"995 478 CURVE SMOOTH",
"1057 478 LINE",
"1057 630 LINE",
"718 630 LINE",
"718 184 LINE SMOOTH",
"718 165 OFFCURVE",
"712 152 OFFCURVE",
"695 152 CURVE SMOOTH",
"678 152 LINE"
);
},
{
closed = 1;
nodes = (
"226 630 LINE",
"263 475 LINE",
"268 475 LINE",
"362 0 LINE",
"618 0 LINE",
"714 475 LINE",
"719 475 LINE",
"758 630 LINE",
"593 630 LINE",
"518 206 LINE",
"514 206 LINE",
"457 630 LINE"
);
}
);
width = 1072;
}
);
unicode = 004D;
},
{
color = 6;
glyphname = N;
lastChange = "2015-05-08 17:26:04 +0000";
layers = (
{
background = {
paths = (
{
closed = 1;
nodes = (
"13 0 LINE",
"193 0 LINE",
"193 30 LINE",
"156 30 LINE SMOOTH",
"132 30 OFFCURVE",
"121 45 OFFCURVE",
"121 71 CURVE SMOOTH",
"121 568 LINE",
"125 568 LINE",
"368 0 LINE",
"403 0 LINE",
"403 558 LINE SMOOTH",
"403 585 OFFCURVE",
"413 600 OFFCURVE",
"439 600 CURVE SMOOTH",
"474 600 LINE",
"474 630 LINE",
"295 630 LINE",
"295 600 LINE",
"331 600 LINE SMOOTH",
"357 600 OFFCURVE",
"367 585 OFFCURVE",
"367 558 CURVE SMOOTH",
"367 128 LINE",
"363 128 LINE",
"149 630 LINE",
"13 630 LINE",
"13 600 LINE",
"49 600 LINE SMOOTH",
"75 600 OFFCURVE",
"85 585 OFFCURVE",
"85 558 CURVE SMOOTH",
"85 71 LINE SMOOTH",
"85 45 OFFCURVE",
"74 30 OFFCURVE",
"50 30 CURVE SMOOTH",
"13 30 LINE"
);
}
);
};
layerId = "E9E6D55E-9446-45F2-B66C-3272698B0216";
name = "Light Condensed";
paths = (
{
closed = 1;
nodes = (
"13 0 LINE",
"193 0 LINE",
"193 30 LINE",
"156 30 LINE SMOOTH",
"132 30 OFFCURVE",
"121 45 OFFCURVE",
"121 71 CURVE SMOOTH",
"121 568 LINE",
"125 568 LINE",
"363 0 LINE",
"398 0 LINE",
"398 558 LINE SMOOTH",
"398 585 OFFCURVE",
"408 600 OFFCURVE",
"434 600 CURVE SMOOTH",
"469 600 LINE",
"469 630 LINE",
"290 630 LINE",
"290 600 LINE",
"326 600 LINE SMOOTH",
"352 600 OFFCURVE",
"362 585 OFFCURVE",
"362 558 CURVE SMOOTH",
"362 128 LINE",
"358 128 LINE",
"149 630 LINE",
"13 630 LINE",
"13 600 LINE",
"49 600 LINE SMOOTH",
"75 600 OFFCURVE",
"85 585 OFFCURVE",
"85 558 CURVE SMOOTH",
"85 71 LINE SMOOTH",
"85 45 OFFCURVE",
"74 30 OFFCURVE",
"50 30 CURVE SMOOTH",
"13 30 LINE"
);
}
);
width = 482;
},
{
background = {
paths = (
{
closed = 1;
nodes = (
"15 0 LINE",
"238 0 LINE",
"238 90 LINE",
"223 90 LINE SMOOTH",
"206 90 OFFCURVE",
"200 103 OFFCURVE",
"200 122 CURVE SMOOTH",
"200 402 LINE",
"204 402 LINE",
"299 0 LINE",
"481 0 LINE",
"481 508 LINE SMOOTH",
"481 527 OFFCURVE",
"487 540 OFFCURVE",
"508 540 CURVE SMOOTH",
"549 540 LINE",
"549 630 LINE",
"306 630 LINE",
"306 540 LINE",
"335 540 LINE SMOOTH",
"352 540 OFFCURVE",
"358 527 OFFCURVE",
"358 508 CURVE SMOOTH",
"358 218 LINE",
"354 218 LINE",
"259 630 LINE",
"15 630 LINE",
"15 540 LINE",
"50 540 LINE SMOOTH",
"71 540 OFFCURVE",
"77 527 OFFCURVE",
"77 508 CURVE SMOOTH",
"77 122 LINE SMOOTH",
"77 103 OFFCURVE",
"71 90 OFFCURVE",
"50 90 CURVE SMOOTH",
"15 90 LINE"
);
}
);
};
layerId = "B25F85BC-C782-4067-8484-07202F80B8CD";
name = Condensed;
paths = (
{
closed = 1;
nodes = (
"15 0 LINE",
"233 0 LINE",
"233 90 LINE",
"218 90 LINE SMOOTH",
"201 90 OFFCURVE",
"195 103 OFFCURVE",
"195 122 CURVE SMOOTH",
"195 432 LINE",
"199 432 LINE",
"309 0 LINE",
"481 0 LINE",
"481 508 LINE SMOOTH",
"481 527 OFFCURVE",
"487 540 OFFCURVE",
"508 540 CURVE SMOOTH",
"549 540 LINE",
"549 630 LINE",
"311 630 LINE",
"311 540 LINE",
"340 540 LINE SMOOTH",
"357 540 OFFCURVE",
"363 527 OFFCURVE",
"363 508 CURVE SMOOTH",
"363 188 LINE",
"359 188 LINE",
"249 630 LINE",
"15 630 LINE",
"15 540 LINE",
"50 540 LINE SMOOTH",
"71 540 OFFCURVE",
"77 527 OFFCURVE",
"77 508 CURVE SMOOTH",
"77 122 LINE SMOOTH",
"77 103 OFFCURVE",
"71 90 OFFCURVE",
"50 90 CURVE SMOOTH",
"15 90 LINE"
);
}
);
width = 564;
},
{
background = {
paths = (
{
closed = 1;
nodes = (
"7 0 LINE",
"261 0 LINE",
"261 108 LINE",
"234 108 LINE SMOOTH",
"225 108 OFFCURVE",
"221 111 OFFCURVE",
"221 121 CURVE SMOOTH",
"221 280 LINE",
"225 280 LINE",
"326 0 LINE",
"465 0 LINE",
"465 490 LINE SMOOTH",
"465 511 OFFCURVE",
"472 522 OFFCURVE",
"491 522 CURVE SMOOTH",
"509 522 LINE",
"509 630 LINE",
"255 630 LINE",
"255 522 LINE",
"282 522 LINE SMOOTH",
"292 522 OFFCURVE",
"295 517 OFFCURVE",
"295 509 CURVE SMOOTH",
"295 350 LINE",
"291 350 LINE",
"196 630 LINE",
"7 630 LINE",
"7 522 LINE",
"25 522 LINE SMOOTH",
"44 522 OFFCURVE",
"51 511 OFFCURVE",
"51 490 CURVE SMOOTH",
"51 139 LINE SMOOTH",
"51 119 OFFCURVE",
"43 108 OFFCURVE",
"26 108 CURVE SMOOTH",
"7 108 LINE"
);
}
);
};
layerId = "B817C739-5D48-43E8-AAEE-CE891513D7BC";
name = "Bold Condensed";
paths = (
{
closed = 1;
nodes = (
"7 0 LINE",
"251 0 LINE",
"251 108 LINE",
"224 108 LINE SMOOTH",
"215 108 OFFCURVE",
"211 111 OFFCURVE",
"211 121 CURVE SMOOTH",
"211 300 LINE",
"215 300 LINE",
"316 0 LINE",
"465 0 LINE",
"465 490 LINE SMOOTH",
"465 511 OFFCURVE",
"472 522 OFFCURVE",
"491 522 CURVE SMOOTH",
"509 522 LINE",
"509 630 LINE",
"265 630 LINE",
"265 522 LINE",
"292 522 LINE SMOOTH",
"302 522 OFFCURVE",
"305 517 OFFCURVE",
"305 509 CURVE SMOOTH",
"305 330 LINE",
"301 330 LINE",
"206 630 LINE",
"7 630 LINE",
"7 522 LINE",
"25 522 LINE SMOOTH",
"44 522 OFFCURVE",
"51 511 OFFCURVE",
"51 490 CURVE SMOOTH",
"51 139 LINE SMOOTH",
"51 119 OFFCURVE",
"43 108 OFFCURVE",
"26 108 CURVE SMOOTH",
"7 108 LINE"
);
}
);
width = 516;
},
{
background = {
paths = (
{
closed = 1;
nodes = (
"21 0 LINE",
"287 0 LINE",
"287 36 LINE",
"201 36 LINE SMOOTH",
"184 36 OFFCURVE",
"178 49 OFFCURVE",
"178 68 CURVE SMOOTH",
"178 541 LINE",
"182 541 LINE",
"624 0 LINE",
"672 0 LINE",
"672 562 LINE SMOOTH",
"672 581 OFFCURVE",
"678 594 OFFCURVE",
"695 594 CURVE SMOOTH",
"782 594 LINE",
"782 630 LINE",
"514 630 LINE",
"514 594 LINE",
"597 594 LINE SMOOTH",
"618 594 OFFCURVE",
"624 581 OFFCURVE",
"624 562 CURVE SMOOTH",
"624 85 LINE",
"620 85 LINE",
"178 630 LINE",
"20 630 LINE",
"20 594 LINE",
"103 594 LINE SMOOTH",
"124 594 OFFCURVE",
"130 581 OFFCURVE",
"130 562 CURVE SMOOTH",
"130 68 LINE SMOOTH",
"130 49 OFFCURVE",
"124 36 OFFCURVE",
"103 36 CURVE SMOOTH",
"21 36 LINE"
);
}
);
};
layerId = UUID0;
name = "Light Extended";
paths = (
{
closed = 1;
nodes = (
"21 0 LINE",
"283 0 LINE",
"283 36 LINE",
"197 36 LINE SMOOTH",
"180 36 OFFCURVE",
"174 49 OFFCURVE",
"174 68 CURVE SMOOTH",
"174 541 LINE",
"178 541 LINE",
"618 0 LINE",
"662 0 LINE",
"662 562 LINE SMOOTH",
"662 581 OFFCURVE",
"668 594 OFFCURVE",
"685 594 CURVE SMOOTH",
"772 594 LINE",
"772 630 LINE",
"508 630 LINE",
"508 594 LINE",
"591 594 LINE SMOOTH",
"612 594 OFFCURVE",
"618 581 OFFCURVE",
"618 562 CURVE SMOOTH",
"618 85 LINE",
"614 85 LINE",
"174 630 LINE",
"20 630 LINE",
"20 594 LINE",
"103 594 LINE SMOOTH",
"124 594 OFFCURVE",
"130 581 OFFCURVE",
"130 562 CURVE SMOOTH",
"130 68 LINE SMOOTH",
"130 49 OFFCURVE",
"124 36 OFFCURVE",
"103 36 CURVE SMOOTH",
"21 36 LINE"
);
}
);
width = 792;
},
{
background = {
paths = (
{
closed = 1;
nodes = (
"22 0 LINE",
"360 0 LINE",
"360 90 LINE",
"285 90 LINE SMOOTH",
"268 90 OFFCURVE",
"262 103 OFFCURVE",
"262 122 CURVE SMOOTH",
"262 397 LINE",
"266 397 LINE",
"640 0 LINE",
"752 0 LINE",
"752 508 LINE SMOOTH",
"752 527 OFFCURVE",
"758 540 OFFCURVE",
"779 540 CURVE SMOOTH",
"850 540 LINE",
"850 630 LINE",
"512 630 LINE",
"512 540 LINE",
"591 540 LINE SMOOTH",
"608 540 OFFCURVE",
"614 527 OFFCURVE",
"614 508 CURVE SMOOTH",
"614 248 LINE",
"610 248 LINE",
"246 630 LINE",
"22 630 LINE",
"22 540 LINE",
"97 540 LINE SMOOTH",
"118 540 OFFCURVE",
"124 527 OFFCURVE",
"124 508 CURVE SMOOTH",
"124 122 LINE SMOOTH",
"124 103 OFFCURVE",
"118 90 OFFCURVE",
"97 90 CURVE SMOOTH",
"22 90 LINE"
);
}
);
};
layerId = "4355E1B8-19E6-44BD-A1D7-6E3C2DECA4C8";
name = Extended;
paths = (
{
closed = 1;
nodes = (
"22 0 LINE",
"350 0 LINE",
"350 90 LINE",
"275 90 LINE SMOOTH",
"258 90 OFFCURVE",
"252 103 OFFCURVE",
"252 122 CURVE SMOOTH",
"252 412 LINE",
"256 412 LINE",
"630 0 LINE",
"732 0 LINE",
"732 508 LINE SMOOTH",
"732 527 OFFCURVE",
"738 540 OFFCURVE",
"759 540 CURVE SMOOTH",
"830 540 LINE",
"830 630 LINE",
"502 630 LINE",
"502 540 LINE",
"581 540 LINE SMOOTH",
"598 540 OFFCURVE",
"604 527 OFFCURVE",
"604 508 CURVE SMOOTH",
"604 233 LINE",
"600 233 LINE",
"236 630 LINE",
"22 630 LINE",
"22 540 LINE",
"97 540 LINE SMOOTH",
"118 540 OFFCURVE",
"124 527 OFFCURVE",
"124 508 CURVE SMOOTH",
"124 122 LINE SMOOTH",
"124 103 OFFCURVE",
"118 90 OFFCURVE",
"97 90 CURVE SMOOTH",
"22 90 LINE"
);
}
);
width = 852;
},
{
background = {
paths = (
{
closed = 1;
nodes = (
"17 0 LINE",
"426 0 LINE",
"426 152 LINE",
"379 152 LINE SMOOTH",
"362 152 OFFCURVE",
"356 165 OFFCURVE",
"356 184 CURVE SMOOTH",
"356 265 LINE",
"360 265 LINE",
"590 0 LINE",
"790 0 LINE",
"790 446 LINE SMOOTH",
"790 465 OFFCURVE",
"796 478 OFFCURVE",
"817 478 CURVE SMOOTH",
"879 478 LINE",
"879 630 LINE",
"470 630 LINE",
"470 478 LINE",
"517 478 LINE SMOOTH",
"534 478 OFFCURVE",
"540 465 OFFCURVE",
"540 446 CURVE SMOOTH",
"540 361 LINE",
"536 361 LINE",
"306 630 LINE",
"17 630 LINE",
"17 478 LINE",
"79 478 LINE SMOOTH",
"100 478 OFFCURVE",
"106 465 OFFCURVE",
"106 446 CURVE SMOOTH",
"106 184 LINE SMOOTH",
"106 165 OFFCURVE",
"100 152 OFFCURVE",
"79 152 CURVE SMOOTH",
"17 152 LINE"
);
}
);
};
layerId = "14C77FDB-037D-4842-9381-6D9ED15DD48C";
name = "Bold Extended";
paths = (
{
closed = 1;
nodes = (
"17 0 LINE",
"416 0 LINE",
"416 152 LINE",
"369 152 LINE SMOOTH",
"352 152 OFFCURVE",
"346 165 OFFCURVE",
"346 184 CURVE SMOOTH",
"346 285 LINE",
"350 285 LINE",
"570 0 LINE",
"770 0 LINE",
"770 446 LINE SMOOTH",
"770 465 OFFCURVE",
"776 478 OFFCURVE",
"797 478 CURVE SMOOTH",
"859 478 LINE",
"859 630 LINE",
"460 630 LINE",
"460 478 LINE",
"507 478 LINE SMOOTH",
"524 478 OFFCURVE",
"530 465 OFFCURVE",
"530 446 CURVE SMOOTH",
"530 341 LINE",
"526 341 LINE",
"296 630 LINE",
"17 630 LINE",
"17 478 LINE",
"79 478 LINE SMOOTH",
"100 478 OFFCURVE",
"106 465 OFFCURVE",
"106 446 CURVE SMOOTH",
"106 184 LINE SMOOTH",
"106 165 OFFCURVE",
"100 152 OFFCURVE",
"79 152 CURVE SMOOTH",
"17 152 LINE"
);
}
);
width = 876;
}
);
leftMetricsKey = H;
unicode = 004E;
},
{
color = 6;
glyphname = Eng;
lastChange = "2015-05-08 17:11:02 +0000";
layers = (
{
layerId = "E9E6D55E-9446-45F2-B66C-3272698B0216";
name = "Light Condensed";
paths = (
{
closed = 1;
nodes = (
"13 0 LINE",
"193 0 LINE",
"193 30 LINE",
"156 30 LINE SMOOTH",
"132 30 OFFCURVE",
"121 45 OFFCURVE",
"121 71 CURVE SMOOTH",
"121 568 LINE",
"125 568 LINE",
"368 0 LINE",
"403 0 LINE",
"403 558 LINE SMOOTH",
"403 585 OFFCURVE",
"413 600 OFFCURVE",
"439 600 CURVE SMOOTH",
"474 600 LINE",
"474 630 LINE",
"295 630 LINE",
"295 600 LINE",
"331 600 LINE SMOOTH",
"357 600 OFFCURVE",
"367 585 OFFCURVE",
"367 558 CURVE SMOOTH",
"367 128 LINE",
"363 128 LINE",
"149 630 LINE",
"13 630 LINE",
"13 600 LINE",
"49 600 LINE SMOOTH",
"75 600 OFFCURVE",
"85 585 OFFCURVE",
"85 558 CURVE SMOOTH",
"85 71 LINE SMOOTH",
"85 45 OFFCURVE",
"74 30 OFFCURVE",
"50 30 CURVE SMOOTH",
"13 30 LINE"
);
},
{
closed = 1;
nodes = (
"364 -226 OFFCURVE",
"403 -186 OFFCURVE",
"403 -90 CURVE SMOOTH",
"403 450 LINE",
"367 450 LINE",
"367 -91 LINE SMOOTH",
"367 -165 OFFCURVE",
"342 -195 OFFCURVE",
"306 -195 CURVE SMOOTH",
"276 -195 OFFCURVE",
"258 -175 OFFCURVE",
"258 -151 CURVE SMOOTH",
"258 -126 OFFCURVE",
"279 -126 OFFCURVE",
"279 -102 CURVE SMOOTH",
"279 -84 OFFCURVE",
"268 -71 OFFCURVE",
"249 -71 CURVE SMOOTH",
"225 -71 OFFCURVE",
"212 -91 OFFCURVE",
"212 -126 CURVE SMOOTH",
"212 -185 OFFCURVE",
"248 -226 OFFCURVE",
"306 -226 CURVE SMOOTH"
);
}
);
width = 487;
},
{
layerId = "B25F85BC-C782-4067-8484-07202F80B8CD";
name = Condensed;
paths = (
{
closed = 1;
nodes = (
"15 0 LINE",
"238 0 LINE",
"238 90 LINE",
"223 90 LINE SMOOTH",
"206 90 OFFCURVE",
"200 103 OFFCURVE",
"200 122 CURVE SMOOTH",
"200 372 LINE",
"204 372 LINE",
"359 0 LINE",
"481 0 LINE",
"481 508 LINE SMOOTH",
"481 527 OFFCURVE",
"487 540 OFFCURVE",
"508 540 CURVE SMOOTH",
"549 540 LINE",
"549 630 LINE",
"306 630 LINE",
"306 540 LINE",
"335 540 LINE SMOOTH",
"352 540 OFFCURVE",
"358 527 OFFCURVE",
"358 508 CURVE SMOOTH",
"358 308 LINE",
"354 308 LINE",
"229 630 LINE",
"15 630 LINE",
"15 540 LINE",
"50 540 LINE SMOOTH",
"71 540 OFFCURVE",
"77 527 OFFCURVE",
"77 508 CURVE SMOOTH",
"77 122 LINE SMOOTH",
"77 103 OFFCURVE",
"71 90 OFFCURVE",
"50 90 CURVE SMOOTH",
"15 90 LINE"
);
},
{
closed = 1;
nodes = (
"431 -226 OFFCURVE",
"481 -165 OFFCURVE",
"481 -51 CURVE SMOOTH",
"481 450 LINE",
"358 450 LINE",
"358 -76 LINE SMOOTH",
"358 -124 OFFCURVE",
"345 -150 OFFCURVE",
"322 -150 CURVE SMOOTH",
"308 -150 OFFCURVE",
"299 -141 OFFCURVE",
"299 -129 CURVE SMOOTH",
"299 -113 OFFCURVE",
"314 -104 OFFCURVE",
"314 -81 CURVE SMOOTH",
"314 -53 OFFCURVE",
"291 -34 OFFCURVE",
"257 -34 CURVE SMOOTH",
"215 -34 OFFCURVE",
"189 -64 OFFCURVE",
"189 -114 CURVE SMOOTH",
"189 -184 OFFCURVE",
"240 -226 OFFCURVE",
"327 -226 CURVE SMOOTH"
);
}
);
width = 564;
},
{
layerId = "B817C739-5D48-43E8-AAEE-CE891513D7BC";
name = "Bold Condensed";
paths = (
{
closed = 1;
nodes = (
"7 0 LINE",
"261 0 LINE",
"261 108 LINE",
"234 108 LINE SMOOTH",
"225 108 OFFCURVE",
"221 111 OFFCURVE",
"221 121 CURVE SMOOTH",
"221 280 LINE",
"225 280 LINE",
"326 0 LINE",
"465 0 LINE",
"465 490 LINE SMOOTH",
"465 511 OFFCURVE",
"472 522 OFFCURVE",
"491 522 CURVE SMOOTH",
"509 522 LINE",
"509 630 LINE",
"255 630 LINE",
"255 522 LINE",
"282 522 LINE SMOOTH",
"292 522 OFFCURVE",
"295 517 OFFCURVE",
"295 509 CURVE SMOOTH",
"295 350 LINE",
"291 350 LINE",
"196 630 LINE",
"7 630 LINE",
"7 522 LINE",
"25 522 LINE SMOOTH",
"44 522 OFFCURVE",
"51 511 OFFCURVE",
"51 490 CURVE SMOOTH",
"51 139 LINE SMOOTH",
"51 119 OFFCURVE",
"43 108 OFFCURVE",
"26 108 CURVE SMOOTH",
"7 108 LINE"
);
},
{
closed = 1;
nodes = (
"413 -226 OFFCURVE",
"465 -166 OFFCURVE",
"465 -51 CURVE SMOOTH",
"465 466 LINE",
"306 466 LINE",
"306 -96 LINE SMOOTH",
"306 -126 OFFCURVE",
"297 -140 OFFCURVE",
"279 -140 CURVE SMOOTH",
"266 -140 OFFCURVE",
"257 -133 OFFCURVE",
"257 -121 CURVE SMOOTH",
"257 -106 OFFCURVE",
"272 -104 OFFCURVE",
"272 -81 CURVE SMOOTH",
"272 -49 OFFCURVE",
"249 -29 OFFCURVE",
"195 -29 CURVE SMOOTH",
"136 -29 OFFCURVE",
"105 -62 OFFCURVE",
"105 -113 CURVE SMOOTH",
"105 -183 OFFCURVE",
"172 -226 OFFCURVE",
"282 -226 CURVE SMOOTH"
);
}
);
width = 516;
},
{
layerId = UUID0;
name = "Light Extended";
paths = (
{
closed = 1;
nodes = (
"31 0 LINE",
"277 0 LINE",
"277 36 LINE",
"201 36 LINE SMOOTH",
"184 36 OFFCURVE",
"178 49 OFFCURVE",
"178 68 CURVE SMOOTH",
"178 541 LINE",
"182 541 LINE",
"624 0 LINE",
"672 0 LINE",
"672 562 LINE SMOOTH",
"672 581 OFFCURVE",
"678 594 OFFCURVE",
"695 594 CURVE SMOOTH",
"772 594 LINE",
"772 630 LINE",
"524 630 LINE",
"524 594 LINE",
"597 594 LINE SMOOTH",
"618 594 OFFCURVE",
"624 581 OFFCURVE",
"624 562 CURVE SMOOTH",
"624 85 LINE",
"620 85 LINE",
"178 630 LINE",
"30 630 LINE",
"30 594 LINE",
"103 594 LINE SMOOTH",
"124 594 OFFCURVE",
"130 581 OFFCURVE",
"130 562 CURVE SMOOTH",
"130 68 LINE SMOOTH",
"130 49 OFFCURVE",
"124 36 OFFCURVE",
"103 36 CURVE SMOOTH",
"31 36 LINE"
);
},
{
closed = 1;
nodes = (
"611 -226 OFFCURVE",
"672 -159 OFFCURVE",
"672 -31 CURVE SMOOTH",
"672 450 LINE",
"624 450 LINE",
"624 -31 LINE SMOOTH",
"624 -141 OFFCURVE",
"585 -195 OFFCURVE",
"506 -195 CURVE SMOOTH",
"458 -195 OFFCURVE",
"425 -174 OFFCURVE",
"425 -142 CURVE SMOOTH",
"425 -116 OFFCURVE",
"449 -114 OFFCURVE",
"449 -88 CURVE SMOOTH",
"449 -69 OFFCURVE",
"435 -55 OFFCURVE",
"417 -55 CURVE SMOOTH",
"394 -55 OFFCURVE",
"379 -78 OFFCURVE",
"379 -115 CURVE SMOOTH",
"379 -184 OFFCURVE",
"428 -226 OFFCURVE",
"509 -226 CURVE SMOOTH"
);
}
);
width = 802;
},
{
layerId = "4355E1B8-19E6-44BD-A1D7-6E3C2DECA4C8";
name = Extended;
paths = (
{
closed = 1;
nodes = (
"22 0 LINE",
"360 0 LINE",
"360 90 LINE",
"285 90 LINE SMOOTH",
"268 90 OFFCURVE",
"262 103 OFFCURVE",
"262 122 CURVE SMOOTH",
"262 397 LINE",
"266 397 LINE",
"640 0 LINE",
"752 0 LINE",
"752 508 LINE SMOOTH",
"752 527 OFFCURVE",
"758 540 OFFCURVE",
"779 540 CURVE SMOOTH",
"850 540 LINE",
"850 630 LINE",
"512 630 LINE",
"512 540 LINE",
"591 540 LINE SMOOTH",
"608 540 OFFCURVE",
"614 527 OFFCURVE",
"614 508 CURVE SMOOTH",
"614 248 LINE",
"610 248 LINE",
"246 630 LINE",
"22 630 LINE",
"22 540 LINE",
"97 540 LINE SMOOTH",
"118 540 OFFCURVE",
"124 527 OFFCURVE",
"124 508 CURVE SMOOTH",
"124 122 LINE SMOOTH",
"124 103 OFFCURVE",
"118 90 OFFCURVE",
"97 90 CURVE SMOOTH",
"22 90 LINE"
);
},
{
closed = 1;
nodes = (
"678 -225 OFFCURVE",
"752 -161 OFFCURVE",
"752 -40 CURVE SMOOTH",
"752 450 LINE",
"622 450 LINE",
"622 -61 LINE SMOOTH",
"622 -113 OFFCURVE",
"607 -142 OFFCURVE",
"558 -142 CURVE SMOOTH",
"539 -142 OFFCURVE",
"523 -140 OFFCURVE",
"523 -124 CURVE SMOOTH",
"523 -109 OFFCURVE",
"537 -100 OFFCURVE",
"537 -75 CURVE SMOOTH",
"537 -49 OFFCURVE",
"519 -28 OFFCURVE",
"479 -28 CURVE SMOOTH",
"423 -28 OFFCURVE",
"402 -71 OFFCURVE",
"402 -114 CURVE SMOOTH",
"402 -184 OFFCURVE",
"459 -225 OFFCURVE",
"560 -225 CURVE SMOOTH"
);
}
);
width = 872;
},
{
layerId = "14C77FDB-037D-4842-9381-6D9ED15DD48C";
name = "Bold Extended";
paths = (
{
closed = 1;
nodes = (
"17 0 LINE",
"396 0 LINE",
"396 152 LINE",
"379 152 LINE SMOOTH",
"362 152 OFFCURVE",
"356 165 OFFCURVE",
"356 184 CURVE SMOOTH",
"356 265 LINE",
"360 265 LINE",
"590 0 LINE",
"790 0 LINE",
"790 446 LINE SMOOTH",
"790 465 OFFCURVE",
"796 478 OFFCURVE",
"817 478 CURVE SMOOTH",
"879 478 LINE",
"879 630 LINE",
"470 630 LINE",
"470 478 LINE",
"517 478 LINE SMOOTH",
"534 478 OFFCURVE",
"540 465 OFFCURVE",
"540 446 CURVE SMOOTH",
"540 361 LINE",
"536 361 LINE",
"306 630 LINE",
"17 630 LINE",
"17 478 LINE",
"79 478 LINE SMOOTH",
"100 478 OFFCURVE",
"106 465 OFFCURVE",
"106 446 CURVE SMOOTH",
"106 184 LINE SMOOTH",
"106 165 OFFCURVE",
"100 152 OFFCURVE",
"79 152 CURVE SMOOTH",
"17 152 LINE"
);
},
{
closed = 1;
nodes = (
"703 -226 OFFCURVE",
"790 -162 OFFCURVE",
"790 -26 CURVE SMOOTH",
"790 480 LINE",
"561 480 LINE",
"561 -51 LINE SMOOTH",
"561 -96 OFFCURVE",
"551 -115 OFFCURVE",
"531 -115 CURVE SMOOTH",
"517 -115 OFFCURVE",
"512 -107 OFFCURVE",
"512 -98 CURVE SMOOTH",
"512 -82 OFFCURVE",
"527 -75 OFFCURVE",
"527 -53 CURVE SMOOTH",
"527 -21 OFFCURVE",
"493 1 OFFCURVE",
"442 1 CURVE SMOOTH",
"373 1 OFFCURVE",
"330 -38 OFFCURVE",
"330 -101 CURVE SMOOTH",
"330 -184 OFFCURVE",
"405 -226 OFFCURVE",
"536 -226 CURVE SMOOTH"
);
}
);
width = 896;
}
);
unicode = 014A;
},
{
glyphname = O;
lastChange = "2015-05-08 17:09:39 +0000";
layers = (
{
layerId = "E9E6D55E-9446-45F2-B66C-3272698B0216";
name = "Light Condensed";
paths = (
{
closed = 1;
nodes = (
"339 -10 OFFCURVE",
"409 109 OFFCURVE",
"409 320 CURVE SMOOTH",
"409 527 OFFCURVE",
"341 640 OFFCURVE",
"217 640 CURVE SMOOTH",
"95 640 OFFCURVE",
"30 529 OFFCURVE",
"30 318 CURVE SMOOTH",
"30 106 OFFCURVE",
"96 -10 OFFCURVE",
"216 -10 CURVE SMOOTH"
);
},
{
closed = 1;
nodes = (
"118 28 OFFCURVE",
"76 113 OFFCURVE",
"76 317 CURVE SMOOTH",
"76 519 OFFCURVE",
"117 602 OFFCURVE",
"218 602 CURVE SMOOTH",
"321 602 OFFCURVE",
"364 518 OFFCURVE",
"364 317 CURVE SMOOTH",
"364 115 OFFCURVE",
"320 28 OFFCURVE",
"218 28 CURVE SMOOTH"
);
}
);
width = 439;
},
{
layerId = "B25F85BC-C782-4067-8484-07202F80B8CD";
name = Condensed;
paths = (
{
closed = 1;
nodes = (
"420 -12 OFFCURVE",
"495 93 OFFCURVE",
"495 314 CURVE SMOOTH",
"495 536 OFFCURVE",
"420 642 OFFCURVE",
"264 642 CURVE SMOOTH",
"109 642 OFFCURVE",
"35 537 OFFCURVE",
"35 315 CURVE SMOOTH",
"35 93 OFFCURVE",
"108 -12 OFFCURVE",
"264 -12 CURVE SMOOTH"
);
},
{
closed = 1;
nodes = (
"210 93 OFFCURVE",
"186 157 OFFCURVE",
"186 311 CURVE SMOOTH",
"186 468 OFFCURVE",
"211 537 OFFCURVE",
"268 537 CURVE SMOOTH",
"323 537 OFFCURVE",
"344 473 OFFCURVE",
"344 308 CURVE SMOOTH",
"344 150 OFFCURVE",
"324 93 OFFCURVE",
"269 93 CURVE SMOOTH"
);
}
);
width = 530;
},
{
layerId = "B817C739-5D48-43E8-AAEE-CE891513D7BC";
name = "Bold Condensed";
paths = (
{
closed = 1;
nodes = (
"410 -10 OFFCURVE",
"477 88 OFFCURVE",
"477 327 CURVE SMOOTH",
"477 557 OFFCURVE",
"416 640 OFFCURVE",
"245 640 CURVE SMOOTH",
"76 640 OFFCURVE",
"16 557 OFFCURVE",
"16 327 CURVE SMOOTH",
"16 87 OFFCURVE",
"82 -10 OFFCURVE",
"245 -10 CURVE SMOOTH"
);
},
{
closed = 1;
nodes = (
"219 128 OFFCURVE",
"215 148 OFFCURVE",
"215 292 CURVE SMOOTH",
"215 480 OFFCURVE",
"218 502 OFFCURVE",
"246 502 CURVE SMOOTH",
"274 502 OFFCURVE",
"278 478 OFFCURVE",
"278 310 CURVE SMOOTH",
"278 151 OFFCURVE",
"274 128 OFFCURVE",
"246 128 CURVE SMOOTH"
);
}
);
width = 493;
},
{
layerId = UUID0;
name = "Light Extended";
paths = (
{
closed = 1;
nodes = (
"609 -10 OFFCURVE",
"725 106 OFFCURVE",
"725 314 CURVE SMOOTH",
"725 523 OFFCURVE",
"609 640 OFFCURVE",
"402 640 CURVE SMOOTH",
"194 640 OFFCURVE",
"75 521 OFFCURVE",
"75 313 CURVE SMOOTH",
"75 106 OFFCURVE",
"193 -10 OFFCURVE",
"401 -10 CURVE SMOOTH"
);
},
{
closed = 1;
nodes = (
"218 31 OFFCURVE",
"124 126 OFFCURVE",
"124 314 CURVE SMOOTH",
"124 503 OFFCURVE",
"219 599 OFFCURVE",
"406 599 CURVE SMOOTH",
"589 599 OFFCURVE",
"676 507 OFFCURVE",
"676 315 CURVE SMOOTH",
"676 123 OFFCURVE",
"588 31 OFFCURVE",
"405 31 CURVE SMOOTH"
);
}
);
width = 800;
},
{
layerId = "4355E1B8-19E6-44BD-A1D7-6E3C2DECA4C8";
name = Extended;
paths = (
{
closed = 1;
nodes = (
"623 -12 OFFCURVE",
"755 111 OFFCURVE",
"755 315 CURVE SMOOTH",
"755 519 OFFCURVE",
"623 642 OFFCURVE",
"405 642 CURVE SMOOTH",
"186 642 OFFCURVE",
"55 519 OFFCURVE",
"55 315 CURVE SMOOTH",
"55 110 OFFCURVE",
"186 -12 OFFCURVE",
"404 -12 CURVE SMOOTH"
);
},
{
closed = 1;
nodes = (
"272 93 OFFCURVE",
"204 166 OFFCURVE",
"204 313 CURVE SMOOTH",
"204 460 OFFCURVE",
"274 537 OFFCURVE",
"408 537 CURVE SMOOTH",
"541 537 OFFCURVE",
"606 463 OFFCURVE",
"606 311 CURVE SMOOTH",
"606 163 OFFCURVE",
"543 93 OFFCURVE",
"409 93 CURVE SMOOTH"
);
}
);
width = 810;
},
{
layerId = "14C77FDB-037D-4842-9381-6D9ED15DD48C";
name = "Bold Extended";
paths = (
{
closed = 1;
nodes = (
"655 -10 OFFCURVE",
"787 101 OFFCURVE",
"787 315 CURVE SMOOTH",
"787 528 OFFCURVE",
"654 640 OFFCURVE",
"402 640 CURVE SMOOTH",
"149 640 OFFCURVE",
"17 528 OFFCURVE",
"17 314 CURVE SMOOTH",
"17 101 OFFCURVE",
"148 -10 OFFCURVE",
"401 -10 CURVE SMOOTH"
);
},
{
closed = 1;
nodes = (
"329 175 OFFCURVE",
"300 214 OFFCURVE",
"300 312 CURVE SMOOTH",
"300 412 OFFCURVE",
"331 455 OFFCURVE",
"402 455 CURVE SMOOTH",
"474 455 OFFCURVE",
"504 412 OFFCURVE",
"504 312 CURVE SMOOTH",
"504 213 OFFCURVE",
"476 175 OFFCURVE",
"402 175 CURVE SMOOTH"
);
}
);
width = 804;
}
);
unicode = 004F;
},
{
color = 6;
glyphname = Oslash;
lastChange = "2015-05-08 17:11:02 +0000";
layers = (
{
components = (
{
name = O;
}
);
guideLines = (
{
angle = 90;
position = "{410, 379}";
},
{
angle = 90;
position = "{30, 85}";
}
);
layerId = "E9E6D55E-9446-45F2-B66C-3272698B0216";
name = "Light Condensed";
paths = (
{
closed = 1;
nodes = (
"28 -30 LINE",
"67 -30 LINE",
"411 660 LINE",
"372 660 LINE"
);
}
);
width = 439;
},
{
components = (
{
name = O;
}
);
guideLines = (
{
angle = 90;
position = "{36, 504}";
},
{
angle = 90;
position = "{495, 504}";
}
);
layerId = "B25F85BC-C782-4067-8484-07202F80B8CD";
name = Condensed;
paths = (
{
closed = 1;
nodes = (
"26 -40 LINE",
"125 -40 LINE",
"505 670 LINE",
"406 670 LINE"
);
}
);
width = 530;
},
{
components = (
{
name = O;
}
);
guideLines = (
{
angle = 90;
position = "{16, 528}";
},
{
angle = 90;
position = "{477, 528}";
}
);
layerId = "B817C739-5D48-43E8-AAEE-CE891513D7BC";
name = "Bold Condensed";
paths = (
{
closed = 1;
nodes = (
"11 -40 LINE",
"100 -40 LINE",
"483 670 LINE",
"394 670 LINE"
);
}
);
width = 493;
},
{
components = (
{
name = O;
}
);
guideLines = (
{
angle = 90;
position = "{77, 102}";
},
{
angle = 90;
position = "{724, 102}";
}
);
layerId = UUID0;
name = "Light Extended";
paths = (
{
closed = 1;
nodes = (
"76 -30 LINE",
"130 -30 LINE",
"725 660 LINE",
"671 660 LINE"
);
}
);
width = 800;
},
{
components = (
{
name = O;
}
);
guideLines = (
{
angle = 90;
position = "{55, 528}";
},
{
angle = 90;
position = "{755, 528}";
}
);
layerId = "4355E1B8-19E6-44BD-A1D7-6E3C2DECA4C8";
name = Extended;
paths = (
{
closed = 1;
nodes = (
"55 -40 LINE",
"184 -40 LINE",
"757 670 LINE",
"628 670 LINE"
);
}
);
width = 810;
},
{
components = (
{
name = O;
}
);
guideLines = (
{
angle = 90;
position = "{18, 516}";
},
{
angle = 90;
position = "{788, 516}";
}
);
layerId = "14C77FDB-037D-4842-9381-6D9ED15DD48C";
name = "Bold Extended";
paths = (
{
closed = 1;
nodes = (
"20 -40 LINE",
"169 -40 LINE",
"790 670 LINE",
"641 670 LINE"
);
}
);
width = 804;
}
);
unicode = 00D8;
},
{
color = 6;
glyphname = OE;
lastChange = "2015-05-08 17:11:02 +0000";
layers = (
{
layerId = "E9E6D55E-9446-45F2-B66C-3272698B0216";
name = "Light Condensed";
paths = (
{
closed = 1;
nodes = (
"589 0 LINE",
"589 209 LINE",
"557 209 LINE",
"557 65 OFFCURVE",
"545 30 OFFCURVE",
"495 30 CURVE SMOOTH",
"339 30 LINE",
"339 303 LINE",
"412 303 LINE SMOOTH",
"448 303 OFFCURVE",
"453 288 OFFCURVE",
"455 180 CURVE",
"487 180 LINE",
"487 446 LINE",
"455 446 LINE",
"453 350 OFFCURVE",
"447 335 OFFCURVE",
"412 335 CURVE SMOOTH",
"339 335 LINE",
"339 600 LINE",
"495 600 LINE SMOOTH",
"543 600 OFFCURVE",
"557 564 OFFCURVE",
"557 438 CURVE",
"589 438 LINE",
"589 630 LINE",
"217 630 LINE SMOOTH",
"93 630 OFFCURVE",
"30 525 OFFCURVE",
"30 318 CURVE SMOOTH",
"30 109 OFFCURVE",
"94 0 OFFCURVE",
"216 0 CURVE SMOOTH"
);
},
{
closed = 1;
nodes = (
"117 30 OFFCURVE",
"76 110 OFFCURVE",
"76 315 CURVE SMOOTH",
"76 518 OFFCURVE",
"117 601 OFFCURVE",
"217 601 CURVE SMOOTH",
"271 601 OFFCURVE",
"296 585 OFFCURVE",
"296 558 CURVE SMOOTH",
"296 71 LINE SMOOTH",
"296 43 OFFCURVE",
"276 30 OFFCURVE",
"223 30 CURVE SMOOTH"
);
}
);
width = 639;
},
{
layerId = "B25F85BC-C782-4067-8484-07202F80B8CD";
name = Condensed;
paths = (
{
closed = 1;
nodes = (
"777 0 LINE",
"777 272 LINE",
"658 272 LINE",
"658 112 OFFCURVE",
"645 90 OFFCURVE",
"598 90 CURVE SMOOTH",
"499 90 LINE",
"499 268 LINE",
"504 268 LINE SMOOTH",
"540 268 OFFCURVE",
"546 246 OFFCURVE",
"546 168 CURVE",
"617 168 LINE",
"617 448 LINE",
"546 448 LINE",
"546 366 OFFCURVE",
"541 350 OFFCURVE",
"504 350 CURVE SMOOTH",
"499 350 LINE",
"499 540 LINE",
"596 540 LINE SMOOTH",
"638 540 OFFCURVE",
"658 507 OFFCURVE",
"658 354 CURVE",
"777 354 LINE",
"777 630 LINE",
"296 630 LINE SMOOTH",
"111 630 OFFCURVE",
"35 537 OFFCURVE",
"35 315 CURVE SMOOTH",
"35 93 OFFCURVE",
"108 0 OFFCURVE",
"294 0 CURVE SMOOTH"
);
},
{
closed = 1;
nodes = (
"210 93 OFFCURVE",
"186 157 OFFCURVE",
"186 311 CURVE SMOOTH",
"186 468 OFFCURVE",
"211 537 OFFCURVE",
"308 537 CURVE SMOOTH",
"345 537 OFFCURVE",
"361 526 OFFCURVE",
"361 501 CURVE SMOOTH",
"361 126 LINE SMOOTH",
"361 105 OFFCURVE",
"355 93 OFFCURVE",
"306 93 CURVE SMOOTH"
);
}
);
width = 817;
},
{
layerId = "B817C739-5D48-43E8-AAEE-CE891513D7BC";
name = "Bold Condensed";
paths = (
{
closed = 1;
nodes = (
"762 0 LINE",
"762 296 LINE",
"611 296 LINE",
"611 130 OFFCURVE",
"594 108 OFFCURVE",
"562 108 CURVE SMOOTH",
"519 108 LINE",
"519 304 LINE",
"522 304 LINE",
"533 304 OFFCURVE",
"536 297 OFFCURVE",
"536 211 CURVE",
"593 211 LINE",
"593 428 LINE",
"536 428 LINE",
"536 347 OFFCURVE",
"533 336 OFFCURVE",
"522 336 CURVE SMOOTH",
"519 336 LINE",
"519 522 LINE",
"559 522 LINE SMOOTH",
"594 522 OFFCURVE",
"611 499 OFFCURVE",
"611 342 CURVE",
"762 342 LINE",
"762 630 LINE",
"295 630 LINE SMOOTH",
"76 630 OFFCURVE",
"16 557 OFFCURVE",
"16 327 CURVE SMOOTH",
"16 87 OFFCURVE",
"82 0 OFFCURVE",
"295 0 CURVE SMOOTH"
);
},
{
closed = 1;
nodes = (
"219 128 OFFCURVE",
"215 148 OFFCURVE",
"215 292 CURVE SMOOTH",
"215 480 OFFCURVE",
"218 502 OFFCURVE",
"296 502 CURVE SMOOTH",
"333 502 OFFCURVE",
"339 491 OFFCURVE",
"339 466 CURVE SMOOTH",
"339 161 LINE SMOOTH",
"339 140 OFFCURVE",
"332 128 OFFCURVE",
"296 128 CURVE SMOOTH"
);
}
);
width = 797;
},
{
layerId = UUID0;
name = "Light Extended";
paths = (
{
closed = 1;
nodes = (
"1033 0 LINE",
"1033 211 LINE",
"1001 211 LINE",
"1001 64 OFFCURVE",
"991 36 OFFCURVE",
"939 36 CURVE SMOOTH",
"588 36 LINE",
"588 303 LINE",
"796 303 LINE SMOOTH",
"831 303 OFFCURVE",
"837 288 OFFCURVE",
"839 190 CURVE",
"871 190 LINE",
"871 446 LINE",
"839 446 LINE",
"837 350 OFFCURVE",
"831 335 OFFCURVE",
"796 335 CURVE SMOOTH",
"588 335 LINE",
"588 594 LINE",
"939 594 LINE SMOOTH",
"991 594 OFFCURVE",
"1001 565 OFFCURVE",
"1001 418 CURVE",
"1033 418 LINE",
"1033 630 LINE",
"392 630 LINE SMOOTH",
"189 630 OFFCURVE",
"75 516 OFFCURVE",
"75 313 CURVE SMOOTH",
"75 110 OFFCURVE",
"189 0 OFFCURVE",
"401 0 CURVE SMOOTH"
);
},
{
closed = 1;
nodes = (
"214 39 OFFCURVE",
"124 119 OFFCURVE",
"124 316 CURVE SMOOTH",
"124 510 OFFCURVE",
"213 592 OFFCURVE",
"423 592 CURVE SMOOTH",
"502 592 OFFCURVE",
"540 580 OFFCURVE",
"540 555 CURVE SMOOTH",
"540 75 LINE SMOOTH",
"540 47 OFFCURVE",
"517 39 OFFCURVE",
"434 39 CURVE SMOOTH"
);
}
);
width = 1123;
},
{
layerId = "4355E1B8-19E6-44BD-A1D7-6E3C2DECA4C8";
name = Extended;
paths = (
{
closed = 1;
nodes = (
"1121 0 LINE",
"1121 269 LINE",
"1003 269 LINE",
"1003 130 OFFCURVE",
"981 90 OFFCURVE",
"905 90 CURVE SMOOTH",
"674 90 LINE",
"674 278 LINE",
"732 278 LINE SMOOTH",
"787 278 OFFCURVE",
"801 262 OFFCURVE",
"801 196 CURVE",
"897 196 LINE",
"897 448 LINE",
"801 448 LINE",
"801 375 OFFCURVE",
"789 360 OFFCURVE",
"732 360 CURVE SMOOTH",
"674 360 LINE",
"674 540 LINE",
"898 540 LINE SMOOTH",
"977 540 OFFCURVE",
"1003 494 OFFCURVE",
"1003 354 CURVE",
"1121 354 LINE",
"1121 630 LINE",
"434 630 LINE SMOOTH",
"182 630 OFFCURVE",
"55 525 OFFCURVE",
"55 315 CURVE SMOOTH",
"55 105 OFFCURVE",
"182 0 OFFCURVE",
"434 0 CURVE SMOOTH"
);
},
{
closed = 1;
nodes = (
"277 93 OFFCURVE",
"204 158 OFFCURVE",
"204 312 CURVE SMOOTH",
"204 469 OFFCURVE",
"278 537 OFFCURVE",
"448 537 CURVE SMOOTH",
"515 537 OFFCURVE",
"536 528 OFFCURVE",
"536 499 CURVE SMOOTH",
"536 126 LINE SMOOTH",
"536 101 OFFCURVE",
"514 93 OFFCURVE",
"449 93 CURVE SMOOTH"
);
}
);
width = 1165;
},
{
layerId = "14C77FDB-037D-4842-9381-6D9ED15DD48C";
name = "Bold Extended";
paths = (
{
closed = 1;
nodes = (
"1154 0 LINE",
"1154 284 LINE",
"934 284 LINE",
"934 167 OFFCURVE",
"912 152 OFFCURVE",
"866 152 CURVE SMOOTH",
"770 152 LINE",
"770 270 LINE",
"776 270 LINE SMOOTH",
"793 270 OFFCURVE",
"807 240 OFFCURVE",
"807 213 CURVE",
"913 213 LINE",
"913 415 LINE",
"807 415 LINE",
"807 371 OFFCURVE",
"794 362 OFFCURVE",
"777 362 CURVE SMOOTH",
"770 362 LINE",
"770 478 LINE",
"862 478 LINE SMOOTH",
"911 478 OFFCURVE",
"934 466 OFFCURVE",
"934 346 CURVE",
"1154 346 LINE",
"1154 630 LINE",
"431 630 LINE SMOOTH",
"138 630 OFFCURVE",
"17 528 OFFCURVE",
"17 314 CURVE SMOOTH",
"17 101 OFFCURVE",
"138 0 OFFCURVE",
"431 0 CURVE SMOOTH"
);
},
{
closed = 1;
nodes = (
"329 175 OFFCURVE",
"300 214 OFFCURVE",
"300 312 CURVE SMOOTH",
"300 412 OFFCURVE",
"331 455 OFFCURVE",
"432 455 CURVE SMOOTH",
"513 455 OFFCURVE",
"520 444 OFFCURVE",
"520 419 CURVE SMOOTH",
"520 208 LINE SMOOTH",
"520 187 OFFCURVE",
"514 175 OFFCURVE",
"432 175 CURVE SMOOTH"
);
}
);
width = 1184;
}
);
unicode = 0152;
},
{
color = 6;
glyphname = P;
lastChange = "2015-05-08 17:26:04 +0000";
layers = (
{
background = {
paths = (
{
closed = 1;
nodes = (
"40 30 LINE SMOOTH",
"70 30 OFFCURVE",
"85 44 OFFCURVE",
"85 71 CURVE SMOOTH",
"85 558 LINE SMOOTH",
"85 587 OFFCURVE",
"70 600 OFFCURVE",
"39 600 CURVE SMOOTH",
"13 600 LINE",
"13 630 LINE",
"211 630 LINE SMOOTH",
"335 630 OFFCURVE",
"403 568 OFFCURVE",
"403 455 CURVE SMOOTH",
"403 337 OFFCURVE",
"330 270 OFFCURVE",
"200 270 CURVE",
"113 270 LINE",
"113 305 LINE",
"202 305 LINE SMOOTH",
"308 305 OFFCURVE",
"358 352 OFFCURVE",
"358 451 CURVE SMOOTH",
"358 548 OFFCURVE",
"310 595 OFFCURVE",
"212 595 CURVE SMOOTH",
"126 595 LINE",
"126 71 LINE SMOOTH",
"126 44 OFFCURVE",
"141 30 OFFCURVE",
"171 30 CURVE SMOOTH",
"198 30 LINE",
"198 0 LINE",
"13 0 LINE",
"13 30 LINE"
);
}
);
};
layerId = "E9E6D55E-9446-45F2-B66C-3272698B0216";
name = "Light Condensed";
paths = (
{
closed = 1;
nodes = (
"40 30 LINE SMOOTH",
"70 30 OFFCURVE",
"85 44 OFFCURVE",
"85 71 CURVE SMOOTH",
"85 558 LINE SMOOTH",
"85 587 OFFCURVE",
"70 600 OFFCURVE",
"39 600 CURVE SMOOTH",
"13 600 LINE",
"13 630 LINE",
"201 630 LINE SMOOTH",
"325 630 OFFCURVE",
"393 568 OFFCURVE",
"393 455 CURVE SMOOTH",
"393 337 OFFCURVE",
"320 270 OFFCURVE",
"190 270 CURVE",
"113 270 LINE",
"113 305 LINE",
"192 305 LINE SMOOTH",
"298 305 OFFCURVE",
"348 352 OFFCURVE",
"348 451 CURVE SMOOTH",
"348 548 OFFCURVE",
"300 595 OFFCURVE",
"202 595 CURVE SMOOTH",
"126 595 LINE",
"126 71 LINE SMOOTH",
"126 44 OFFCURVE",
"141 30 OFFCURVE",
"171 30 CURVE SMOOTH",
"198 30 LINE",
"198 0 LINE",
"13 0 LINE",
"13 30 LINE"
);
}
);
width = 408;
},
{
background = {
paths = (
{
closed = 1;
nodes = (
"52 90 LINE SMOOTH",
"68 90 OFFCURVE",
"77 101 OFFCURVE",
"77 121 CURVE SMOOTH",
"77 508 LINE SMOOTH",
"77 531 OFFCURVE",
"68 540 OFFCURVE",
"46 540 CURVE SMOOTH",
"15 540 LINE",
"15 630 LINE",
"270 630 LINE SMOOTH",
"421 630 OFFCURVE",
"492 573 OFFCURVE",
"492 440 CURVE SMOOTH",
"492 300 OFFCURVE",
"412 240 OFFCURVE",
"259 240 CURVE SMOOTH",
"202 240 LINE",
"202 335 LINE",
"251 335 LINE SMOOTH",
"314 335 OFFCURVE",
"347 368 OFFCURVE",
"347 442 CURVE SMOOTH",
"347 511 OFFCURVE",
"319 540 OFFCURVE",
"261 540 CURVE SMOOTH",
"215 540 LINE",
"215 121 LINE SMOOTH",
"215 99 OFFCURVE",
"225 90 OFFCURVE",
"250 90 CURVE SMOOTH",
"287 90 LINE",
"287 0 LINE",
"15 0 LINE",
"15 90 LINE"
);
}
);
};
layerId = "B25F85BC-C782-4067-8484-07202F80B8CD";
name = Condensed;
paths = (
{
closed = 1;
nodes = (
"52 90 LINE SMOOTH",
"68 90 OFFCURVE",
"77 101 OFFCURVE",
"77 121 CURVE SMOOTH",
"77 508 LINE SMOOTH",
"77 531 OFFCURVE",
"68 540 OFFCURVE",
"46 540 CURVE SMOOTH",
"15 540 LINE",
"15 630 LINE",
"250 630 LINE SMOOTH",
"401 630 OFFCURVE",
"472 573 OFFCURVE",
"472 440 CURVE SMOOTH",
"472 300 OFFCURVE",
"392 240 OFFCURVE",
"239 240 CURVE SMOOTH",
"202 240 LINE",
"202 335 LINE",
"236 335 LINE SMOOTH",
"299 335 OFFCURVE",
"332 368 OFFCURVE",
"332 442 CURVE SMOOTH",
"332 511 OFFCURVE",
"304 540 OFFCURVE",
"246 540 CURVE SMOOTH",
"215 540 LINE",
"215 121 LINE SMOOTH",
"215 99 OFFCURVE",
"225 90 OFFCURVE",
"250 90 CURVE SMOOTH",
"287 90 LINE",
"287 0 LINE",
"15 0 LINE",
"15 90 LINE"
);
}
);
width = 482;
},
{
background = {
paths = (
{
closed = 1;
nodes = (
"26 108 LINE SMOOTH",
"42 108 OFFCURVE",
"51 119 OFFCURVE",
"51 139 CURVE SMOOTH",
"51 490 LINE SMOOTH",
"51 515 OFFCURVE",
"42 522 OFFCURVE",
"20 522 CURVE SMOOTH",
"7 522 LINE",
"7 630 LINE",
"250 630 LINE SMOOTH",
"397 630 OFFCURVE",
"472 573 OFFCURVE",
"472 426 CURVE SMOOTH",
"472 277 OFFCURVE",
"395 220 OFFCURVE",
"249 220 CURVE SMOOTH",
"218 220 LINE",
"218 329 LINE",
"241 329 LINE SMOOTH",
"283 329 OFFCURVE",
"297 362 OFFCURVE",
"297 427 CURVE SMOOTH",
"297 499 OFFCURVE",
"280 522 OFFCURVE",
"251 522 CURVE SMOOTH",
"231 522 LINE",
"231 139 LINE SMOOTH",
"231 117 OFFCURVE",
"241 108 OFFCURVE",
"266 108 CURVE SMOOTH",
"297 108 LINE",
"297 0 LINE",
"7 0 LINE",
"7 108 LINE"
);
}
);
};
layerId = "B817C739-5D48-43E8-AAEE-CE891513D7BC";
name = "Bold Condensed";
paths = (
{
closed = 1;
nodes = (
"26 108 LINE SMOOTH",
"42 108 OFFCURVE",
"51 119 OFFCURVE",
"51 139 CURVE SMOOTH",
"51 490 LINE SMOOTH",
"51 515 OFFCURVE",
"42 522 OFFCURVE",
"20 522 CURVE SMOOTH",
"7 522 LINE",
"7 630 LINE",
"250 630 LINE SMOOTH",
"387 630 OFFCURVE",
"462 573 OFFCURVE",
"462 426 CURVE SMOOTH",
"462 277 OFFCURVE",
"385 220 OFFCURVE",
"249 220 CURVE SMOOTH",
"218 220 LINE",
"218 329 LINE",
"241 329 LINE SMOOTH",
"273 329 OFFCURVE",
"287 362 OFFCURVE",
"287 427 CURVE SMOOTH",
"287 499 OFFCURVE",
"270 522 OFFCURVE",
"251 522 CURVE SMOOTH",
"231 522 LINE",
"231 139 LINE SMOOTH",
"231 117 OFFCURVE",
"241 108 OFFCURVE",
"266 108 CURVE SMOOTH",
"297 108 LINE",
"297 0 LINE",
"7 0 LINE",
"7 108 LINE"
);
}
);
width = 472;
},
{
background = {
paths = (
{
closed = 1;
nodes = (
"103 36 LINE SMOOTH",
"121 36 OFFCURVE",
"130 45 OFFCURVE",
"130 69 CURVE SMOOTH",
"130 562 LINE SMOOTH",
"130 587 OFFCURVE",
"121 594 OFFCURVE",
"97 594 CURVE SMOOTH",
"30 594 LINE",
"30 630 LINE",
"429 630 LINE SMOOTH",
"574 630 OFFCURVE",
"651 562 OFFCURVE",
"651 443 CURVE SMOOTH",
"651 317 OFFCURVE",
"567 250 OFFCURVE",
"418 250 CURVE SMOOTH",
"165 250 LINE",
"165 291 LINE",
"420 291 LINE SMOOTH",
"545 291 OFFCURVE",
"606 338 OFFCURVE",
"606 442 CURVE SMOOTH",
"606 542 OFFCURVE",
"549 589 OFFCURVE",
"430 589 CURVE SMOOTH",
"178 589 LINE",
"178 69 LINE SMOOTH",
"178 44 OFFCURVE",
"187 36 OFFCURVE",
"205 36 CURVE SMOOTH",
"297 36 LINE",
"297 0 LINE",
"31 0 LINE",
"31 36 LINE"
);
}
);
};
layerId = UUID0;
name = "Light Extended";
paths = (
{
closed = 1;
nodes = (
"103 36 LINE SMOOTH",
"121 36 OFFCURVE",
"130 45 OFFCURVE",
"130 69 CURVE SMOOTH",
"130 562 LINE SMOOTH",
"130 587 OFFCURVE",
"121 594 OFFCURVE",
"97 594 CURVE SMOOTH",
"20 594 LINE",
"20 630 LINE",
"419 630 LINE SMOOTH",
"564 630 OFFCURVE",
"641 562 OFFCURVE",
"641 443 CURVE SMOOTH",
"641 317 OFFCURVE",
"557 250 OFFCURVE",
"408 250 CURVE SMOOTH",
"165 250 LINE",
"165 291 LINE",
"410 291 LINE SMOOTH",
"535 291 OFFCURVE",
"596 338 OFFCURVE",
"596 442 CURVE SMOOTH",
"596 542 OFFCURVE",
"539 589 OFFCURVE",
"420 589 CURVE SMOOTH",
"178 589 LINE",
"178 69 LINE SMOOTH",
"178 44 OFFCURVE",
"187 36 OFFCURVE",
"205 36 CURVE SMOOTH",
"317 36 LINE",
"317 0 LINE",
"21 0 LINE",
"21 36 LINE"
);
}
);
width = 681;
},
{
background = {
paths = (
{
closed = 1;
nodes = (
"97 90 LINE SMOOTH",
"116 90 OFFCURVE",
"124 100 OFFCURVE",
"124 123 CURVE SMOOTH",
"124 508 LINE SMOOTH",
"124 532 OFFCURVE",
"116 540 OFFCURVE",
"94 540 CURVE SMOOTH",
"22 540 LINE",
"22 630 LINE",
"513 630 LINE SMOOTH",
"658 630 OFFCURVE",
"735 564 OFFCURVE",
"735 439 CURVE SMOOTH",
"735 310 OFFCURVE",
"653 240 OFFCURVE",
"502 240 CURVE SMOOTH",
"249 240 LINE",
"249 341 LINE",
"474 341 LINE SMOOTH",
"561 341 OFFCURVE",
"588 374 OFFCURVE",
"588 441 CURVE SMOOTH",
"588 505 OFFCURVE",
"555 535 OFFCURVE",
"484 535 CURVE SMOOTH",
"262 535 LINE",
"262 123 LINE SMOOTH",
"262 100 OFFCURVE",
"270 90 OFFCURVE",
"289 90 CURVE SMOOTH",
"381 90 LINE",
"381 0 LINE",
"22 0 LINE",
"22 90 LINE"
);
}
);
};
layerId = "4355E1B8-19E6-44BD-A1D7-6E3C2DECA4C8";
name = Extended;
paths = (
{
closed = 1;
nodes = (
"97 90 LINE SMOOTH",
"116 90 OFFCURVE",
"124 100 OFFCURVE",
"124 123 CURVE SMOOTH",
"124 508 LINE SMOOTH",
"124 532 OFFCURVE",
"116 540 OFFCURVE",
"94 540 CURVE SMOOTH",
"22 540 LINE",
"22 630 LINE",
"493 630 LINE SMOOTH",
"638 630 OFFCURVE",
"715 564 OFFCURVE",
"715 439 CURVE SMOOTH",
"715 310 OFFCURVE",
"633 240 OFFCURVE",
"482 240 CURVE SMOOTH",
"249 240 LINE",
"249 341 LINE",
"454 341 LINE SMOOTH",
"541 341 OFFCURVE",
"568 374 OFFCURVE",
"568 441 CURVE SMOOTH",
"568 505 OFFCURVE",
"535 535 OFFCURVE",
"464 535 CURVE SMOOTH",
"262 535 LINE",
"262 123 LINE SMOOTH",
"262 100 OFFCURVE",
"270 90 OFFCURVE",
"289 90 CURVE SMOOTH",
"381 90 LINE",
"381 0 LINE",
"22 0 LINE",
"22 90 LINE"
);
}
);
width = 735;
},
{
background = {
paths = (
{
closed = 1;
nodes = (
"79 152 LINE SMOOTH",
"98 152 OFFCURVE",
"106 162 OFFCURVE",
"106 185 CURVE SMOOTH",
"106 446 LINE SMOOTH",
"106 470 OFFCURVE",
"98 478 OFFCURVE",
"76 478 CURVE SMOOTH",
"17 478 LINE",
"17 630 LINE",
"549 630 LINE SMOOTH",
"693 630 OFFCURVE",
"771 560 OFFCURVE",
"771 429 CURVE SMOOTH",
"771 292 OFFCURVE",
"684 210 OFFCURVE",
"538 210 CURVE SMOOTH",
"325 210 LINE",
"325 350 LINE",
"414 350 LINE SMOOTH",
"475 350 OFFCURVE",
"502 372 OFFCURVE",
"502 422 CURVE SMOOTH",
"502 471 OFFCURVE",
"477 494 OFFCURVE",
"424 494 CURVE SMOOTH",
"356 494 LINE",
"356 185 LINE SMOOTH",
"356 162 OFFCURVE",
"364 152 OFFCURVE",
"383 152 CURVE SMOOTH",
"495 152 LINE",
"495 0 LINE",
"17 0 LINE",
"17 152 LINE"
);
}
);
};
layerId = "14C77FDB-037D-4842-9381-6D9ED15DD48C";
name = "Bold Extended";
paths = (
{
closed = 1;
nodes = (
"79 152 LINE SMOOTH",
"98 152 OFFCURVE",
"106 162 OFFCURVE",
"106 185 CURVE SMOOTH",
"106 446 LINE SMOOTH",
"106 470 OFFCURVE",
"98 478 OFFCURVE",
"76 478 CURVE SMOOTH",
"17 478 LINE",
"17 630 LINE",
"524 630 LINE SMOOTH",
"668 630 OFFCURVE",
"746 560 OFFCURVE",
"746 429 CURVE SMOOTH",
"746 292 OFFCURVE",
"659 210 OFFCURVE",
"513 210 CURVE SMOOTH",
"325 210 LINE",
"325 350 LINE",
"394 350 LINE SMOOTH",
"450 350 OFFCURVE",
"477 372 OFFCURVE",
"477 422 CURVE SMOOTH",
"477 471 OFFCURVE",
"452 494 OFFCURVE",
"399 494 CURVE SMOOTH",
"356 494 LINE",
"356 185 LINE SMOOTH",
"356 162 OFFCURVE",
"364 152 OFFCURVE",
"383 152 CURVE SMOOTH",
"470 152 LINE",
"470 0 LINE",
"17 0 LINE",
"17 152 LINE"
);
}
);
width = 761;
}
);
leftMetricsKey = H;
unicode = 0050;
},
{
color = 6;
glyphname = Thorn;
lastChange = "2015-05-08 17:11:02 +0000";
layers = (
{
layerId = "E9E6D55E-9446-45F2-B66C-3272698B0216";
name = "Light Condensed";
paths = (
{
closed = 1;
nodes = (
"330 146 OFFCURVE",
"403 213 OFFCURVE",
"403 331 CURVE SMOOTH",
"403 444 OFFCURVE",
"335 506 OFFCURVE",
"211 506 CURVE SMOOTH",
"126 506 LINE",
"126 558 LINE SMOOTH",
"126 585 OFFCURVE",
"139 600 OFFCURVE",
"172 600 CURVE SMOOTH",
"198 600 LINE",
"198 630 LINE",
"13 630 LINE",
"13 600 LINE",
"39 600 LINE SMOOTH",
"72 600 OFFCURVE",
"85 585 OFFCURVE",
"85 558 CURVE SMOOTH",
"85 71 LINE SMOOTH",
"85 44 OFFCURVE",
"70 30 OFFCURVE",
"40 30 CURVE SMOOTH",
"13 30 LINE",
"13 0 LINE",
"198 0 LINE",
"198 30 LINE",
"171 30 LINE SMOOTH",
"141 30 OFFCURVE",
"126 44 OFFCURVE",
"126 71 CURVE SMOOTH",
"126 146 LINE",
"200 146 LINE SMOOTH"
);
},
{
closed = 1;
nodes = (
"126 181 LINE",
"126 471 LINE",
"212 471 LINE SMOOTH",
"310 471 OFFCURVE",
"358 424 OFFCURVE",
"358 327 CURVE SMOOTH",
"358 228 OFFCURVE",
"308 181 OFFCURVE",
"202 181 CURVE SMOOTH"
);
}
);
width = 418;
},
{
layerId = "B25F85BC-C782-4067-8484-07202F80B8CD";
name = Condensed;
paths = (
{
closed = 1;
nodes = (
"412 140 OFFCURVE",
"492 200 OFFCURVE",
"492 320 CURVE SMOOTH",
"492 433 OFFCURVE",
"421 490 OFFCURVE",
"270 490 CURVE SMOOTH",
"215 490 LINE",
"215 508 LINE SMOOTH",
"215 527 OFFCURVE",
"221 540 OFFCURVE",
"238 540 CURVE SMOOTH",
"287 540 LINE",
"287 630 LINE",
"15 630 LINE",
"15 540 LINE",
"50 540 LINE SMOOTH",
"71 540 OFFCURVE",
"77 527 OFFCURVE",
"77 508 CURVE SMOOTH",
"77 121 LINE SMOOTH",
"77 101 OFFCURVE",
"68 90 OFFCURVE",
"52 90 CURVE SMOOTH",
"15 90 LINE",
"15 0 LINE",
"287 0 LINE",
"287 90 LINE",
"250 90 LINE SMOOTH",
"225 90 OFFCURVE",
"215 99 OFFCURVE",
"215 121 CURVE SMOOTH",
"215 140 LINE",
"259 140 LINE SMOOTH"
);
},
{
closed = 1;
nodes = (
"215 235 LINE",
"215 400 LINE",
"261 400 LINE SMOOTH",
"319 400 OFFCURVE",
"347 371 OFFCURVE",
"347 322 CURVE SMOOTH",
"347 268 OFFCURVE",
"314 235 OFFCURVE",
"251 235 CURVE SMOOTH"
);
}
);
width = 502;
},
{
background = {
paths = (
{
closed = 1;
nodes = (
"7 0 LINE",
"276 0 LINE",
"276 108 LINE",
"257 108 LINE SMOOTH",
"240 108 OFFCURVE",
"232 119 OFFCURVE",
"232 139 CURVE SMOOTH",
"232 490 LINE SMOOTH",
"232 511 OFFCURVE",
"239 522 OFFCURVE",
"258 522 CURVE SMOOTH",
"276 522 LINE",
"276 630 LINE",
"7 630 LINE",
"7 522 LINE",
"25 522 LINE SMOOTH",
"44 522 OFFCURVE",
"51 511 OFFCURVE",
"51 490 CURVE SMOOTH",
"51 139 LINE SMOOTH",
"51 119 OFFCURVE",
"43 108 OFFCURVE",
"26 108 CURVE SMOOTH",
"7 108 LINE"
);
}
);
};
layerId = "B817C739-5D48-43E8-AAEE-CE891513D7BC";
name = "Bold Condensed";
paths = (
{
closed = 1;
nodes = (
"395 150 OFFCURVE",
"472 207 OFFCURVE",
"472 316 CURVE SMOOTH",
"472 423 OFFCURVE",
"397 480 OFFCURVE",
"250 480 CURVE SMOOTH",
"232 480 LINE",
"232 490 LINE SMOOTH",
"232 511 OFFCURVE",
"239 522 OFFCURVE",
"258 522 CURVE SMOOTH",
"297 522 LINE",
"297 630 LINE",
"7 630 LINE",
"7 522 LINE",
"25 522 LINE SMOOTH",
"44 522 OFFCURVE",
"51 511 OFFCURVE",
"51 490 CURVE SMOOTH",
"51 139 LINE SMOOTH",
"51 119 OFFCURVE",
"42 108 OFFCURVE",
"26 108 CURVE SMOOTH",
"7 108 LINE",
"7 0 LINE",
"297 0 LINE",
"297 108 LINE",
"266 108 LINE SMOOTH",
"241 108 OFFCURVE",
"231 117 OFFCURVE",
"231 139 CURVE SMOOTH",
"231 150 LINE",
"249 150 LINE SMOOTH"
);
},
{
closed = 1;
nodes = (
"231 259 LINE",
"231 372 LINE",
"251 372 LINE SMOOTH",
"280 372 OFFCURVE",
"297 349 OFFCURVE",
"297 317 CURVE SMOOTH",
"297 292 OFFCURVE",
"283 259 OFFCURVE",
"249 259 CURVE SMOOTH"
);
}
);
width = 482;
},
{
background = {
paths = (
{
closed = 1;
nodes = (
"31 0 LINE",
"277 0 LINE",
"277 36 LINE",
"201 36 LINE SMOOTH",
"184 36 OFFCURVE",
"178 49 OFFCURVE",
"178 68 CURVE SMOOTH",
"178 561 LINE SMOOTH",
"178 580 OFFCURVE",
"184 593 OFFCURVE",
"201 593 CURVE SMOOTH",
"278 593 LINE",
"278 629 LINE",
"30 629 LINE",
"30 593 LINE",
"103 593 LINE SMOOTH",
"124 593 OFFCURVE",
"130 580 OFFCURVE",
"130 561 CURVE SMOOTH",
"130 68 LINE SMOOTH",
"130 49 OFFCURVE",
"124 36 OFFCURVE",
"103 36 CURVE SMOOTH",
"31 36 LINE"
);
}
);
};
layerId = UUID0;
name = "Light Extended";
paths = (
{
closed = 1;
nodes = (
"567 120 OFFCURVE",
"651 187 OFFCURVE",
"651 313 CURVE SMOOTH",
"651 432 OFFCURVE",
"574 500 OFFCURVE",
"429 500 CURVE SMOOTH",
"178 500 LINE",
"178 561 LINE SMOOTH",
"178 580 OFFCURVE",
"184 593 OFFCURVE",
"201 593 CURVE SMOOTH",
"297 593 LINE",
"297 629 LINE",
"30 629 LINE",
"30 593 LINE",
"103 593 LINE SMOOTH",
"124 593 OFFCURVE",
"130 580 OFFCURVE",
"130 561 CURVE SMOOTH",
"130 69 LINE SMOOTH",
"130 45 OFFCURVE",
"121 36 OFFCURVE",
"103 36 CURVE SMOOTH",
"31 36 LINE",
"31 0 LINE",
"297 0 LINE",
"297 36 LINE",
"205 36 LINE SMOOTH",
"187 36 OFFCURVE",
"178 44 OFFCURVE",
"178 69 CURVE SMOOTH",
"178 120 LINE",
"418 120 LINE SMOOTH"
);
},
{
closed = 1;
nodes = (
"178 161 LINE",
"178 459 LINE",
"430 459 LINE SMOOTH",
"549 459 OFFCURVE",
"606 412 OFFCURVE",
"606 312 CURVE SMOOTH",
"606 208 OFFCURVE",
"545 161 OFFCURVE",
"420 161 CURVE SMOOTH"
);
}
);
width = 691;
},
{
background = {
paths = (
{
closed = 1;
nodes = (
"22 0 LINE",
"381 0 LINE",
"381 90 LINE",
"285 90 LINE SMOOTH",
"268 90 OFFCURVE",
"262 103 OFFCURVE",
"262 122 CURVE SMOOTH",
"262 508 LINE SMOOTH",
"262 527 OFFCURVE",
"268 540 OFFCURVE",
"285 540 CURVE SMOOTH",
"381 540 LINE",
"381 630 LINE",
"22 630 LINE",
"22 540 LINE",
"97 540 LINE SMOOTH",
"118 540 OFFCURVE",
"124 527 OFFCURVE",
"124 508 CURVE SMOOTH",
"124 122 LINE SMOOTH",
"124 103 OFFCURVE",
"118 90 OFFCURVE",
"97 90 CURVE SMOOTH",
"22 90 LINE"
);
}
);
};
layerId = "4355E1B8-19E6-44BD-A1D7-6E3C2DECA4C8";
name = Extended;
paths = (
{
closed = 1;
nodes = (
"653 143 OFFCURVE",
"735 213 OFFCURVE",
"735 322 CURVE SMOOTH",
"735 427 OFFCURVE",
"658 493 OFFCURVE",
"513 493 CURVE SMOOTH",
"262 493 LINE",
"262 508 LINE SMOOTH",
"262 527 OFFCURVE",
"268 540 OFFCURVE",
"285 540 CURVE SMOOTH",
"381 540 LINE",
"381 630 LINE",
"22 630 LINE",
"22 540 LINE",
"97 540 LINE SMOOTH",
"118 540 OFFCURVE",
"124 527 OFFCURVE",
"124 508 CURVE SMOOTH",
"124 123 LINE SMOOTH",
"124 100 OFFCURVE",
"116 90 OFFCURVE",
"97 90 CURVE SMOOTH",
"22 90 LINE",
"22 0 LINE",
"381 0 LINE",
"381 90 LINE",
"289 90 LINE SMOOTH",
"270 90 OFFCURVE",
"262 100 OFFCURVE",
"262 123 CURVE SMOOTH",
"262 143 LINE",
"502 143 LINE SMOOTH"
);
},
{
closed = 1;
nodes = (
"262 244 LINE",
"262 398 LINE",
"484 398 LINE SMOOTH",
"555 398 OFFCURVE",
"588 368 OFFCURVE",
"588 324 CURVE SMOOTH",
"588 277 OFFCURVE",
"561 244 OFFCURVE",
"474 244 CURVE SMOOTH"
);
}
);
width = 755;
},
{
layerId = "14C77FDB-037D-4842-9381-6D9ED15DD48C";
name = "Bold Extended";
paths = (
{
closed = 1;
nodes = (
"714 167 OFFCURVE",
"771 239 OFFCURVE",
"771 326 CURVE SMOOTH",
"771 407 OFFCURVE",
"723 467 OFFCURVE",
"579 467 CURVE SMOOTH",
"356 467 LINE",
"356 469 LINE SMOOTH",
"356 478 OFFCURVE",
"362 488 OFFCURVE",
"379 488 CURVE SMOOTH",
"495 488 LINE",
"495 630 LINE",
"17 630 LINE",
"17 478 LINE",
"79 478 LINE SMOOTH",
"100 478 OFFCURVE",
"106 465 OFFCURVE",
"106 446 CURVE SMOOTH",
"106 175 LINE SMOOTH",
"106 162 OFFCURVE",
"98 152 OFFCURVE",
"79 152 CURVE SMOOTH",
"17 152 LINE",
"17 0 LINE",
"495 0 LINE",
"495 142 LINE",
"383 142 LINE SMOOTH",
"364 142 OFFCURVE",
"356 152 OFFCURVE",
"356 165 CURVE SMOOTH",
"356 167 LINE",
"568 167 LINE SMOOTH"
);
},
{
closed = 1;
nodes = (
"356 297 LINE",
"356 341 LINE",
"474 341 LINE SMOOTH",
"495 341 OFFCURVE",
"502 333 OFFCURVE",
"502 319 CURVE SMOOTH",
"502 309 OFFCURVE",
"496 297 OFFCURVE",
"474 297 CURVE SMOOTH"
);
}
);
width = 786;
}
);
unicode = 00DE;
},
{
glyphname = Q;
lastChange = "2015-05-08 17:09:39 +0000";
layers = (
{
guideLines = (
{
position = "{547, -96}";
}
);
layerId = "E9E6D55E-9446-45F2-B66C-3272698B0216";
name = "Light Condensed";
paths = (
{
closed = 1;
nodes = (
"334 -10 OFFCURVE",
"409 100 OFFCURVE",
"409 321 CURVE SMOOTH",
"409 541 OFFCURVE",
"333 640 OFFCURVE",
"217 640 CURVE SMOOTH",
"104 640 OFFCURVE",
"30 545 OFFCURVE",
"30 319 CURVE SMOOTH",
"30 89 OFFCURVE",
"105 -10 OFFCURVE",
"216 -10 CURVE SMOOTH"
);
},
{
closed = 1;
nodes = (
"117 28 OFFCURVE",
"76 114 OFFCURVE",
"76 318 CURVE SMOOTH",
"76 517 OFFCURVE",
"116 602 OFFCURVE",
"218 602 CURVE SMOOTH",
"320 602 OFFCURVE",
"364 519 OFFCURVE",
"364 318 CURVE SMOOTH",
"364 112 OFFCURVE",
"319 28 OFFCURVE",
"218 28 CURVE SMOOTH"
);
},
{
closed = 1;
nodes = (
"327 150 OFFCURVE",
"248 -96 OFFCURVE",
"374 -96 CURVE SMOOTH",
"433 -96 OFFCURVE",
"449 -41 OFFCURVE",
"449 107 CURVE",
"419 107 LINE",
"419 -13 OFFCURVE",
"407 -51 OFFCURVE",
"376 -51 CURVE SMOOTH",
"300 -51 OFFCURVE",
"349 188 OFFCURVE",
"204 188 CURVE SMOOTH",
"130 188 OFFCURVE",
"99 125 OFFCURVE",
"98 88 CURVE SMOOTH",
"97 64 OFFCURVE",
"108 39 OFFCURVE",
"131 39 CURVE SMOOTH",
"138 39 OFFCURVE",
"145 41 OFFCURVE",
"153 45 CURVE",
"139 54 OFFCURVE",
"132 68 OFFCURVE",
"132 84 CURVE SMOOTH",
"132 115 OFFCURVE",
"158 150 OFFCURVE",
"204 150 CURVE SMOOTH"
);
}
);
width = 459;
},
{
layerId = "B25F85BC-C782-4067-8484-07202F80B8CD";
name = Condensed;
paths = (
{
closed = 1;
nodes = (
"414 -12 OFFCURVE",
"494 84 OFFCURVE",
"495 315 CURVE SMOOTH",
"496 543 OFFCURVE",
"414 640 OFFCURVE",
"264 640 CURVE SMOOTH",
"115 640 OFFCURVE",
"35 544 OFFCURVE",
"35 315 CURVE SMOOTH",
"35 84 OFFCURVE",
"115 -12 OFFCURVE",
"264 -12 CURVE SMOOTH"
);
},
{
closed = 1;
nodes = (
"213 93 OFFCURVE",
"186 150 OFFCURVE",
"186 312 CURVE SMOOTH",
"186 474 OFFCURVE",
"214 535 OFFCURVE",
"268 535 CURVE SMOOTH",
"320 535 OFFCURVE",
"344 478 OFFCURVE",
"344 308 CURVE SMOOTH",
"344 147 OFFCURVE",
"323 93 OFFCURVE",
"269 93 CURVE SMOOTH"
);
},
{
closed = 1;
nodes = (
"360 165 OFFCURVE",
"272 -141 OFFCURVE",
"446 -141 CURVE SMOOTH",
"530 -141 OFFCURVE",
"569 -69 OFFCURVE",
"569 87 CURVE",
"486 87 LINE",
"490 6 OFFCURVE",
"478 -31 OFFCURVE",
"447 -31 CURVE SMOOTH",
"356 -31 OFFCURVE",
"459 248 OFFCURVE",
"283 248 CURVE SMOOTH",
"230 248 OFFCURVE",
"190 219 OFFCURVE",
"190 165 CURVE SMOOTH",
"190 123 OFFCURVE",
"205 91 OFFCURVE",
"225 91 CURVE SMOOTH",
"231 91 OFFCURVE",
"239 93 OFFCURVE",
"246 97 CURVE",
"227 107 OFFCURVE",
"218 118 OFFCURVE",
"218 131 CURVE SMOOTH",
"218 151 OFFCURVE",
"234 165 OFFCURVE",
"256 165 CURVE SMOOTH"
);
}
);
width = 569;
},
{
layerId = "B817C739-5D48-43E8-AAEE-CE891513D7BC";
name = "Bold Condensed";
paths = (
{
closed = 1;
nodes = (
"397 -10 OFFCURVE",
"477 67 OFFCURVE",
"477 328 CURVE SMOOTH",
"477 571 OFFCURVE",
"406 640 OFFCURVE",
"243 640 CURVE SMOOTH",
"87 640 OFFCURVE",
"16 571 OFFCURVE",
"16 327 CURVE SMOOTH",
"16 67 OFFCURVE",
"97 -10 OFFCURVE",
"242 -10 CURVE SMOOTH"
);
},
{
closed = 1;
nodes = (
"213 128 OFFCURVE",
"215 154 OFFCURVE",
"215 300 CURVE SMOOTH",
"215 482 OFFCURVE",
"219 502 OFFCURVE",
"246 502 CURVE SMOOTH",
"273 502 OFFCURVE",
"278 484 OFFCURVE",
"278 312 CURVE SMOOTH",
"278 154 OFFCURVE",
"274 128 OFFCURVE",
"246 128 CURVE SMOOTH"
);
},
{
closed = 1;
nodes = (
"308 165 OFFCURVE",
"193 -141 OFFCURVE",
"420 -141 CURVE SMOOTH",
"540 -141 OFFCURVE",
"579 -69 OFFCURVE",
"579 108 CURVE",
"456 108 LINE",
"460 -5 OFFCURVE",
"448 -21 OFFCURVE",
"425 -21 CURVE SMOOTH",
"356 -21 OFFCURVE",
"464 248 OFFCURVE",
"259 248 CURVE SMOOTH",
"220 248 OFFCURVE",
"202 232 OFFCURVE",
"202 184 CURVE SMOOTH",
"202 145 OFFCURVE",
"214 121 OFFCURVE",
"226 121 CURVE SMOOTH",
"230 121 OFFCURVE",
"237 124 OFFCURVE",
"244 128 CURVE",
"229 128 OFFCURVE",
"224 138 OFFCURVE",
"224 147 CURVE SMOOTH",
"224 156 OFFCURVE",
"229 165 OFFCURVE",
"241 165 CURVE SMOOTH"
);
}
);
width = 589;
},
{
layerId = UUID0;
name = "Light Extended";
paths = (
{
closed = 1;
nodes = (
"601 -10 OFFCURVE",
"725 98 OFFCURVE",
"725 314 CURVE SMOOTH",
"725 533 OFFCURVE",
"599 640 OFFCURVE",
"402 640 CURVE SMOOTH",
"205 640 OFFCURVE",
"75 532 OFFCURVE",
"75 313 CURVE SMOOTH",
"75 99 OFFCURVE",
"200 -10 OFFCURVE",
"401 -10 CURVE SMOOTH"
);
},
{
closed = 1;
nodes = (
"245 31 OFFCURVE",
"124 99 OFFCURVE",
"124 314 CURVE SMOOTH",
"124 525 OFFCURVE",
"240 599 OFFCURVE",
"406 599 CURVE SMOOTH",
"573 599 OFFCURVE",
"676 524 OFFCURVE",
"676 315 CURVE SMOOTH",
"676 101 OFFCURVE",
"567 31 OFFCURVE",
"405 31 CURVE SMOOTH"
);
},
{
closed = 1;
nodes = (
"540 150 OFFCURVE",
"464 -96 OFFCURVE",
"659 -96 CURVE SMOOTH",
"753 -96 OFFCURVE",
"790 -39 OFFCURVE",
"790 107 CURVE",
"750 107 LINE",
"750 -8 OFFCURVE",
"725 -51 OFFCURVE",
"658 -51 CURVE SMOOTH",
"500 -51 OFFCURVE",
"578 193 OFFCURVE",
"373 193 CURVE SMOOTH",
"291 193 OFFCURVE",
"239 153 OFFCURVE",
"239 90 CURVE SMOOTH",
"239 58 OFFCURVE",
"252 39 OFFCURVE",
"274 39 CURVE SMOOTH",
"282 39 OFFCURVE",
"292 41 OFFCURVE",
"298 44 CURVE",
"282 49 OFFCURVE",
"273 63 OFFCURVE",
"273 84 CURVE SMOOTH",
"273 125 OFFCURVE",
"308 150 OFFCURVE",
"365 150 CURVE SMOOTH"
);
}
);
width = 800;
},
{
layerId = "4355E1B8-19E6-44BD-A1D7-6E3C2DECA4C8";
name = Extended;
paths = (
{
closed = 1;
nodes = (
"627 -12 OFFCURVE",
"755 114 OFFCURVE",
"755 315 CURVE SMOOTH",
"755 513 OFFCURVE",
"627 640 OFFCURVE",
"405 640 CURVE SMOOTH",
"183 640 OFFCURVE",
"55 514 OFFCURVE",
"55 315 CURVE SMOOTH",
"55 114 OFFCURVE",
"182 -12 OFFCURVE",
"404 -12 CURVE SMOOTH"
);
},
{
closed = 1;
nodes = (
"269 93 OFFCURVE",
"204 170 OFFCURVE",
"204 313 CURVE SMOOTH",
"204 454 OFFCURVE",
"270 535 OFFCURVE",
"408 535 CURVE SMOOTH",
"544 535 OFFCURVE",
"606 457 OFFCURVE",
"606 312 CURVE SMOOTH",
"606 166 OFFCURVE",
"547 93 OFFCURVE",
"409 93 CURVE SMOOTH"
);
},
{
closed = 1;
nodes = (
"549 175 OFFCURVE",
"413 -146 OFFCURVE",
"683 -146 CURVE SMOOTH",
"804 -146 OFFCURVE",
"850 -78 OFFCURVE",
"850 87 CURVE",
"738 87 LINE",
"738 3 OFFCURVE",
"723 -31 OFFCURVE",
"687 -31 CURVE SMOOTH",
"579 -31 OFFCURVE",
"674 265 OFFCURVE",
"416 265 CURVE SMOOTH",
"318 265 OFFCURVE",
"252 222 OFFCURVE",
"252 159 CURVE SMOOTH",
"252 117 OFFCURVE",
"282 91 OFFCURVE",
"332 91 CURVE SMOOTH",
"346 91 OFFCURVE",
"358 93 OFFCURVE",
"364 96 CURVE",
"342 100 OFFCURVE",
"330 112 OFFCURVE",
"330 130 CURVE SMOOTH",
"330 157 OFFCURVE",
"354 175 OFFCURVE",
"392 175 CURVE SMOOTH"
);
}
);
width = 860;
},
{
layerId = "14C77FDB-037D-4842-9381-6D9ED15DD48C";
name = "Bold Extended";
paths = (
{
closed = 1;
nodes = (
"651 -10 OFFCURVE",
"787 98 OFFCURVE",
"787 315 CURVE SMOOTH",
"787 532 OFFCURVE",
"649 640 OFFCURVE",
"402 640 CURVE SMOOTH",
"154 640 OFFCURVE",
"17 532 OFFCURVE",
"17 314 CURVE SMOOTH",
"17 98 OFFCURVE",
"151 -10 OFFCURVE",
"401 -10 CURVE SMOOTH"
);
},
{
closed = 1;
nodes = (
"340 175 OFFCURVE",
"300 199 OFFCURVE",
"300 313 CURVE SMOOTH",
"300 421 OFFCURVE",
"337 455 OFFCURVE",
"402 455 CURVE SMOOTH",
"470 455 OFFCURVE",
"504 417 OFFCURVE",
"504 313 CURVE SMOOTH",
"504 202 OFFCURVE",
"468 175 OFFCURVE",
"402 175 CURVE SMOOTH"
);
},
{
closed = 1;
nodes = (
"515 225 OFFCURVE",
"385 -156 OFFCURVE",
"699 -156 CURVE SMOOTH",
"835 -156 OFFCURVE",
"890 -86 OFFCURVE",
"890 87 CURVE",
"738 87 LINE",
"738 16 OFFCURVE",
"727 -13 OFFCURVE",
"699 -13 CURVE SMOOTH",
"605 -13 OFFCURVE",
"681 320 OFFCURVE",
"422 320 CURVE SMOOTH",
"338 320 OFFCURVE",
"288 285 OFFCURVE",
"288 227 CURVE SMOOTH",
"288 189 OFFCURVE",
"311 160 OFFCURVE",
"342 160 CURVE SMOOTH",
"357 160 OFFCURVE",
"376 168 OFFCURVE",
"382 176 CURVE",
"359 179 OFFCURVE",
"350 186 OFFCURVE",
"350 199 CURVE SMOOTH",
"350 215 OFFCURVE",
"362 225 OFFCURVE",
"383 225 CURVE SMOOTH"
);
}
);
width = 900;
}
);
unicode = 0051;
},
{
color = 6;
glyphname = R;
lastChange = "2015-05-08 17:26:04 +0000";
layers = (
{
background = {
paths = (
{
closed = 1;
nodes = (
"40 30 LINE SMOOTH",
"70 30 OFFCURVE",
"85 44 OFFCURVE",
"85 71 CURVE SMOOTH",
"85 558 LINE SMOOTH",
"85 587 OFFCURVE",
"70 600 OFFCURVE",
"39 600 CURVE SMOOTH",
"13 600 LINE",
"13 630 LINE",
"211 630 LINE SMOOTH",
"335 630 OFFCURVE",
"403 568 OFFCURVE",
"403 471 CURVE SMOOTH",
"403 369 OFFCURVE",
"320 302 OFFCURVE",
"230 302 CURVE SMOOTH",
"113 302 LINE",
"113 337 LINE",
"202 337 LINE SMOOTH",
"308 337 OFFCURVE",
"358 384 OFFCURVE",
"358 467 CURVE SMOOTH",
"358 548 OFFCURVE",
"310 595 OFFCURVE",
"212 595 CURVE SMOOTH",
"126 595 LINE",
"126 71 LINE SMOOTH",
"126 44 OFFCURVE",
"141 30 OFFCURVE",
"171 30 CURVE SMOOTH",
"198 30 LINE",
"198 0 LINE",
"13 0 LINE",
"13 30 LINE"
);
},
{
closed = 1;
nodes = (
"356 -10 OFFCURVE",
"325 15 OFFCURVE",
"325 76 CURVE SMOOTH",
"325 178 LINE SMOOTH",
"325 280 OFFCURVE",
"292 302 OFFCURVE",
"224 302 CURVE",
"224 333 LINE",
"259 333 OFFCURVE",
"292 332 OFFCURVE",
"309 321 CURVE",
"309 316 LINE",
"350 296 OFFCURVE",
"366 253 OFFCURVE",
"366 177 CURVE SMOOTH",
"366 75 LINE SMOOTH",
"366 36 OFFCURVE",
"379 21 OFFCURVE",
"397 21 CURVE SMOOTH",
"415 21 OFFCURVE",
"428 36 OFFCURVE",
"428 75 CURVE SMOOTH",
"428 166 LINE",
"463 166 LINE",
"463 76 LINE SMOOTH",
"463 15 OFFCURVE",
"437 -10 OFFCURVE",
"397 -10 CURVE SMOOTH"
);
}
);
};
layerId = "E9E6D55E-9446-45F2-B66C-3272698B0216";
name = "Light Condensed";
paths = (
{
closed = 1;
nodes = (
"40 30 LINE SMOOTH",
"70 30 OFFCURVE",
"85 44 OFFCURVE",
"85 71 CURVE SMOOTH",
"85 558 LINE SMOOTH",
"85 587 OFFCURVE",
"70 600 OFFCURVE",
"39 600 CURVE SMOOTH",
"13 600 LINE",
"13 630 LINE",
"196 630 LINE SMOOTH",
"320 630 OFFCURVE",
"388 568 OFFCURVE",
"388 471 CURVE SMOOTH",
"388 369 OFFCURVE",
"305 302 OFFCURVE",
"215 302 CURVE SMOOTH",
"113 302 LINE",
"113 337 LINE",
"187 337 LINE SMOOTH",
"293 337 OFFCURVE",
"343 384 OFFCURVE",
"343 467 CURVE SMOOTH",
"343 548 OFFCURVE",
"295 595 OFFCURVE",
"197 595 CURVE SMOOTH",
"126 595 LINE",
"126 71 LINE SMOOTH",
"126 44 OFFCURVE",
"141 30 OFFCURVE",
"171 30 CURVE SMOOTH",
"198 30 LINE",
"198 0 LINE",
"13 0 LINE",
"13 30 LINE"
);
},
{
closed = 1;
nodes = (
"341 -10 OFFCURVE",
"310 15 OFFCURVE",
"310 76 CURVE SMOOTH",
"310 178 LINE SMOOTH",
"310 280 OFFCURVE",
"277 302 OFFCURVE",
"209 302 CURVE",
"209 333 LINE",
"244 333 OFFCURVE",
"277 332 OFFCURVE",
"294 321 CURVE",
"294 316 LINE",
"335 296 OFFCURVE",
"351 253 OFFCURVE",
"351 177 CURVE SMOOTH",
"351 75 LINE SMOOTH",
"351 36 OFFCURVE",
"364 21 OFFCURVE",
"382 21 CURVE SMOOTH",
"400 21 OFFCURVE",
"413 36 OFFCURVE",
"413 75 CURVE SMOOTH",
"413 166 LINE",
"448 166 LINE",
"448 76 LINE SMOOTH",
"448 15 OFFCURVE",
"422 -10 OFFCURVE",
"382 -10 CURVE SMOOTH"
);
}
);
width = 463;
},
{
background = {
paths = (
{
closed = 1;
nodes = (
"52 90 LINE SMOOTH",
"68 90 OFFCURVE",
"77 101 OFFCURVE",
"77 121 CURVE SMOOTH",
"77 508 LINE SMOOTH",
"77 531 OFFCURVE",
"68 540 OFFCURVE",
"46 540 CURVE SMOOTH",
"15 540 LINE",
"15 630 LINE",
"270 630 LINE SMOOTH",
"418 630 OFFCURVE",
"492 570 OFFCURVE",
"492 459 CURVE SMOOTH",
"492 346 OFFCURVE",
"414 272 OFFCURVE",
"286 272 CURVE SMOOTH",
"202 272 LINE",
"202 367 LINE",
"251 367 LINE SMOOTH",
"315 367 OFFCURVE",
"347 401 OFFCURVE",
"347 458 CURVE SMOOTH",
"347 511 OFFCURVE",
"319 540 OFFCURVE",
"261 540 CURVE SMOOTH",
"215 540 LINE",
"215 121 LINE SMOOTH",
"215 99 OFFCURVE",
"225 90 OFFCURVE",
"250 90 CURVE SMOOTH",
"287 90 LINE",
"287 0 LINE",
"15 0 LINE",
"15 90 LINE"
);
},
{
closed = 1;
nodes = (
"361 -10 OFFCURVE",
"322 32 OFFCURVE",
"322 126 CURVE SMOOTH",
"322 174 LINE SMOOTH",
"322 239 OFFCURVE",
"317 272 OFFCURVE",
"261 272 CURVE",
"284 311 LINE",
"364 311 OFFCURVE",
"384 309 OFFCURVE",
"399 299 CURVE",
"399 294 LINE",
"438 284 OFFCURVE",
"456 256 OFFCURVE",
"456 208 CURVE SMOOTH",
"456 125 LINE SMOOTH",
"456 101 OFFCURVE",
"462 91 OFFCURVE",
"476 91 CURVE SMOOTH",
"489 91 OFFCURVE",
"495 101 OFFCURVE",
"495 125 CURVE SMOOTH",
"495 176 LINE",
"573 176 LINE",
"573 126 LINE SMOOTH",
"573 30 OFFCURVE",
"541 -10 OFFCURVE",
"452 -10 CURVE SMOOTH"
);
}
);
};
layerId = "B25F85BC-C782-4067-8484-07202F80B8CD";
name = Condensed;
paths = (
{
closed = 1;
nodes = (
"52 90 LINE SMOOTH",
"68 90 OFFCURVE",
"77 101 OFFCURVE",
"77 121 CURVE SMOOTH",
"77 508 LINE SMOOTH",
"77 531 OFFCURVE",
"68 540 OFFCURVE",
"46 540 CURVE SMOOTH",
"15 540 LINE",
"15 630 LINE",
"270 630 LINE SMOOTH",
"398 630 OFFCURVE",
"472 570 OFFCURVE",
"472 459 CURVE SMOOTH",
"472 346 OFFCURVE",
"394 272 OFFCURVE",
"266 272 CURVE SMOOTH",
"202 272 LINE",
"202 367 LINE",
"236 367 LINE SMOOTH",
"300 367 OFFCURVE",
"332 401 OFFCURVE",
"332 458 CURVE SMOOTH",
"332 511 OFFCURVE",
"304 540 OFFCURVE",
"246 540 CURVE SMOOTH",
"215 540 LINE",
"215 121 LINE SMOOTH",
"215 99 OFFCURVE",
"225 90 OFFCURVE",
"250 90 CURVE SMOOTH",
"277 90 LINE",
"277 0 LINE",
"15 0 LINE",
"15 90 LINE"
);
},
{
closed = 1;
nodes = (
"338 -10 OFFCURVE",
"299 32 OFFCURVE",
"299 126 CURVE SMOOTH",
"299 174 LINE SMOOTH",
"299 239 OFFCURVE",
"294 272 OFFCURVE",
"238 272 CURVE",
"261 311 LINE",
"341 311 OFFCURVE",
"361 306 OFFCURVE",
"376 296 CURVE",
"376 291 LINE",
"415 281 OFFCURVE",
"433 256 OFFCURVE",
"433 208 CURVE SMOOTH",
"433 125 LINE SMOOTH",
"433 101 OFFCURVE",
"439 91 OFFCURVE",
"453 91 CURVE SMOOTH",
"466 91 OFFCURVE",
"472 101 OFFCURVE",
"472 125 CURVE SMOOTH",
"472 176 LINE",
"550 176 LINE",
"550 126 LINE SMOOTH",
"550 30 OFFCURVE",
"518 -10 OFFCURVE",
"429 -10 CURVE SMOOTH"
);
}
);
width = 550;
},
{
background = {
paths = (
{
closed = 1;
nodes = (
"26 108 LINE SMOOTH",
"42 108 OFFCURVE",
"51 119 OFFCURVE",
"51 139 CURVE SMOOTH",
"51 490 LINE SMOOTH",
"51 515 OFFCURVE",
"42 522 OFFCURVE",
"20 522 CURVE SMOOTH",
"7 522 LINE",
"7 630 LINE",
"250 630 LINE SMOOTH",
"397 630 OFFCURVE",
"472 573 OFFCURVE",
"472 442 CURVE SMOOTH",
"472 309 OFFCURVE",
"395 252 OFFCURVE",
"249 252 CURVE SMOOTH",
"218 252 LINE",
"218 361 LINE",
"241 361 LINE SMOOTH",
"283 361 OFFCURVE",
"297 394 OFFCURVE",
"297 443 CURVE SMOOTH",
"297 499 OFFCURVE",
"280 522 OFFCURVE",
"251 522 CURVE SMOOTH",
"231 522 LINE",
"231 129 LINE SMOOTH",
"231 113 OFFCURVE",
"237 108 OFFCURVE",
"248 108 CURVE SMOOTH",
"256 108 LINE",
"256 0 LINE",
"7 0 LINE",
"7 108 LINE"
);
},
{
closed = 1;
nodes = (
"326 -10 OFFCURVE",
"285 31 OFFCURVE",
"285 126 CURVE SMOOTH",
"285 184 LINE SMOOTH",
"285 231 OFFCURVE",
"272 252 OFFCURVE",
"244 252 CURVE",
"247 311 LINE",
"345 311 OFFCURVE",
"391 306 OFFCURVE",
"409 294 CURVE",
"409 289 LINE",
"438 269 OFFCURVE",
"452 236 OFFCURVE",
"452 188 CURVE SMOOTH",
"452 124 LINE SMOOTH",
"452 114 OFFCURVE",
"454 111 OFFCURVE",
"461 111 CURVE SMOOTH",
"467 111 OFFCURVE",
"470 115 OFFCURVE",
"470 124 CURVE SMOOTH",
"470 176 LINE",
"548 176 LINE",
"548 126 LINE SMOOTH",
"548 27 OFFCURVE",
"513 -10 OFFCURVE",
"421 -10 CURVE SMOOTH"
);
}
);
};
layerId = "B817C739-5D48-43E8-AAEE-CE891513D7BC";
name = "Bold Condensed";
paths = (
{
closed = 1;
nodes = (
"26 108 LINE SMOOTH",
"42 108 OFFCURVE",
"51 119 OFFCURVE",
"51 139 CURVE SMOOTH",
"51 490 LINE SMOOTH",
"51 515 OFFCURVE",
"42 522 OFFCURVE",
"20 522 CURVE SMOOTH",
"7 522 LINE",
"7 630 LINE",
"250 630 LINE SMOOTH",
"387 630 OFFCURVE",
"462 573 OFFCURVE",
"462 442 CURVE SMOOTH",
"462 309 OFFCURVE",
"385 252 OFFCURVE",
"249 252 CURVE SMOOTH",
"218 252 LINE",
"218 361 LINE",
"241 361 LINE SMOOTH",
"273 361 OFFCURVE",
"287 394 OFFCURVE",
"287 443 CURVE SMOOTH",
"287 499 OFFCURVE",
"270 522 OFFCURVE",
"251 522 CURVE SMOOTH",
"231 522 LINE",
"231 129 LINE SMOOTH",
"231 113 OFFCURVE",
"237 108 OFFCURVE",
"248 108 CURVE SMOOTH",
"256 108 LINE",
"256 0 LINE",
"7 0 LINE",
"7 108 LINE"
);
},
{
closed = 1;
nodes = (
"326 -10 OFFCURVE",
"285 31 OFFCURVE",
"285 126 CURVE SMOOTH",
"285 184 LINE SMOOTH",
"285 231 OFFCURVE",
"272 252 OFFCURVE",
"244 252 CURVE",
"247 311 LINE",
"335 311 OFFCURVE",
"381 306 OFFCURVE",
"399 294 CURVE",
"399 289 LINE",
"428 269 OFFCURVE",
"442 236 OFFCURVE",
"442 188 CURVE SMOOTH",
"442 124 LINE SMOOTH",
"442 114 OFFCURVE",
"444 111 OFFCURVE",
"451 111 CURVE SMOOTH",
"457 111 OFFCURVE",
"460 115 OFFCURVE",
"460 124 CURVE SMOOTH",
"460 176 LINE",
"538 176 LINE",
"538 126 LINE SMOOTH",
"538 27 OFFCURVE",
"503 -10 OFFCURVE",
"411 -10 CURVE SMOOTH"
);
}
);
width = 543;
},
{
background = {
paths = (
{
closed = 1;
nodes = (
"103 36 LINE SMOOTH",
"121 36 OFFCURVE",
"130 45 OFFCURVE",
"130 69 CURVE SMOOTH",
"130 562 LINE SMOOTH",
"130 587 OFFCURVE",
"121 594 OFFCURVE",
"97 594 CURVE SMOOTH",
"30 594 LINE",
"30 630 LINE",
"429 630 LINE SMOOTH",
"574 630 OFFCURVE",
"651 562 OFFCURVE",
"651 459 CURVE SMOOTH",
"651 349 OFFCURVE",
"567 282 OFFCURVE",
"418 282 CURVE SMOOTH",
"165 282 LINE",
"165 323 LINE",
"420 323 LINE SMOOTH",
"545 323 OFFCURVE",
"606 370 OFFCURVE",
"606 458 CURVE SMOOTH",
"606 542 OFFCURVE",
"549 589 OFFCURVE",
"430 589 CURVE SMOOTH",
"178 589 LINE",
"178 69 LINE SMOOTH",
"178 44 OFFCURVE",
"187 36 OFFCURVE",
"205 36 CURVE SMOOTH",
"297 36 LINE",
"297 0 LINE",
"31 0 LINE",
"31 36 LINE"
);
},
{
closed = 1;
nodes = (
"553 -10 OFFCURVE",
"519 27 OFFCURVE",
"519 96 CURVE SMOOTH",
"519 138 LINE SMOOTH",
"519 248 OFFCURVE",
"495 282 OFFCURVE",
"418 282 CURVE",
"418 305 LINE",
"487 305 OFFCURVE",
"508 303 OFFCURVE",
"520 295 CURVE",
"520 290 LINE",
"550 270 OFFCURVE",
"567 215 OFFCURVE",
"567 137 CURVE SMOOTH",
"567 115 LINE SMOOTH",
"567 54 OFFCURVE",
"581 31 OFFCURVE",
"618 31 CURVE SMOOTH",
"655 31 OFFCURVE",
"669 54 OFFCURVE",
"669 115 CURVE SMOOTH",
"669 166 LINE",
"709 166 LINE",
"709 96 LINE SMOOTH",
"709 25 OFFCURVE",
"678 -10 OFFCURVE",
"616 -10 CURVE SMOOTH"
);
}
);
};
layerId = UUID0;
name = "Light Extended";
paths = (
{
closed = 1;
nodes = (
"103 36 LINE SMOOTH",
"121 36 OFFCURVE",
"130 45 OFFCURVE",
"130 69 CURVE SMOOTH",
"130 562 LINE SMOOTH",
"130 587 OFFCURVE",
"121 594 OFFCURVE",
"97 594 CURVE SMOOTH",
"20 594 LINE",
"20 630 LINE",
"409 630 LINE SMOOTH",
"554 630 OFFCURVE",
"631 562 OFFCURVE",
"631 459 CURVE SMOOTH",
"631 349 OFFCURVE",
"547 282 OFFCURVE",
"398 282 CURVE SMOOTH",
"165 282 LINE",
"165 323 LINE",
"400 323 LINE SMOOTH",
"525 323 OFFCURVE",
"586 370 OFFCURVE",
"586 458 CURVE SMOOTH",
"586 542 OFFCURVE",
"529 589 OFFCURVE",
"410 589 CURVE SMOOTH",
"178 589 LINE",
"178 69 LINE SMOOTH",
"178 44 OFFCURVE",
"187 36 OFFCURVE",
"205 36 CURVE SMOOTH",
"307 36 LINE",
"307 0 LINE",
"21 0 LINE",
"21 36 LINE"
);
},
{
closed = 1;
nodes = (
"558 -10 OFFCURVE",
"524 27 OFFCURVE",
"524 96 CURVE SMOOTH",
"524 168 LINE SMOOTH",
"524 248 OFFCURVE",
"485 282 OFFCURVE",
"398 282 CURVE",
"398 305 LINE",
"467 305 OFFCURVE",
"488 303 OFFCURVE",
"500 295 CURVE",
"500 290 LINE",
"553 275 OFFCURVE",
"572 223 OFFCURVE",
"572 167 CURVE SMOOTH",
"572 115 LINE SMOOTH",
"572 54 OFFCURVE",
"586 31 OFFCURVE",
"613 31 CURVE SMOOTH",
"640 31 OFFCURVE",
"654 54 OFFCURVE",
"654 115 CURVE SMOOTH",
"654 166 LINE",
"694 166 LINE",
"694 96 LINE SMOOTH",
"694 25 OFFCURVE",
"663 -10 OFFCURVE",
"611 -10 CURVE SMOOTH"
);
}
);
width = 714;
},
{
background = {
paths = (
{
closed = 1;
nodes = (
"97 90 LINE SMOOTH",
"116 90 OFFCURVE",
"124 100 OFFCURVE",
"124 123 CURVE SMOOTH",
"124 508 LINE SMOOTH",
"124 533 OFFCURVE",
"116 540 OFFCURVE",
"94 540 CURVE SMOOTH",
"22 540 LINE",
"22 630 LINE",
"513 630 LINE SMOOTH",
"658 630 OFFCURVE",
"735 564 OFFCURVE",
"735 454 CURVE SMOOTH",
"735 341 OFFCURVE",
"653 271 OFFCURVE",
"502 271 CURVE SMOOTH",
"249 271 LINE",
"249 372 LINE",
"474 372 LINE SMOOTH",
"561 372 OFFCURVE",
"588 405 OFFCURVE",
"588 456 CURVE SMOOTH",
"588 505 OFFCURVE",
"555 535 OFFCURVE",
"484 535 CURVE SMOOTH",
"262 535 LINE",
"262 123 LINE SMOOTH",
"262 100 OFFCURVE",
"270 90 OFFCURVE",
"289 90 CURVE SMOOTH",
"381 90 LINE",
"381 0 LINE",
"22 0 LINE",
"22 90 LINE"
);
},
{
closed = 1;
nodes = (
"551 -10 OFFCURVE",
"502 52 OFFCURVE",
"502 146 CURVE SMOOTH",
"502 174 LINE SMOOTH",
"502 242 OFFCURVE",
"477 271 OFFCURVE",
"401 271 CURVE",
"434 310 LINE",
"544 310 OFFCURVE",
"583 293 OFFCURVE",
"598 283 CURVE",
"598 278 LINE",
"621 271 OFFCURVE",
"636 239 OFFCURVE",
"636 198 CURVE SMOOTH",
"636 160 LINE SMOOTH",
"636 115 OFFCURVE",
"652 96 OFFCURVE",
"686 96 CURVE SMOOTH",
"720 96 OFFCURVE",
"735 116 OFFCURVE",
"735 150 CURVE SMOOTH",
"735 186 LINE",
"813 186 LINE",
"813 146 LINE SMOOTH",
"813 50 OFFCURVE",
"781 -10 OFFCURVE",
"667 -10 CURVE SMOOTH"
);
}
);
};
layerId = "4355E1B8-19E6-44BD-A1D7-6E3C2DECA4C8";
name = Extended;
paths = (
{
closed = 1;
nodes = (
"97 90 LINE SMOOTH",
"116 90 OFFCURVE",
"124 100 OFFCURVE",
"124 123 CURVE SMOOTH",
"124 508 LINE SMOOTH",
"124 532 OFFCURVE",
"117 540 OFFCURVE",
"94 540 CURVE SMOOTH",
"22 540 LINE",
"22 630 LINE",
"488 630 LINE SMOOTH",
"631 630 OFFCURVE",
"710 567 OFFCURVE",
"710 452 CURVE SMOOTH",
"710 339 OFFCURVE",
"635 271 OFFCURVE",
"511 271 CURVE SMOOTH",
"249 271 LINE",
"249 372 LINE",
"449 372 LINE SMOOTH",
"526 372 OFFCURVE",
"563 398 OFFCURVE",
"563 453 CURVE SMOOTH",
"563 507 OFFCURVE",
"528 535 OFFCURVE",
"459 535 CURVE SMOOTH",
"262 535 LINE",
"262 123 LINE SMOOTH",
"262 100 OFFCURVE",
"270 90 OFFCURVE",
"289 90 CURVE SMOOTH",
"381 90 LINE",
"381 0 LINE",
"22 0 LINE",
"22 90 LINE"
);
},
{
closed = 1;
nodes = (
"545 -10 OFFCURVE",
"487 46 OFFCURVE",
"487 146 CURVE SMOOTH",
"487 174 LINE SMOOTH",
"487 239 OFFCURVE",
"464 271 OFFCURVE",
"386 271 CURVE",
"429 310 LINE",
"507 310 OFFCURVE",
"567 300 OFFCURVE",
"593 283 CURVE",
"593 278 LINE",
"616 271 OFFCURVE",
"631 239 OFFCURVE",
"631 198 CURVE SMOOTH",
"631 160 LINE SMOOTH",
"631 118 OFFCURVE",
"645 96 OFFCURVE",
"671 96 CURVE SMOOTH",
"695 96 OFFCURVE",
"710 116 OFFCURVE",
"710 150 CURVE SMOOTH",
"710 186 LINE",
"788 186 LINE",
"788 146 LINE SMOOTH",
"788 37 OFFCURVE",
"746 -10 OFFCURVE",
"649 -10 CURVE SMOOTH"
);
}
);
width = 798;
},
{
background = {
paths = (
{
closed = 1;
nodes = (
"79 152 LINE SMOOTH",
"98 152 OFFCURVE",
"106 162 OFFCURVE",
"106 185 CURVE SMOOTH",
"106 446 LINE SMOOTH",
"106 470 OFFCURVE",
"98 478 OFFCURVE",
"76 478 CURVE SMOOTH",
"17 478 LINE",
"17 630 LINE",
"539 630 LINE SMOOTH",
"683 630 OFFCURVE",
"771 557 OFFCURVE",
"771 448 CURVE SMOOTH",
"771 329 OFFCURVE",
"664 241 OFFCURVE",
"508 241 CURVE SMOOTH",
"325 241 LINE",
"325 374 LINE",
"414 374 LINE SMOOTH",
"474 374 OFFCURVE",
"502 395 OFFCURVE",
"502 431 CURVE SMOOTH",
"502 465 OFFCURVE",
"476 487 OFFCURVE",
"424 487 CURVE SMOOTH",
"356 487 LINE",
"356 185 LINE SMOOTH",
"356 162 OFFCURVE",
"364 152 OFFCURVE",
"383 152 CURVE SMOOTH",
"425 152 LINE",
"425 0 LINE",
"17 0 LINE",
"17 152 LINE"
);
},
{
closed = 1;
nodes = (
"533 -10 OFFCURVE",
"459 49 OFFCURVE",
"459 156 CURVE SMOOTH",
"459 184 LINE SMOOTH",
"459 224 OFFCURVE",
"444 241 OFFCURVE",
"408 241 CURVE",
"471 310 LINE",
"551 310 OFFCURVE",
"640 296 OFFCURVE",
"665 279 CURVE",
"665 274 LINE",
"691 262 OFFCURVE",
"703 238 OFFCURVE",
"703 198 CURVE SMOOTH",
"703 176 LINE SMOOTH",
"703 159 OFFCURVE",
"709 151 OFFCURVE",
"722 151 CURVE SMOOTH",
"735 151 OFFCURVE",
"742 159 OFFCURVE",
"742 175 CURVE SMOOTH",
"742 236 LINE",
"860 236 LINE",
"860 176 LINE SMOOTH",
"860 46 OFFCURVE",
"802 -10 OFFCURVE",
"667 -10 CURVE SMOOTH"
);
}
);
};
layerId = "14C77FDB-037D-4842-9381-6D9ED15DD48C";
name = "Bold Extended";
paths = (
{
closed = 1;
nodes = (
"79 152 LINE SMOOTH",
"98 152 OFFCURVE",
"106 162 OFFCURVE",
"106 185 CURVE SMOOTH",
"106 446 LINE SMOOTH",
"106 470 OFFCURVE",
"98 478 OFFCURVE",
"76 478 CURVE SMOOTH",
"17 478 LINE",
"17 630 LINE",
"519 630 LINE SMOOTH",
"661 630 OFFCURVE",
"751 559 OFFCURVE",
"751 447 CURVE SMOOTH",
"751 326 OFFCURVE",
"645 241 OFFCURVE",
"493 241 CURVE SMOOTH",
"325 241 LINE",
"325 374 LINE",
"411 374 LINE SMOOTH",
"457 374 OFFCURVE",
"482 394 OFFCURVE",
"482 431 CURVE SMOOTH",
"482 467 OFFCURVE",
"459 487 OFFCURVE",
"414 487 CURVE SMOOTH",
"356 487 LINE",
"356 185 LINE SMOOTH",
"356 162 OFFCURVE",
"364 152 OFFCURVE",
"383 152 CURVE SMOOTH",
"425 152 LINE",
"425 0 LINE",
"17 0 LINE",
"17 152 LINE"
);
},
{
closed = 1;
nodes = (
"531 -10 OFFCURVE",
"459 50 OFFCURVE",
"459 156 CURVE SMOOTH",
"459 184 LINE SMOOTH",
"459 224 OFFCURVE",
"444 241 OFFCURVE",
"408 241 CURVE",
"471 310 LINE",
"547 310 OFFCURVE",
"622 297 OFFCURVE",
"648 279 CURVE",
"648 274 LINE",
"674 262 OFFCURVE",
"686 238 OFFCURVE",
"686 198 CURVE SMOOTH",
"686 176 LINE SMOOTH",
"686 159 OFFCURVE",
"692 151 OFFCURVE",
"705 151 CURVE SMOOTH",
"718 151 OFFCURVE",
"725 159 OFFCURVE",
"725 175 CURVE SMOOTH",
"725 236 LINE",
"833 236 LINE",
"833 176 LINE SMOOTH",
"833 46 OFFCURVE",
"781 -10 OFFCURVE",
"658 -10 CURVE SMOOTH"
);
}
);
width = 843;
}
);
leftMetricsKey = H;
unicode = 0052;
},
{
glyphname = S;
lastChange = "2015-05-08 17:09:39 +0000";
layers = (
{
layerId = "E9E6D55E-9446-45F2-B66C-3272698B0216";
name = "Light Condensed";
paths = (
{
closed = 1;
nodes = (
"111 24 OFFCURVE",
"63 92 OFFCURVE",
"63 214 CURVE",
"32 214 LINE",
"32 0 LINE",
"60 0 LINE",
"65 54 LINE",
"69 54 LINE",
"95 15 OFFCURVE",
"145 -10 OFFCURVE",
"198 -10 CURVE SMOOTH",
"283 -10 OFFCURVE",
"341 54 OFFCURVE",
"341 148 CURVE SMOOTH",
"341 353 OFFCURVE",
"74 329 OFFCURVE",
"74 498 CURVE SMOOTH",
"74 562 OFFCURVE",
"115 601 OFFCURVE",
"181 601 CURVE SMOOTH",
"254 601 OFFCURVE",
"291 547 OFFCURVE",
"291 441 CURVE",
"322 441 LINE",
"322 630 LINE",
"301 630 LINE",
"295 583 LINE",
"291 583 LINE",
"262 617 OFFCURVE",
"223 635 OFFCURVE",
"178 635 CURVE SMOOTH",
"93 635 OFFCURVE",
"37 575 OFFCURVE",
"37 484 CURVE SMOOTH",
"37 282 OFFCURVE",
"303 315 OFFCURVE",
"303 137 CURVE SMOOTH",
"303 66 OFFCURVE",
"263 24 OFFCURVE",
"197 24 CURVE SMOOTH"
);
}
);
width = 378;
},
{
layerId = "B25F85BC-C782-4067-8484-07202F80B8CD";
name = Condensed;
paths = (
{
closed = 1;
nodes = (
"161 91 OFFCURVE",
"129 140 OFFCURVE",
"129 237 CURVE",
"30 237 LINE",
"30 0 LINE",
"117 0 LINE",
"127 54 LINE",
"131 54 LINE",
"160 10 OFFCURVE",
"196 -10 OFFCURVE",
"249 -10 CURVE SMOOTH",
"350 -10 OFFCURVE",
"418 62 OFFCURVE",
"418 169 CURVE SMOOTH",
"418 383 OFFCURVE",
"163 370 OFFCURVE",
"163 474 CURVE SMOOTH",
"163 510 OFFCURVE",
"192 537 OFFCURVE",
"229 537 CURVE SMOOTH",
"278 537 OFFCURVE",
"303 490 OFFCURVE",
"303 399 CURVE",
"403 399 LINE",
"403 630 LINE",
"321 630 LINE",
"309 574 LINE",
"305 574 LINE",
"287 616 OFFCURVE",
"249 638 OFFCURVE",
"196 638 CURVE SMOOTH",
"99 638 OFFCURVE",
"34 567 OFFCURVE",
"34 462 CURVE SMOOTH",
"34 250 OFFCURVE",
"294 275 OFFCURVE",
"294 156 CURVE SMOOTH",
"294 117 OFFCURVE",
"266 91 OFFCURVE",
"223 91 CURVE SMOOTH"
);
}
);
width = 448;
},
{
layerId = "B817C739-5D48-43E8-AAEE-CE891513D7BC";
name = "Bold Condensed";
paths = (
{
closed = 1;
nodes = (
"185 114 OFFCURVE",
"171 147 OFFCURVE",
"171 224 CURVE",
"10 224 LINE",
"10 0 LINE",
"168 0 LINE",
"173 54 LINE",
"177 54 LINE",
"193 14 OFFCURVE",
"234 -10 OFFCURVE",
"288 -10 CURVE SMOOTH",
"372 -10 OFFCURVE",
"422 50 OFFCURVE",
"422 150 CURVE SMOOTH",
"422 364 OFFCURVE",
"191 393 OFFCURVE",
"191 486 CURVE SMOOTH",
"191 503 OFFCURVE",
"204 516 OFFCURVE",
"220 516 CURVE SMOOTH",
"244 516 OFFCURVE",
"258 483 OFFCURVE",
"258 426 CURVE",
"409 426 LINE",
"409 630 LINE",
"278 630 LINE",
"272 588 LINE",
"268 588 LINE",
"249 625 OFFCURVE",
"221 640 OFFCURVE",
"169 640 CURVE SMOOTH",
"72 640 OFFCURVE",
"19 584 OFFCURVE",
"19 482 CURVE SMOOTH",
"19 267 OFFCURVE",
"251 247 OFFCURVE",
"251 153 CURVE SMOOTH",
"251 129 OFFCURVE",
"238 114 OFFCURVE",
"217 114 CURVE SMOOTH"
);
}
);
width = 432;
},
{
layerId = UUID0;
name = "Light Extended";
paths = (
{
closed = 1;
nodes = (
"176 26 OFFCURVE",
"88 100 OFFCURVE",
"88 234 CURVE",
"60 234 LINE",
"60 0 LINE",
"89 0 LINE",
"94 67 LINE",
"98 67 LINE",
"144 19 OFFCURVE",
"233 -10 OFFCURVE",
"335 -10 CURVE SMOOTH",
"489 -10 OFFCURVE",
"583 55 OFFCURVE",
"583 161 CURVE SMOOTH",
"583 400 OFFCURVE",
"114 310 OFFCURVE",
"114 488 CURVE SMOOTH",
"114 560 OFFCURVE",
"190 604 OFFCURVE",
"314 604 CURVE SMOOTH",
"462 604 OFFCURVE",
"534 539 OFFCURVE",
"534 406 CURVE",
"564 406 LINE",
"564 630 LINE",
"536 630 LINE",
"530 574 LINE",
"526 574 LINE",
"476 617 OFFCURVE",
"400 640 OFFCURVE",
"309 640 CURVE SMOOTH",
"161 640 OFFCURVE",
"69 578 OFFCURVE",
"69 477 CURVE SMOOTH",
"69 252 OFFCURVE",
"537 344 OFFCURVE",
"537 153 CURVE SMOOTH",
"537 74 OFFCURVE",
"460 26 OFFCURVE",
"333 26 CURVE SMOOTH"
);
}
);
width = 643;
},
{
layerId = "4355E1B8-19E6-44BD-A1D7-6E3C2DECA4C8";
name = Extended;
paths = (
{
closed = 1;
nodes = (
"232 89 OFFCURVE",
"174 144 OFFCURVE",
"174 247 CURVE",
"65 247 LINE",
"65 0 LINE",
"172 0 LINE",
"182 54 LINE",
"186 54 LINE",
"226 12 OFFCURVE",
"286 -10 OFFCURVE",
"362 -10 CURVE SMOOTH",
"501 -10 OFFCURVE",
"593 64 OFFCURVE",
"593 175 CURVE SMOOTH",
"593 403 OFFCURVE",
"208 345 OFFCURVE",
"208 472 CURVE SMOOTH",
"208 513 OFFCURVE",
"248 537 OFFCURVE",
"319 537 CURVE SMOOTH",
"417 537 OFFCURVE",
"463 493 OFFCURVE",
"463 399 CURVE",
"573 399 LINE",
"573 630 LINE",
"471 630 LINE",
"459 574 LINE",
"455 574 LINE",
"421 616 OFFCURVE",
"365 638 OFFCURVE",
"294 638 CURVE SMOOTH",
"161 638 OFFCURVE",
"69 562 OFFCURVE",
"69 453 CURVE SMOOTH",
"69 227 OFFCURVE",
"459 289 OFFCURVE",
"459 159 CURVE SMOOTH",
"459 115 OFFCURVE",
"416 89 OFFCURVE",
"342 89 CURVE SMOOTH"
);
}
);
width = 638;
},
{
layerId = "14C77FDB-037D-4842-9381-6D9ED15DD48C";
name = "Bold Extended";
paths = (
{
closed = 1;
nodes = (
"241 126 OFFCURVE",
"206 167 OFFCURVE",
"206 247 CURVE",
"15 247 LINE",
"15 0 LINE",
"204 0 LINE",
"214 39 LINE",
"218 39 LINE",
"265 8 OFFCURVE",
"341 -10 OFFCURVE",
"424 -10 CURVE SMOOTH",
"583 -10 OFFCURVE",
"675 58 OFFCURVE",
"675 176 CURVE SMOOTH",
"675 399 OFFCURVE",
"335 370 OFFCURVE",
"335 458 CURVE SMOOTH",
"335 482 OFFCURVE",
"359 497 OFFCURVE",
"396 497 CURVE SMOOTH",
"449 497 OFFCURVE",
"475 465 OFFCURVE",
"475 399 CURVE",
"665 399 LINE",
"665 630 LINE",
"483 630 LINE",
"471 589 LINE",
"467 589 LINE",
"426 620 OFFCURVE",
"352 638 OFFCURVE",
"267 638 CURVE SMOOTH",
"114 638 OFFCURVE",
"29 573 OFFCURVE",
"29 457 CURVE SMOOTH",
"29 225 OFFCURVE",
"376 258 OFFCURVE",
"376 169 CURVE SMOOTH",
"376 143 OFFCURVE",
"349 126 OFFCURVE",
"308 126 CURVE SMOOTH"
);
}
);
width = 690;
}
);
unicode = 0053;
},
